<svg version="1.1" id="Layer_1" xmlns="http://www.w3.org/2000/svg" xmlns:xlink="http://www.w3.org/1999/xlink" x="0px" y="0px"
	 width="100%" viewBox="0 0 1455 749" enable-background="new 0 0 1455 749" xml:space="preserve">
<path fill="#FFFFFF" opacity="1.000000" stroke="none" 
	d="
M1086.000000,750.000000 
	C724.040955,750.000000 362.581879,750.000000 1.061409,750.000000 
	C1.061409,500.402557 1.061409,250.805099 1.061409,1.103821 
	C485.875824,1.103821 970.751709,1.103821 1455.813721,1.103821 
	C1455.813721,250.666550 1455.813721,500.333252 1455.813721,750.000000 
	C1332.804810,750.000000 1209.652466,750.000000 1086.000000,750.000000 
M179.500275,62.479057 
	C149.736786,62.479057 119.973289,62.479057 90.316299,62.479057 
	C90.316299,156.799973 90.316299,250.510941 90.316299,344.215759 
	C195.019913,344.215759 299.403503,344.215759 403.684692,344.215759 
	C403.684692,250.198212 403.684692,156.486725 403.684692,62.479099 
	C329.077484,62.479099 254.788895,62.479099 179.500275,62.479057 
M906.934875,217.878983 
	C908.289856,222.974167 909.997192,228.005646 910.932251,233.176773 
	C913.491821,247.331604 915.141724,261.679016 918.345276,275.677032 
	C919.862732,282.307648 921.336914,289.991089 928.325012,293.897980 
	C943.206543,302.217773 958.524658,299.368256 974.005249,295.993652 
	C972.795654,291.477417 970.433044,292.827637 967.981018,293.603394 
	C958.911316,296.472931 951.418274,293.495605 949.175354,286.050446 
	C948.177063,282.736694 947.514038,279.289612 947.039307,275.855957 
	C944.809265,259.726257 944.888489,243.330109 939.572754,227.561035 
	C935.758240,216.245514 929.139221,208.455841 917.812805,205.118118 
	C909.868469,202.776978 901.690186,201.229935 893.439514,199.286621 
	C899.661804,197.846634 906.044556,197.134323 911.809875,194.857956 
	C920.696411,191.349228 929.657471,187.552307 937.683044,182.454575 
	C948.994080,175.270020 949.919006,163.126617 949.477112,151.122330 
	C948.957397,137.001160 944.681458,124.254646 931.342041,117.373375 
	C923.807373,113.486572 915.356628,110.597466 906.999390,109.274277 
	C895.755127,107.493980 884.208618,107.225166 872.781921,107.078354 
	C849.319397,106.776901 825.850403,106.987801 802.020142,106.987801 
	C802.120850,108.663315 802.201050,109.997894 802.296021,111.577850 
	C811.325317,111.577850 819.942017,111.577850 828.631409,111.577850 
	C828.631409,172.204544 828.631409,232.554993 828.631409,293.106262 
	C819.639648,293.106262 811.003235,293.106262 802.016052,293.106262 
	C802.118408,294.668671 802.205872,296.004425 802.294006,297.349426 
	C829.675659,297.349426 856.624573,297.349426 883.672974,297.349426 
	C883.672974,295.814148 883.672974,294.475403 883.672974,292.709106 
	C874.442993,292.709106 865.545959,292.709106 856.824402,292.709106 
	C856.824402,262.181030 856.824402,232.088699 856.824402,200.742035 
	C867.708496,201.746017 878.242798,202.422577 888.689514,203.775345 
	C896.958252,204.846100 903.056274,209.483124 906.934875,217.878983 
M1219.677246,111.105316 
	C1200.973022,120.396553 1188.784912,136.077606 1179.396606,153.900330 
	C1169.420654,172.838425 1166.820435,193.517502 1169.074341,214.641388 
	C1171.630859,238.601807 1181.336670,259.398682 1198.103760,276.889343 
	C1212.910767,292.335419 1230.884644,300.932922 1252.221680,301.426727 
	C1274.612305,301.944916 1293.284180,293.423248 1309.123413,277.374695 
	C1335.000977,251.155304 1342.140259,219.542511 1337.867554,184.226501 
	C1335.895752,167.929214 1328.528809,153.771820 1319.742554,140.342682 
	C1316.416748,135.259628 1311.989746,130.825714 1307.694580,126.460274 
	C1283.771362,102.145981 1250.113892,96.653183 1219.677246,111.105316 
M627.998596,145.458954 
	C613.990601,167.372421 610.054504,191.436310 613.003967,216.875778 
	C615.228027,236.058319 622.295898,253.200226 634.585510,268.292450 
	C645.994690,282.303345 658.960266,293.480194 676.955139,298.458252 
	C710.498596,307.737610 738.723572,295.104431 758.772644,271.182709 
	C774.387024,252.552292 781.679565,230.590256 782.526550,205.940384 
	C783.362976,181.599289 777.020630,159.923874 763.199951,140.338654 
	C758.643677,133.881958 752.994995,128.065399 747.205750,122.639069 
	C737.619324,113.653687 726.291748,107.035294 713.344910,104.742798 
	C676.295410,98.182426 647.907715,113.661835 627.998596,145.458954 
M456.466797,292.987305 
	C450.856689,292.987305 445.246552,292.987305 439.910339,292.987305 
	C438.482910,297.484314 440.816040,297.583954 443.694458,297.573151 
	C461.522186,297.506195 479.350250,297.539459 497.178223,297.539459 
	C504.984619,297.539459 512.791016,297.539459 520.959045,297.539459 
	C520.880310,295.791962 520.819946,294.451782 520.740662,292.692078 
	C511.429932,292.692078 502.537476,292.692078 493.829071,292.692078 
	C493.829071,264.480469 493.829071,236.711823 493.829071,208.438507 
	C497.999023,209.698975 501.714996,211.548828 505.554871,211.857330 
	C522.337524,213.205719 538.926392,212.830383 554.866882,206.030594 
	C570.297974,199.448090 582.508606,189.911026 586.295288,172.758743 
	C587.661133,166.571976 587.663391,159.959579 587.437073,153.571564 
	C586.950989,139.855988 581.106323,128.470093 569.831055,120.683693 
	C557.404297,112.102119 543.027161,108.015579 528.115662,107.623573 
	C500.321320,106.892899 472.501190,107.143997 444.691772,106.988419 
	C443.067535,106.979332 441.443237,106.987251 439.900818,106.987251 
	C438.886566,110.343536 439.610779,111.674980 442.974823,111.595413 
	C450.552734,111.416183 458.137787,111.539162 465.690338,111.539162 
	C465.690338,172.346207 465.690338,232.566681 465.690338,292.987305 
	C462.748260,292.987305 460.101593,292.987305 456.466797,292.987305 
M237.320190,504.861633 
	C224.774139,513.371216 216.037872,525.356079 209.101898,538.346558 
	C201.277145,553.001587 197.037582,568.783691 196.002853,585.753662 
	C195.131042,600.051941 198.488052,613.158508 202.501022,626.317505 
	C204.064011,631.442688 207.443848,636.003235 209.906235,640.866455 
	C220.772125,662.326660 237.630554,676.987427 260.577057,683.967712 
	C287.309509,692.099731 313.072021,688.527893 337.730286,675.721252 
	C340.276642,674.398865 342.142822,672.653076 340.519867,670.016846 
	C339.982605,669.144104 336.648743,669.123962 335.141174,669.850403 
	C317.904358,678.156555 299.899475,679.759583 281.316437,676.301697 
	C262.102417,672.726379 248.516068,661.090271 240.255569,644.165466 
	C235.443024,634.305237 232.894363,623.115112 230.724625,612.244446 
	C227.738373,597.282837 228.779068,582.018799 230.053909,566.877930 
	C231.029358,555.292908 233.746475,544.106079 238.787369,533.580627 
	C248.909515,512.445435 264.806030,498.892059 288.641785,495.794800 
	C310.557129,492.947083 330.108459,498.039795 345.420593,514.416748 
	C354.240112,523.849670 359.670044,535.664185 364.105927,547.822021 
	C364.617188,549.223267 366.087219,550.274719 367.112732,551.488342 
	C367.587677,550.077087 368.469513,548.667725 368.476227,547.254211 
	C368.567322,528.094910 368.541138,508.935028 368.527222,489.775299 
	C368.526276,488.488129 368.391174,487.200989 368.306305,485.698792 
	C365.426697,485.698792 362.855865,485.698792 360.185089,485.698792 
	C358.569855,492.269562 357.002319,498.646362 355.193207,506.005859 
	C316.014801,480.418579 277.029449,478.495117 237.320190,504.861633 
M1143.984863,156.751587 
	C1143.984863,158.720535 1143.984863,160.689484 1143.984863,163.027100 
	C1145.708130,162.886490 1147.039917,162.777817 1148.314697,162.673798 
	C1148.314697,143.943893 1148.314697,125.661552 1148.314697,107.190918 
	C1093.183472,107.190918 1038.279175,107.190918 983.180542,107.190918 
	C983.180542,125.820038 983.180542,144.244644 983.180542,163.018997 
	C984.695618,162.892883 986.031433,162.781693 986.628723,162.731964 
	C987.995789,152.978760 988.807007,143.715530 990.700012,134.678925 
	C992.533142,125.928238 997.764893,119.460320 1006.605957,116.416641 
	C1021.289490,111.361588 1036.486572,111.814888 1051.701172,111.537453 
	C1051.701172,172.304138 1051.701172,232.533478 1051.701172,293.109070 
	C1042.311157,293.109070 1033.201294,293.109070 1023.905701,293.109070 
	C1024.035889,294.730011 1024.137085,295.989441 1024.261719,297.540955 
	C1051.194092,297.540955 1077.835938,297.517059 1104.477905,297.567505 
	C1108.342651,297.574829 1107.776855,295.553955 1106.976929,292.712219 
	C1097.775146,292.712219 1088.711304,292.712219 1079.836182,292.712219 
	C1079.836182,232.166763 1079.836182,172.074203 1079.836182,110.705894 
	C1092.713989,111.863922 1105.260010,112.538528 1117.668945,114.223495 
	C1132.971191,116.301315 1140.677856,126.110184 1142.425049,141.041321 
	C1143.001221,145.965530 1143.458374,150.903656 1143.984863,156.751587 
M141.631775,448.134735 
	C142.415802,453.455719 143.845825,458.772705 143.878662,464.098328 
	C144.086151,497.745178 143.983917,531.393921 143.983932,565.042053 
	C143.983932,566.788513 143.983932,568.534973 143.983932,570.140747 
	C151.559265,570.140747 158.449661,570.140747 165.730042,570.140747 
	C165.730042,548.817505 165.730042,527.897461 165.730042,506.828308 
	C174.249115,506.828308 182.404343,506.312622 190.463715,506.970734 
	C198.811859,507.652435 205.190964,511.652771 207.029556,520.731079 
	C207.249268,521.815918 208.271194,522.738281 208.921280,523.735901 
	C209.181915,523.565979 209.442535,523.395996 209.703156,523.226074 
	C209.703156,510.509216 209.703156,497.792389 209.703156,485.219757 
	C206.248062,484.341309 204.352020,485.255035 203.794098,488.733673 
	C203.457855,490.830109 202.635834,492.890411 201.748444,494.837677 
	C201.349426,495.713287 200.263779,496.875610 199.477631,496.884888 
	C188.213837,497.017670 176.948013,496.975616 165.546967,496.975616 
	C165.546967,483.724609 165.447678,471.066711 165.581757,458.411285 
	C165.671616,449.930054 167.794220,448.020782 176.325592,448.017456 
	C190.439026,448.011902 204.552444,448.015930 218.794434,448.015930 
	C218.794434,444.680481 218.794434,441.772186 218.794434,438.724152 
	C187.672119,438.724152 156.772156,438.724152 125.895508,438.724152 
	C125.547386,442.904816 125.591080,442.758698 128.772964,443.710236 
	C132.852844,444.930237 136.853622,446.414764 141.631775,448.134735 
M1122.413452,463.499207 
	C1122.413452,469.935425 1122.413452,476.371643 1122.413452,482.738464 
	C1125.771973,482.738464 1128.520874,482.738464 1131.793945,482.738464 
	C1131.793945,471.280579 1131.793945,460.111511 1131.793945,448.942474 
	C1139.081909,458.306488 1145.788452,467.709076 1151.638184,477.617523 
	C1155.028076,483.359375 1159.149414,484.816742 1165.332031,482.981171 
	C1165.332031,466.476288 1165.332031,449.910858 1165.332031,433.167847 
	C1162.371216,433.167847 1159.612183,433.167847 1156.296387,433.167847 
	C1156.296387,444.521332 1156.296387,455.682159 1156.296387,468.229919 
	C1148.966064,456.689270 1142.480347,446.368073 1135.835205,436.150635 
	C1134.966919,434.815491 1133.384644,433.329254 1131.948242,433.106720 
	C1128.929443,432.639099 1125.787964,432.964722 1122.413452,432.964722 
	C1122.413452,443.232635 1122.413452,452.866058 1122.413452,463.499207 
M934.286682,478.916077 
	C935.249268,477.996490 936.223511,477.088806 937.172485,476.155426 
	C944.072510,469.368744 945.857361,461.045532 943.732605,451.954742 
	C941.488831,442.355072 935.272827,435.883972 925.551575,434.346436 
	C916.791138,432.960907 907.794434,433.068939 898.683105,432.504669 
	C898.683105,449.849701 898.683105,466.269623 898.683105,483.026703 
	C904.402832,483.026703 909.932861,483.521912 915.332886,482.895935 
	C921.483215,482.182922 927.517639,480.469513 934.286682,478.916077 
M827.348694,471.737549 
	C828.370911,468.273499 829.828247,464.872162 830.338318,461.334290 
	C832.298889,447.735138 825.006653,436.659210 811.528137,434.249420 
	C802.992371,432.723358 794.122314,433.066437 785.343628,432.567902 
	C785.343628,449.915771 785.343628,466.425903 785.343628,483.013611 
	C791.689941,483.013611 797.682861,482.871155 803.666565,483.046143 
	C813.246643,483.326233 821.230103,480.313202 827.348694,471.737549 
M702.455994,483.013733 
	C711.590759,483.377808 719.736877,481.559875 726.203613,474.214233 
	C736.878113,462.088898 731.554565,439.380402 716.031494,435.359192 
	C706.474609,432.883545 696.209656,433.141083 686.273010,432.172424 
	C686.273010,450.009583 686.273010,466.401703 686.273010,483.013733 
	C691.528687,483.013733 696.499512,483.013733 702.455994,483.013733 
M618.194946,483.773132 
	C629.151367,482.503235 634.824036,479.403534 635.326233,471.850220 
	C636.179138,459.021027 635.560852,446.094025 635.560852,433.275085 
	C632.997559,433.275085 630.086548,433.275085 626.977539,433.275085 
	C626.977539,436.382385 626.977722,439.193939 626.977417,442.005463 
	C626.976746,449.499359 627.110229,456.996368 626.934509,464.486176 
	C626.783386,470.923920 624.683167,473.572510 619.608887,474.536957 
	C609.443115,476.469116 604.124207,472.146088 604.038879,461.733734 
	C603.961365,452.281860 604.022461,442.828888 604.022461,433.179504 
	C600.727295,433.179504 597.813354,433.179504 594.981689,433.179504 
	C594.981689,445.120178 594.638245,456.898956 595.099304,468.646149 
	C595.420288,476.824249 600.159363,481.431000 608.426147,482.995972 
	C611.349548,483.549377 614.352966,483.680695 618.194946,483.773132 
M1294.865723,455.615295 
	C1299.238037,458.296844 1303.679688,460.873596 1307.957886,463.697571 
	C1310.698730,465.506775 1315.141846,466.805237 1313.486816,471.248566 
	C1311.816406,475.733887 1307.523193,475.370880 1303.715332,474.324341 
	C1299.929932,473.283966 1296.265259,471.804199 1292.257446,470.416656 
	C1291.152588,472.865143 1289.942139,475.547455 1288.745239,478.199860 
	C1296.667114,483.362335 1303.184448,484.664429 1312.956909,483.121490 
	C1318.583252,482.233185 1322.162842,479.131317 1323.327148,474.058258 
	C1324.646973,468.308105 1323.931274,463.125488 1318.618774,459.600403 
	C1314.349609,456.767639 1309.694336,454.469025 1305.658936,451.352478 
	C1303.700195,449.839722 1302.769043,446.996277 1301.372681,444.755280 
	C1303.964478,443.758331 1306.594727,441.862457 1309.139038,441.971497 
	C1313.130249,442.142487 1317.063354,443.666718 1321.258545,444.674927 
	C1322.488159,441.878204 1323.656860,439.219604 1324.924194,436.336853 
	C1316.288330,432.201874 1307.792725,430.532013 1298.897217,434.342133 
	C1289.200195,438.495544 1287.385742,446.919678 1294.865723,455.615295 
M503.386932,483.022705 
	C506.566467,483.336304 508.809143,482.924652 510.145569,479.121826 
	C513.190186,470.458313 513.470520,470.556824 523.108032,470.558960 
	C523.607117,470.559082 524.124939,470.646942 524.602295,470.545074 
	C528.427490,469.728973 529.974976,471.856964 530.799988,475.143616 
	C532.809326,483.148590 532.838562,483.146088 541.012695,483.010925 
	C541.605957,483.001129 542.196899,482.850494 543.008850,482.733704 
	C537.605530,467.717773 532.058899,453.039368 527.132507,438.155670 
	C525.691162,433.800964 523.735474,432.716553 519.437500,432.833893 
	C514.595154,432.966034 515.672180,436.688690 514.745972,439.120300 
	C509.242004,453.569305 503.864410,468.066467 498.266449,483.022797 
	C500.188995,483.022797 501.341522,483.022797 503.386932,483.022705 
M770.994324,462.273041 
	C767.947571,453.557495 764.670532,444.912689 761.962463,436.093140 
	C760.808105,432.333557 758.335632,433.046631 755.801147,432.978241 
	C753.467590,432.915283 751.436096,432.683167 750.402161,435.828186 
	C746.591125,447.420410 742.469788,458.911011 738.422546,470.424866 
	C736.985840,474.512329 735.427612,478.557068 733.815735,482.916687 
	C737.473572,482.916687 740.448792,482.916687 743.547852,482.916687 
	C743.978271,482.073395 744.494873,481.250824 744.834900,480.360779 
	C746.046265,477.189270 746.324463,472.584106 748.598999,471.176361 
	C751.271545,469.522308 755.688660,470.903168 759.292847,470.483734 
	C763.885803,469.949219 765.851440,471.740631 766.311951,476.275208 
	C766.798462,481.066437 769.126709,484.188629 774.698242,483.041901 
	C775.790588,482.817047 776.945435,482.895844 778.621460,482.804749 
	C776.077637,475.999603 773.652588,469.512329 770.994324,462.273041 
M1253.124634,479.891968 
	C1254.482544,476.796783 1255.047241,472.412415 1257.413818,470.956085 
	C1259.960205,469.389069 1264.196533,470.568024 1267.695435,470.548981 
	C1267.862061,470.548065 1268.035156,470.578583 1268.194458,470.544525 
	C1272.056519,469.719513 1273.522461,471.874695 1274.269165,475.216187 
	C1276.057861,483.221100 1276.102783,483.214722 1284.149536,483.010559 
	C1284.792358,482.994293 1285.432617,482.878693 1286.279175,482.786987 
	C1285.952148,481.524994 1285.750977,480.380920 1285.362061,479.304718 
	C1280.412720,465.605560 1275.156738,452.007568 1270.629272,438.171021 
	C1269.188721,433.767883 1267.226196,432.818695 1262.975586,432.826691 
	C1258.037964,432.835907 1259.157593,436.678040 1258.250854,439.026459 
	C1252.663574,453.497162 1247.289673,468.050140 1241.568604,483.312439 
	C1245.795776,481.945648 1250.140991,485.359192 1253.124634,479.891968 
M1219.930298,533.625366 
	C1213.817017,523.848511 1204.542969,520.244385 1193.791626,522.309082 
	C1183.443237,524.296326 1176.300049,531.063110 1174.345215,541.795898 
	C1172.470459,552.088074 1174.135010,561.640076 1183.054688,568.556519 
	C1191.909790,575.422852 1201.697266,575.371826 1211.213989,570.811829 
	C1222.902466,565.211304 1227.857178,547.448608 1219.930298,533.625366 
M554.440918,545.496033 
	C554.440918,550.696472 554.440918,555.896851 554.440918,561.097290 
	C546.059570,549.954407 538.379944,538.830811 531.545715,527.210022 
	C528.488403,522.011353 524.905823,521.813416 520.309387,522.858521 
	C520.309387,539.535522 520.309387,555.927490 520.309387,572.214478 
	C522.384033,572.214478 524.120422,572.214478 526.197754,572.214478 
	C526.197754,558.339294 526.197754,544.802429 526.197754,530.125610 
	C534.763489,543.395874 542.925598,555.564758 550.526367,568.074707 
	C553.182129,572.445801 555.973022,574.216614 560.752258,572.532349 
	C560.752258,555.911682 560.752258,539.351624 560.752258,522.782837 
	C558.583801,522.782837 556.691956,522.782837 554.441101,522.782837 
	C554.441101,530.243591 554.441101,537.370544 554.440918,545.496033 
M852.511414,432.980011 
	C848.257019,432.980011 844.002563,432.980011 839.726440,432.980011 
	C839.726440,449.991699 839.726440,466.389557 839.726440,482.767303 
	C850.259399,482.767303 860.509216,482.767303 870.782593,482.767303 
	C870.782593,480.102539 870.782593,477.696533 870.782593,474.908752 
	C863.482483,474.908752 856.408752,474.908752 849.266602,474.908752 
	C849.266602,470.265625 849.266602,466.018921 849.266602,461.382324 
	C854.934387,461.382324 860.358582,461.382324 865.723816,461.382324 
	C865.723816,458.567078 865.723816,456.159058 865.723816,453.301880 
	C860.048401,453.301880 854.655640,453.301880 849.344177,453.301880 
	C849.344177,448.939331 849.344177,445.049377 849.344177,440.786224 
	C856.409912,440.786224 863.156128,440.786224 869.719543,440.786224 
	C869.719543,437.983307 869.719543,435.577820 869.719543,432.980011 
	C864.116394,432.980011 858.811218,432.980011 852.511414,432.980011 
M978.676270,453.621552 
	C973.417969,453.621552 968.159668,453.621552 962.735657,453.621552 
	C962.735657,449.017395 962.735657,445.245148 962.735657,441.038239 
	C969.584961,441.038239 976.344971,441.038239 983.313843,441.038239 
	C983.313843,438.192596 983.313843,435.780823 983.313843,433.191589 
	C973.167786,433.191589 963.262024,433.191589 953.350464,433.191589 
	C953.350464,449.924530 953.350464,466.443115 953.350464,482.820068 
	C963.843079,482.820068 973.964600,482.820068 984.318481,482.820068 
	C984.318481,480.208588 984.318481,477.796997 984.318481,474.952759 
	C977.004028,474.952759 969.912231,474.952759 962.917847,474.952759 
	C962.917847,470.287018 962.917847,466.064270 962.917847,461.439941 
	C968.539246,461.439941 973.807251,461.439941 979.300171,461.439941 
	C979.300171,458.754791 979.300171,456.476837 978.676270,453.621552 
M1099.431396,461.553894 
	C1102.211792,461.553894 1104.992188,461.553894 1107.733154,461.553894 
	C1107.733154,458.590393 1107.733154,456.175079 1107.733154,453.314423 
	C1102.064819,453.314423 1096.669434,453.314423 1091.337769,453.314423 
	C1091.337769,448.954529 1091.337769,445.063019 1091.337769,440.797852 
	C1098.396973,440.797852 1105.143433,440.797852 1111.725464,440.797852 
	C1111.725464,437.997589 1111.725464,435.588257 1111.725464,433.281433 
	C1101.541382,433.281433 1091.654419,433.281433 1081.724976,433.281433 
	C1081.724976,449.985260 1081.724976,466.385406 1081.724976,482.767761 
	C1092.256714,482.767761 1102.507324,482.767761 1112.782959,482.767761 
	C1112.782959,480.103302 1112.782959,477.697144 1112.782959,474.908630 
	C1105.482788,474.908630 1098.408936,474.908630 1091.267212,474.908630 
	C1091.267212,470.264648 1091.267212,466.017242 1091.267212,461.553772 
	C1093.827759,461.553772 1096.141968,461.553772 1099.431396,461.553894 
M1186.111694,436.572205 
	C1174.243530,445.784821 1171.519043,460.800262 1179.495850,473.032654 
	C1186.697754,484.076782 1202.775146,487.444061 1216.060791,480.515778 
	C1215.559326,478.076538 1215.043579,475.568115 1214.507812,472.962158 
	C1204.560669,475.581268 1195.188965,477.610016 1188.570923,466.996704 
	C1184.621704,460.663208 1184.147095,453.686584 1188.880371,447.575348 
	C1195.757690,438.695892 1204.606812,440.477203 1213.643555,444.314941 
	C1214.778687,441.809448 1215.779541,439.600403 1216.895142,437.137817 
	C1206.849365,430.917755 1196.889038,430.419617 1186.111694,436.572205 
M1045.719727,482.160339 
	C1052.544556,480.224152 1046.519775,476.123871 1047.873169,473.010712 
	C1031.675415,476.774567 1027.326172,475.616058 1021.133667,466.205963 
	C1017.335083,460.433624 1017.334717,452.803436 1022.045898,447.223663 
	C1028.995361,438.992859 1037.651978,440.304108 1046.631104,444.390503 
	C1047.789062,441.781311 1048.820435,439.457306 1049.812744,437.221252 
	C1033.436768,425.613281 1008.631287,435.377747 1007.931519,456.115021 
	C1007.560181,467.120941 1014.252502,479.626740 1023.920898,482.192474 
	C1030.766724,484.009155 1037.899414,485.419922 1045.719727,482.160339 
M579.455933,483.055511 
	C581.665039,482.469818 583.874084,481.884094 586.585144,481.165283 
	C585.931274,478.256195 585.341492,475.632172 584.749329,472.997528 
	C569.226074,476.762207 564.123596,475.477203 558.652649,466.624695 
	C554.571838,460.021576 554.934387,452.780792 559.643555,446.833191 
	C564.525452,440.667450 572.282227,439.762939 583.559570,444.213776 
	C584.843872,441.901276 586.145203,439.558197 587.559998,437.010712 
	C584.949402,435.804016 583.041809,434.818573 581.058289,434.022522 
	C569.563965,429.409515 554.830261,433.892853 549.033081,443.918915 
	C543.275635,453.876312 543.648987,463.643341 550.063965,473.329224 
	C557.131348,484.000122 567.573486,484.480347 579.455933,483.055511 
M1366.562256,550.146729 
	C1365.738403,545.314209 1365.834106,540.073425 1363.906250,535.731018 
	C1359.381592,525.539917 1348.082764,520.220642 1337.081177,522.046143 
	C1327.342773,523.662048 1319.090210,532.030212 1317.077759,542.329834 
	C1314.878296,553.587158 1319.807495,565.931030 1328.808228,570.698242 
	C1341.883057,577.623413 1364.259888,573.537598 1366.562256,550.146729 
M1096.402954,567.924988 
	C1101.415649,564.042236 1103.709473,558.713562 1104.680420,552.621216 
	C1107.813721,532.961609 1092.107910,518.599976 1073.929321,522.440674 
	C1063.787231,524.583435 1056.314087,533.382019 1054.979736,543.211792 
	C1053.408569,554.786438 1057.711426,565.410339 1066.455322,570.163879 
	C1076.503662,575.626648 1086.447144,575.218079 1096.402954,567.924988 
M831.361450,560.747681 
	C837.756470,547.196411 834.140991,532.109802 822.745544,526.372742 
	C813.219666,521.576904 802.933105,522.108337 792.824158,522.649658 
	C792.824158,539.592896 792.824158,555.982544 792.824158,572.593506 
	C798.563843,572.593506 803.896790,572.389282 809.208557,572.638306 
	C818.708069,573.083557 825.982971,569.518372 831.361450,560.747681 
M921.990295,526.415649 
	C912.302673,522.080811 902.134216,522.025146 891.735046,522.631165 
	C891.735046,539.416870 891.735046,555.803101 891.735046,572.550354 
	C899.022583,572.550354 905.999878,572.799011 912.944397,572.430664 
	C915.804565,572.278931 918.903259,571.316284 921.365845,569.841492 
	C937.228821,560.341858 937.821289,537.526489 921.990295,526.415649 
M1004.979919,571.085754 
	C1006.185120,571.585571 1007.376099,572.471680 1008.598022,572.516602 
	C1013.247253,572.687378 1017.909607,572.476257 1022.561279,572.609131 
	C1033.427002,572.919556 1041.178711,568.152405 1045.057861,558.077881 
	C1050.322632,544.404419 1045.978882,529.338074 1031.820557,524.984619 
	C1023.488342,522.422668 1014.312805,522.603333 1004.964478,521.484436 
	C1004.964478,538.636597 1004.964478,554.394165 1004.979919,571.085754 
M1235.421265,568.131470 
	C1235.521729,569.541992 1235.622192,570.952576 1235.722412,572.359253 
	C1238.030762,572.359253 1239.806885,572.359253 1242.154541,572.359253 
	C1242.154541,565.133057 1242.154541,558.105835 1242.154541,551.474060 
	C1247.220947,549.869751 1249.813354,552.098267 1251.911011,555.789124 
	C1254.441040,560.240601 1257.480225,564.407471 1259.925049,568.901062 
	C1262.103516,572.905090 1265.073853,573.157959 1269.094238,572.037659 
	C1264.449341,564.727478 1260.040894,557.789307 1255.822632,551.150574 
	C1258.341309,549.499512 1260.746704,548.322510 1262.657593,546.597595 
	C1269.372070,540.536438 1267.747925,526.702026 1259.501953,524.497803 
	C1251.887329,522.462280 1243.689087,522.609375 1235.421143,521.761719 
	C1235.421143,537.918579 1235.421143,552.564148 1235.421265,568.131470 
M714.866760,542.967529 
	C715.253601,541.012390 715.841919,539.072266 715.989319,537.099182 
	C716.426086,531.253174 713.142639,524.940674 708.153503,524.084167 
	C700.613525,522.789734 692.885864,522.588867 685.316895,521.930176 
	C685.316895,539.581482 685.316895,555.974792 685.316895,572.619934 
	C687.576355,572.518860 689.470154,572.434143 691.663696,572.335999 
	C691.663696,564.991211 691.663696,558.221802 691.663696,551.494812 
	C696.027039,550.124084 698.852539,551.334778 700.960022,555.116821 
	C703.446899,559.579834 706.515625,563.720520 708.967407,568.200500 
	C711.097168,572.091980 713.924805,573.560425 718.570007,572.123962 
	C713.856750,564.957825 709.196289,557.872009 705.174744,551.757568 
	C708.637634,548.718506 711.543457,546.168335 714.866760,542.967529 
M465.446075,457.499756 
	C465.446075,465.930359 465.446075,474.360962 465.446075,482.749451 
	C468.941193,482.749451 471.857208,482.749451 475.150024,482.749451 
	C475.150024,475.750549 475.150024,469.013550 475.150024,461.872253 
	C481.097290,461.872253 486.664581,461.872253 492.259399,461.872253 
	C492.259399,459.031372 492.259399,456.625092 492.259399,453.821869 
	C486.391388,453.821869 480.811493,453.821869 475.309906,453.821869 
	C475.309906,449.350769 475.309906,445.288055 475.309906,440.814819 
	C482.487335,440.814819 489.380646,440.814819 496.234070,440.814819 
	C496.234070,437.980530 496.234070,435.575043 496.234070,433.300049 
	C485.855408,433.300049 475.799347,433.300049 465.446106,433.300049 
	C465.446106,441.244202 465.446106,448.871979 465.446075,457.499756 
M504.075897,561.329529 
	C504.075897,548.447876 504.075897,535.566223 504.075897,522.347717 
	C502.121613,522.450256 500.391571,522.541077 498.377625,522.646729 
	C498.377625,526.790771 498.390930,530.430054 498.374756,534.069214 
	C498.341461,541.553772 498.414001,549.041565 498.217041,556.522095 
	C498.002625,564.665771 491.988342,568.157593 485.686005,568.357849 
	C478.088501,568.599304 472.647552,564.362488 472.162933,556.799744 
	C471.568573,547.524353 471.761322,538.198181 471.627045,528.893799 
	C471.597076,526.817322 471.622620,524.740051 471.622620,522.312683 
	C469.078888,522.452332 467.353851,522.547058 465.390656,522.654785 
	C465.390656,533.988403 465.323761,544.788269 465.448242,555.585876 
	C465.472534,557.693665 466.026794,559.864075 466.702271,561.883301 
	C469.222748,569.417175 475.495117,573.572083 484.766785,574.053101 
	C493.856018,574.524658 499.607208,570.921143 504.075897,561.329529 
M873.122803,564.472839 
	C874.187378,567.191589 875.252014,569.910339 876.316101,572.627808 
	C878.525024,572.530701 880.272034,572.453918 882.717407,572.346436 
	C877.007690,556.606018 871.262085,541.521362 866.146667,526.225891 
	C864.512756,521.340576 862.310181,519.805603 857.490173,521.538452 
	C851.504333,538.283752 845.484070,555.125244 839.308594,572.401001 
	C842.018066,572.401001 843.804749,572.401001 845.866760,572.401001 
	C847.615845,567.667419 849.377014,562.901184 851.140198,558.129456 
	C857.729675,558.129456 864.201355,558.129456 870.732239,558.129456 
	C871.462097,560.037598 872.165771,561.877136 873.122803,564.472839 
M655.489502,544.348755 
	C653.921387,544.348755 652.353271,544.348755 650.976318,544.348755 
	C650.976318,538.442993 650.976318,533.376648 650.976318,527.840759 
	C658.361511,527.840759 665.430603,527.840759 672.760193,527.840759 
	C672.578918,525.758789 672.442017,524.186646 672.315002,522.727112 
	C662.783569,522.727112 653.730896,522.727112 644.694519,522.727112 
	C644.694519,539.490845 644.694519,555.871338 644.694519,572.390137 
	C654.283691,572.390137 663.523560,572.390137 672.871948,572.390137 
	C672.871948,570.676147 672.871948,569.224792 672.871948,567.252930 
	C665.456970,567.252930 658.220825,567.252930 650.942261,567.252930 
	C650.942261,561.166565 650.942261,555.604431 650.942261,549.636353 
	C656.813538,549.636353 662.407043,549.636353 668.266235,549.636353 
	C668.266235,547.713318 668.266235,546.202576 668.266235,544.349121 
	C664.090637,544.349121 660.288391,544.349121 655.489502,544.348755 
M966.386841,567.347778 
	C961.613159,567.347778 956.839478,567.347778 951.904907,567.347778 
	C951.904907,561.240784 951.904907,555.678101 951.904907,549.545288 
	C957.864075,549.545288 963.590149,549.545288 969.666626,549.545288 
	C969.537781,547.544922 969.447205,546.138733 969.320496,544.171875 
	C963.269592,544.171875 957.547913,544.171875 951.933594,544.171875 
	C951.933594,538.510498 951.933594,533.438354 951.933594,527.899658 
	C959.279175,527.899658 966.355469,527.899658 973.734314,527.899658 
	C973.577454,525.823303 973.458984,524.254395 973.341125,522.693970 
	C963.858704,522.693970 954.803406,522.693970 945.663940,522.693970 
	C945.663940,539.425537 945.663940,555.808167 945.663940,572.420410 
	C955.231323,572.420410 964.481262,572.420410 973.899170,572.420410 
	C973.899170,570.736511 973.899170,569.274902 973.899170,567.347595 
	C971.613770,567.347595 969.482361,567.347595 966.386841,567.347778 
M1159.228027,524.055176 
	C1151.578003,523.326233 1143.927979,522.597290 1136.308594,521.871277 
	C1136.308594,539.523682 1136.308594,555.920593 1136.308594,572.214478 
	C1138.382812,572.214478 1140.119873,572.214478 1142.225586,572.214478 
	C1142.225586,565.947083 1142.225586,560.018433 1142.225586,553.808167 
	C1144.593872,554.084229 1146.553223,554.356445 1148.521118,554.534241 
	C1156.339600,555.240540 1164.988159,550.164612 1166.982422,543.728394 
	C1169.420166,535.860718 1166.604736,528.154114 1159.228027,524.055176 
M756.425476,563.610107 
	C757.890198,556.867188 756.246643,551.610413 749.725220,548.201050 
	C745.476074,545.979614 741.226685,543.561035 737.536133,540.546692 
	C735.480957,538.868103 733.153687,535.526794 733.543518,533.413330 
	C733.931030,531.312256 737.468811,528.495361 739.800842,528.319275 
	C744.683289,527.950500 749.681152,529.111450 755.336548,529.720093 
	C755.618896,529.209961 756.451111,527.706177 757.338501,526.102661 
	C750.929077,521.829956 744.144409,521.115784 737.452942,522.693054 
	C732.886414,523.769348 728.319946,526.097229 726.990112,531.562622 
	C725.588745,537.322205 727.908081,541.659119 732.555481,544.768311 
	C736.805115,547.611511 741.360352,549.994080 745.665405,552.759460 
	C750.028625,555.562134 751.647461,559.530762 749.844421,563.266479 
	C747.828430,567.443359 744.095459,568.602722 739.830688,567.642517 
	C735.859314,566.748291 731.987488,565.411682 727.677612,564.154846 
	C727.017700,565.078430 726.112366,566.345398 724.944031,567.980469 
	C727.098083,569.309753 728.923462,570.801453 731.009644,571.658752 
	C738.971802,574.931274 753.243591,574.554932 756.425476,563.610107 
M618.736511,551.066956 
	C617.417725,554.629211 616.098938,558.191467 614.544739,562.389709 
	C609.802002,550.023193 605.165649,538.524597 601.028320,526.848999 
	C599.425293,522.325317 597.075623,521.512512 592.911377,523.118774 
	C599.054626,539.435425 605.074646,555.532837 611.247070,571.571533 
	C611.651001,572.621277 613.276855,573.914856 614.236755,573.840210 
	C615.241150,573.762146 616.557861,572.336853 616.999268,571.210815 
	C621.344482,560.125183 625.549194,548.984253 629.764343,537.847778 
	C631.625305,532.931213 633.418884,527.989075 635.273499,522.976013 
	C629.002319,522.011963 629.026306,522.020386 627.291321,526.939087 
	C624.540527,534.737732 621.753906,542.523804 618.736511,551.066956 
M648.984009,473.467896 
	C648.984009,476.575256 648.984009,479.682617 648.984009,482.759949 
	C659.275513,482.759949 669.020264,482.759949 678.768555,482.759949 
	C678.768555,480.089417 678.768555,477.681732 678.768555,474.883423 
	C671.930298,474.883423 665.328491,474.883423 658.346069,474.883423 
	C658.346069,460.725433 658.346069,446.965851 658.346069,433.273254 
	C655.026917,433.273254 652.110779,433.273254 648.984009,433.273254 
	C648.984009,446.533722 648.984009,459.505890 648.984009,473.467896 
M1288.977661,567.285400 
	C1288.977661,568.903687 1288.977661,570.521973 1288.977661,572.306641 
	C1291.177246,572.306641 1292.914307,572.306641 1295.054932,572.306641 
	C1295.054932,557.499268 1295.054932,542.935913 1295.054932,528.005249 
	C1300.872314,528.005249 1306.298706,528.005249 1311.828613,528.005249 
	C1311.828613,526.040466 1311.828613,524.451721 1311.828613,522.703735 
	C1298.733765,522.703735 1285.832764,522.703735 1272.698975,522.703735 
	C1272.698975,524.533142 1272.698975,526.098267 1272.698975,528.081055 
	C1278.184082,528.081055 1283.432739,528.081055 1288.977661,528.081055 
	C1288.977661,541.110291 1288.977661,553.723755 1288.977661,567.285400 
M1058.441040,459.499756 
	C1058.441040,467.269531 1058.441040,475.039307 1058.441040,482.727661 
	C1061.991577,482.727661 1064.905151,482.727661 1067.747559,482.727661 
	C1067.747559,466.017303 1067.747559,449.603027 1067.747559,433.276794 
	C1064.560547,433.276794 1061.656006,433.276794 1058.441040,433.276794 
	C1058.441040,441.881378 1058.441040,450.190582 1058.441040,459.499756 
M1235.022339,455.500000 
	C1235.022339,448.059662 1235.022339,440.619293 1235.022339,433.276917 
	C1231.560303,433.276917 1228.655762,433.276917 1225.754517,433.276917 
	C1225.754517,449.984619 1225.754517,466.390930 1225.754517,482.727692 
	C1228.988281,482.727692 1231.904053,482.727692 1235.022339,482.727692 
	C1235.022339,473.789734 1235.022339,465.144867 1235.022339,455.500000 
M583.651733,567.222046 
	C583.651733,552.471375 583.651733,537.720703 583.651733,522.749023 
	C581.341614,522.749023 579.500366,522.749023 577.670654,522.749023 
	C577.670654,539.517456 577.670654,555.884277 577.670654,572.329346 
	C579.732239,572.329346 581.466980,572.329346 583.651611,572.329346 
	C583.651611,570.734375 583.651611,569.436646 583.651733,567.222046 
M775.855164,523.161865 
	C774.018372,522.898987 772.181580,522.636108 770.268677,522.362366 
	C770.268677,539.424622 770.268677,555.817932 770.268677,572.236694 
	C772.289856,572.236694 774.027100,572.236694 776.000427,572.236694 
	C776.000427,555.975952 776.000427,540.013000 775.855164,523.161865 
M1105.075684,427.285248 
	C1097.035889,417.479950 1092.790283,421.988953 1087.422974,431.500885 
	C1090.748779,429.919678 1094.074585,428.338470 1096.810791,427.037567 
	C1100.087646,428.473175 1103.357178,429.905548 1106.626709,431.337921 
	C1106.881226,430.866547 1107.135864,430.395142 1107.390381,429.923737 
	C1106.774048,429.212952 1106.157715,428.502197 1105.075684,427.285248 
z"/>
<path fill="#020202" opacity="1.000000" stroke="none" 
	d="
M180.000275,62.479080 
	C254.788895,62.479099 329.077484,62.479099 403.684692,62.479099 
	C403.684692,156.486725 403.684692,250.198212 403.684692,344.215759 
	C299.403503,344.215759 195.019913,344.215759 90.316299,344.215759 
	C90.316299,250.510941 90.316299,156.799973 90.316299,62.479057 
	C119.973289,62.479057 149.736786,62.479057 180.000275,62.479080 
M293.019623,131.193756 
	C293.185486,132.173065 293.499542,133.152924 293.495819,134.131592 
	C293.349213,172.439545 293.706421,210.761475 292.694672,249.047134 
	C292.368408,261.393341 286.382111,272.628479 276.626343,281.066925 
	C264.497925,291.557678 250.201263,292.737701 234.992554,291.112488 
	C219.553146,289.462616 209.329086,281.879181 203.812027,267.297791 
	C199.624069,256.229279 198.086761,244.808701 198.046844,233.161392 
	C197.915512,194.833542 197.997406,156.504990 197.997391,118.176697 
	C197.997391,116.401085 197.997391,114.625481 197.997391,112.393463 
	C205.561279,112.393463 212.633713,112.393463 219.705109,112.393463 
	C219.705109,110.506607 219.705109,109.088196 219.705109,107.642487 
	C191.443420,107.642487 163.470535,107.642487 135.365265,107.642487 
	C135.365265,109.297417 135.365265,110.825211 135.365265,112.636497 
	C142.353912,112.636497 148.984543,112.636497 156.002609,112.636497 
	C156.002609,114.710075 156.002609,116.508377 156.002609,118.306679 
	C156.002579,157.468185 156.192596,196.631104 155.900726,235.790436 
	C155.796875,249.725113 160.077179,262.251099 167.214355,273.613800 
	C175.316208,286.512299 187.992416,293.904236 202.497711,297.954834 
	C220.627228,303.017517 238.849396,302.205688 257.057648,298.183044 
	C272.624512,294.743958 283.563141,285.319580 291.588531,271.913788 
	C298.037506,261.141205 299.980377,249.353455 299.989258,237.080902 
	C300.013123,204.085266 299.962219,171.089493 300.041870,138.094040 
	C300.051849,133.957031 300.410187,129.780823 301.054901,125.693413 
	C302.554169,116.188278 306.782898,112.692291 316.476074,112.479729 
	C317.640411,112.454193 318.806274,112.442581 319.967255,112.363144 
	C320.231415,112.345070 320.478180,112.071709 320.986115,111.760956 
	C320.915405,110.478561 320.837158,109.059578 320.766541,107.778831 
	C302.930634,107.778831 285.485748,107.778831 267.872742,107.778831 
	C267.872742,109.414803 267.872742,110.787643 267.872742,112.124138 
	C290.374847,114.405411 292.595978,116.029427 293.019623,131.193756 
M334.269836,271.057495 
	C330.327576,278.434662 330.451324,286.512665 335.848114,292.701599 
	C341.247131,298.893066 350.267151,302.000153 357.566589,299.168274 
	C364.575684,296.449036 370.030975,286.895050 369.345062,279.030182 
	C368.637726,270.919861 363.889618,265.888947 356.804535,263.243622 
	C348.763458,260.241333 340.683075,263.249176 334.269836,271.057495 
z"/>
<path fill="#060606" opacity="1.000000" stroke="none" 
	d="
M906.773376,217.532913 
	C903.056274,209.483124 896.958252,204.846100 888.689514,203.775345 
	C878.242798,202.422577 867.708496,201.746017 856.824402,200.742035 
	C856.824402,232.088699 856.824402,262.181030 856.824402,292.709106 
	C865.545959,292.709106 874.442993,292.709106 883.672974,292.709106 
	C883.672974,294.475403 883.672974,295.814148 883.672974,297.349426 
	C856.624573,297.349426 829.675659,297.349426 802.294006,297.349426 
	C802.205872,296.004425 802.118408,294.668671 802.016052,293.106262 
	C811.003235,293.106262 819.639648,293.106262 828.631409,293.106262 
	C828.631409,232.554993 828.631409,172.204544 828.631409,111.577850 
	C819.942017,111.577850 811.325317,111.577850 802.296021,111.577850 
	C802.201050,109.997894 802.120850,108.663315 802.020142,106.987801 
	C825.850403,106.987801 849.319397,106.776901 872.781921,107.078354 
	C884.208618,107.225166 895.755127,107.493980 906.999390,109.274277 
	C915.356628,110.597466 923.807373,113.486572 931.342041,117.373375 
	C944.681458,124.254646 948.957397,137.001160 949.477112,151.122330 
	C949.919006,163.126617 948.994080,175.270020 937.683044,182.454575 
	C929.657471,187.552307 920.696411,191.349228 911.809875,194.857956 
	C906.044556,197.134323 899.661804,197.846634 893.439514,199.286621 
	C901.690186,201.229935 909.868469,202.776978 917.812805,205.118118 
	C929.139221,208.455841 935.758240,216.245514 939.572754,227.561035 
	C944.888489,243.330109 944.809265,259.726257 947.039307,275.855957 
	C947.514038,279.289612 948.177063,282.736694 949.175354,286.050446 
	C951.418274,293.495605 958.911316,296.472931 967.981018,293.603394 
	C970.433044,292.827637 972.795654,291.477417 974.005249,295.993652 
	C958.524658,299.368256 943.206543,302.217773 928.325012,293.897980 
	C921.336914,289.991089 919.862732,282.307648 918.345276,275.677032 
	C915.141724,261.679016 913.491821,247.331604 910.932251,233.176773 
	C909.997192,228.005646 908.289856,222.974167 906.773376,217.532913 
M918.018372,136.767853 
	C913.213135,122.724701 903.453369,114.348213 888.735474,112.843178 
	C878.377075,111.783951 867.885254,112.026268 857.451965,111.723671 
	C857.217651,111.716873 856.970703,112.144913 856.841919,112.265259 
	C856.841919,140.597961 856.841919,168.820724 856.841919,198.360291 
	C868.578674,197.353897 880.038391,197.101486 891.223816,195.219284 
	C903.962708,193.075684 913.373535,185.655258 917.688965,173.068542 
	C921.703613,161.359100 921.219727,149.438507 918.018372,136.767853 
z"/>
<path fill="#060606" opacity="1.000000" stroke="none" 
	d="
M1220.027710,110.966537 
	C1250.113892,96.653183 1283.771362,102.145981 1307.694580,126.460274 
	C1311.989746,130.825714 1316.416748,135.259628 1319.742554,140.342682 
	C1328.528809,153.771820 1335.895752,167.929214 1337.867554,184.226501 
	C1342.140259,219.542511 1335.000977,251.155304 1309.123413,277.374695 
	C1293.284180,293.423248 1274.612305,301.944916 1252.221680,301.426727 
	C1230.884644,300.932922 1212.910767,292.335419 1198.103760,276.889343 
	C1181.336670,259.398682 1171.630859,238.601807 1169.074341,214.641388 
	C1166.820435,193.517502 1169.420654,172.838425 1179.396606,153.900330 
	C1188.784912,136.077606 1200.973022,120.396553 1220.027710,110.966537 
M1292.134033,275.553101 
	C1294.517822,271.067749 1297.288818,266.741638 1299.210815,262.066437 
	C1304.427490,249.376358 1306.880737,235.914337 1307.023193,222.346649 
	C1307.225342,203.100266 1307.092285,183.754196 1305.317261,164.616302 
	C1304.089722,151.382278 1299.074829,138.984268 1291.180298,127.581802 
	C1283.010376,115.781479 1272.833984,108.952957 1258.690308,107.694290 
	C1243.358887,106.329926 1229.869995,110.360413 1219.998169,122.512680 
	C1210.073608,134.729965 1204.061279,149.162750 1202.296631,164.673645 
	C1200.437744,181.013580 1199.613403,197.563797 1199.732788,214.012009 
	C1199.872437,233.248169 1202.469238,252.348068 1211.275024,269.849396 
	C1216.309692,279.855774 1222.642456,289.779053 1233.677856,293.490417 
	C1253.584595,300.185333 1277.308716,300.076172 1292.134033,275.553101 
z"/>
<path fill="#050505" opacity="1.000000" stroke="none" 
	d="
M628.134888,145.118362 
	C647.907715,113.661835 676.295410,98.182426 713.344910,104.742798 
	C726.291748,107.035294 737.619324,113.653687 747.205750,122.639069 
	C752.994995,128.065399 758.643677,133.881958 763.199951,140.338654 
	C777.020630,159.923874 783.362976,181.599289 782.526550,205.940384 
	C781.679565,230.590256 774.387024,252.552292 758.772644,271.182709 
	C738.723572,295.104431 710.498596,307.737610 676.955139,298.458252 
	C658.960266,293.480194 645.994690,282.303345 634.585510,268.292450 
	C622.295898,253.200226 615.228027,236.058319 613.003967,216.875778 
	C610.054504,191.436310 613.990601,167.372421 628.134888,145.118362 
M687.638306,296.436279 
	C689.119324,296.565338 690.598694,296.719971 692.081665,296.819641 
	C713.313416,298.246643 727.125122,292.123169 738.266052,271.824707 
	C749.221924,251.863480 751.181458,229.847794 751.728516,207.814926 
	C752.078857,193.702698 750.678223,179.494049 749.287354,165.405167 
	C747.626465,148.582565 741.526367,133.190521 729.872375,120.831085 
	C716.384888,106.527130 699.206177,104.098686 681.380127,110.295067 
	C663.739441,116.427010 655.192017,131.477493 649.998474,148.251221 
	C643.232971,170.101898 641.924561,192.704727 643.072754,215.421021 
	C643.907776,231.942780 645.705444,248.416458 652.132812,263.869019 
	C658.750366,279.778931 668.493103,292.670898 687.638306,296.436279 
z"/>
<path fill="#070707" opacity="1.000000" stroke="none" 
	d="
M456.960846,292.987305 
	C460.101593,292.987305 462.748260,292.987305 465.690338,292.987305 
	C465.690338,232.566681 465.690338,172.346207 465.690338,111.539162 
	C458.137787,111.539162 450.552734,111.416183 442.974823,111.595413 
	C439.610779,111.674980 438.886566,110.343536 439.900818,106.987251 
	C441.443237,106.987251 443.067535,106.979332 444.691772,106.988419 
	C472.501190,107.143997 500.321320,106.892899 528.115662,107.623573 
	C543.027161,108.015579 557.404297,112.102119 569.831055,120.683693 
	C581.106323,128.470093 586.950989,139.855988 587.437073,153.571564 
	C587.663391,159.959579 587.661133,166.571976 586.295288,172.758743 
	C582.508606,189.911026 570.297974,199.448090 554.866882,206.030594 
	C538.926392,212.830383 522.337524,213.205719 505.554871,211.857330 
	C501.714996,211.548828 497.999023,209.698975 493.829071,208.438507 
	C493.829071,236.711823 493.829071,264.480469 493.829071,292.692078 
	C502.537476,292.692078 511.429932,292.692078 520.740662,292.692078 
	C520.819946,294.451782 520.880310,295.791962 520.959045,297.539459 
	C512.791016,297.539459 504.984619,297.539459 497.178223,297.539459 
	C479.350250,297.539459 461.522186,297.506195 443.694458,297.573151 
	C440.816040,297.583954 438.482910,297.484314 439.910339,292.987305 
	C445.246552,292.987305 450.856689,292.987305 456.960846,292.987305 
M553.377625,187.504166 
	C554.170593,185.374222 555.008667,183.259842 555.748840,181.111694 
	C559.348633,170.663513 559.166626,159.837830 557.703796,149.204300 
	C555.984924,136.710129 551.244263,125.197479 539.727783,118.489159 
	C525.432739,110.162384 509.506927,111.569489 493.539307,111.684700 
	C493.539307,141.577927 493.509125,170.868118 493.646088,200.157532 
	C493.651764,201.371429 494.957794,203.001831 496.106873,203.717789 
	C502.566925,207.742828 509.763214,208.507660 517.194153,207.992065 
	C532.218933,206.949539 544.786377,201.471161 553.377625,187.504166 
z"/>
<path fill="#060606" opacity="1.000000" stroke="none" 
	d="
M237.637695,504.685699 
	C277.029449,478.495117 316.014801,480.418579 355.193207,506.005859 
	C357.002319,498.646362 358.569855,492.269562 360.185089,485.698792 
	C362.855865,485.698792 365.426697,485.698792 368.306305,485.698792 
	C368.391174,487.200989 368.526276,488.488129 368.527222,489.775299 
	C368.541138,508.935028 368.567322,528.094910 368.476227,547.254211 
	C368.469513,548.667725 367.587677,550.077087 367.112732,551.488342 
	C366.087219,550.274719 364.617188,549.223267 364.105927,547.822021 
	C359.670044,535.664185 354.240112,523.849670 345.420593,514.416748 
	C330.108459,498.039795 310.557129,492.947083 288.641785,495.794800 
	C264.806030,498.892059 248.909515,512.445435 238.787369,533.580627 
	C233.746475,544.106079 231.029358,555.292908 230.053909,566.877930 
	C228.779068,582.018799 227.738373,597.282837 230.724625,612.244446 
	C232.894363,623.115112 235.443024,634.305237 240.255569,644.165466 
	C248.516068,661.090271 262.102417,672.726379 281.316437,676.301697 
	C299.899475,679.759583 317.904358,678.156555 335.141174,669.850403 
	C336.648743,669.123962 339.982605,669.144104 340.519867,670.016846 
	C342.142822,672.653076 340.276642,674.398865 337.730286,675.721252 
	C313.072021,688.527893 287.309509,692.099731 260.577057,683.967712 
	C237.630554,676.987427 220.772125,662.326660 209.906235,640.866455 
	C207.443848,636.003235 204.064011,631.442688 202.501022,626.317505 
	C198.488052,613.158508 195.131042,600.051941 196.002853,585.753662 
	C197.037582,568.783691 201.277145,553.001587 209.101898,538.346558 
	C216.037872,525.356079 224.774139,513.371216 237.637695,504.685699 
z"/>
<path fill="#070707" opacity="1.000000" stroke="none" 
	d="
M1143.977539,156.293503 
	C1143.458374,150.903656 1143.001221,145.965530 1142.425049,141.041321 
	C1140.677856,126.110184 1132.971191,116.301315 1117.668945,114.223495 
	C1105.260010,112.538528 1092.713989,111.863922 1079.836182,110.705894 
	C1079.836182,172.074203 1079.836182,232.166763 1079.836182,292.712219 
	C1088.711304,292.712219 1097.775146,292.712219 1106.976929,292.712219 
	C1107.776855,295.553955 1108.342651,297.574829 1104.477905,297.567505 
	C1077.835938,297.517059 1051.194092,297.540955 1024.261719,297.540955 
	C1024.137085,295.989441 1024.035889,294.730011 1023.905701,293.109070 
	C1033.201294,293.109070 1042.311157,293.109070 1051.701172,293.109070 
	C1051.701172,232.533478 1051.701172,172.304138 1051.701172,111.537453 
	C1036.486572,111.814888 1021.289490,111.361588 1006.605957,116.416641 
	C997.764893,119.460320 992.533142,125.928238 990.700012,134.678925 
	C988.807007,143.715530 987.995789,152.978760 986.628723,162.731964 
	C986.031433,162.781693 984.695618,162.892883 983.180542,163.018997 
	C983.180542,144.244644 983.180542,125.820038 983.180542,107.190918 
	C1038.279175,107.190918 1093.183472,107.190918 1148.314697,107.190918 
	C1148.314697,125.661552 1148.314697,143.943893 1148.314697,162.673798 
	C1147.039917,162.777817 1145.708130,162.886490 1143.984863,163.027100 
	C1143.984863,160.689484 1143.984863,158.720535 1143.977539,156.293503 
z"/>
<path fill="#080808" opacity="1.000000" stroke="none" 
	d="
M141.260132,447.960022 
	C136.853622,446.414764 132.852844,444.930237 128.772964,443.710236 
	C125.591080,442.758698 125.547386,442.904816 125.895508,438.724152 
	C156.772156,438.724152 187.672119,438.724152 218.794434,438.724152 
	C218.794434,441.772186 218.794434,444.680481 218.794434,448.015930 
	C204.552444,448.015930 190.439026,448.011902 176.325592,448.017456 
	C167.794220,448.020782 165.671616,449.930054 165.581757,458.411285 
	C165.447678,471.066711 165.546967,483.724609 165.546967,496.975616 
	C176.948013,496.975616 188.213837,497.017670 199.477631,496.884888 
	C200.263779,496.875610 201.349426,495.713287 201.748444,494.837677 
	C202.635834,492.890411 203.457855,490.830109 203.794098,488.733673 
	C204.352020,485.255035 206.248062,484.341309 209.703156,485.219757 
	C209.703156,497.792389 209.703156,510.509216 209.703156,523.226074 
	C209.442535,523.395996 209.181915,523.565979 208.921280,523.735901 
	C208.271194,522.738281 207.249268,521.815918 207.029556,520.731079 
	C205.190964,511.652771 198.811859,507.652435 190.463715,506.970734 
	C182.404343,506.312622 174.249115,506.828308 165.730042,506.828308 
	C165.730042,527.897461 165.730042,548.817505 165.730042,570.140747 
	C158.449661,570.140747 151.559265,570.140747 143.983932,570.140747 
	C143.983932,568.534973 143.983932,566.788513 143.983932,565.042053 
	C143.983917,531.393921 144.086151,497.745178 143.878662,464.098328 
	C143.845825,458.772705 142.415802,453.455719 141.260132,447.960022 
z"/>
<path fill="#131313" opacity="1.000000" stroke="none" 
	d="
M1122.413452,462.999359 
	C1122.413452,452.866058 1122.413452,443.232635 1122.413452,432.964722 
	C1125.787964,432.964722 1128.929443,432.639099 1131.948242,433.106720 
	C1133.384644,433.329254 1134.966919,434.815491 1135.835205,436.150635 
	C1142.480347,446.368073 1148.966064,456.689270 1156.296387,468.229919 
	C1156.296387,455.682159 1156.296387,444.521332 1156.296387,433.167847 
	C1159.612183,433.167847 1162.371216,433.167847 1165.332031,433.167847 
	C1165.332031,449.910858 1165.332031,466.476288 1165.332031,482.981171 
	C1159.149414,484.816742 1155.028076,483.359375 1151.638184,477.617523 
	C1145.788452,467.709076 1139.081909,458.306488 1131.793945,448.942474 
	C1131.793945,460.111511 1131.793945,471.280579 1131.793945,482.738464 
	C1128.520874,482.738464 1125.771973,482.738464 1122.413452,482.738464 
	C1122.413452,476.371643 1122.413452,469.935425 1122.413452,462.999359 
z"/>
<path fill="#0E0E0E" opacity="1.000000" stroke="none" 
	d="
M933.944580,479.053497 
	C927.517639,480.469513 921.483215,482.182922 915.332886,482.895935 
	C909.932861,483.521912 904.402832,483.026703 898.683105,483.026703 
	C898.683105,466.269623 898.683105,449.849701 898.683105,432.504669 
	C907.794434,433.068939 916.791138,432.960907 925.551575,434.346436 
	C935.272827,435.883972 941.488831,442.355072 943.732605,451.954742 
	C945.857361,461.045532 944.072510,469.368744 937.172485,476.155426 
	C936.223511,477.088806 935.249268,477.996490 933.944580,479.053497 
M933.456482,453.531311 
	C931.326050,443.764679 922.685791,440.398682 908.903870,442.104279 
	C908.903870,452.756561 908.903870,463.426300 908.903870,474.401611 
	C912.529358,474.401611 915.826965,474.474182 919.119080,474.370728 
	C920.750671,474.319489 922.436646,474.155090 923.987244,473.680206 
	C931.440002,471.397644 934.406189,465.412537 933.456482,453.531311 
z"/>
<path fill="#070707" opacity="1.000000" stroke="none" 
	d="
M827.192017,472.072083 
	C821.230103,480.313202 813.246643,483.326233 803.666565,483.046143 
	C797.682861,482.871155 791.689941,483.013611 785.343628,483.013611 
	C785.343628,466.425903 785.343628,449.915771 785.343628,432.567902 
	C794.122314,433.066437 802.992371,432.723358 811.528137,434.249420 
	C825.006653,436.659210 832.298889,447.735138 830.338318,461.334290 
	C829.828247,464.872162 828.370911,468.273499 827.192017,472.072083 
M815.049561,445.351807 
	C809.066162,440.559387 802.066772,442.024231 795.316589,441.587402 
	C795.316589,452.870361 795.316589,463.595367 795.316589,474.299988 
	C810.329163,474.997406 815.569153,473.045685 818.932922,465.631134 
	C821.918152,459.050720 820.577576,451.167633 815.049561,445.351807 
z"/>
<path fill="#070707" opacity="1.000000" stroke="none" 
	d="
M701.963135,483.013733 
	C696.499512,483.013733 691.528687,483.013733 686.273010,483.013733 
	C686.273010,466.401703 686.273010,450.009583 686.273010,432.172424 
	C696.209656,433.141083 706.474609,432.883545 716.031494,435.359192 
	C731.554565,439.380402 736.878113,462.088898 726.203613,474.214233 
	C719.736877,481.559875 711.590759,483.377808 701.963135,483.013733 
M700.490295,441.539856 
	C699.082703,441.539856 697.675171,441.539856 696.283447,441.539856 
	C696.283447,452.868835 696.283447,463.588409 696.283447,474.608673 
	C700.362488,474.423340 704.161865,474.284241 707.956970,474.070801 
	C714.339050,473.711945 718.511719,470.140808 720.328369,464.328430 
	C722.259705,458.149017 722.247742,452.027039 717.443726,446.685211 
	C713.044800,441.793762 707.179016,442.054260 700.490295,441.539856 
z"/>
<path fill="#0C0C0C" opacity="1.000000" stroke="none" 
	d="
M617.757385,483.888916 
	C614.352966,483.680695 611.349548,483.549377 608.426147,482.995972 
	C600.159363,481.431000 595.420288,476.824249 595.099304,468.646149 
	C594.638245,456.898956 594.981689,445.120178 594.981689,433.179504 
	C597.813354,433.179504 600.727295,433.179504 604.022461,433.179504 
	C604.022461,442.828888 603.961365,452.281860 604.038879,461.733734 
	C604.124207,472.146088 609.443115,476.469116 619.608887,474.536957 
	C624.683167,473.572510 626.783386,470.923920 626.934509,464.486176 
	C627.110229,456.996368 626.976746,449.499359 626.977417,442.005463 
	C626.977722,439.193939 626.977539,436.382385 626.977539,433.275085 
	C630.086548,433.275085 632.997559,433.275085 635.560852,433.275085 
	C635.560852,446.094025 636.179138,459.021027 635.326233,471.850220 
	C634.824036,479.403534 629.151367,482.503235 617.757385,483.888916 
z"/>
<path fill="#0A0A0A" opacity="1.000000" stroke="none" 
	d="
M1294.609131,455.362701 
	C1287.385742,446.919678 1289.200195,438.495544 1298.897217,434.342133 
	C1307.792725,430.532013 1316.288330,432.201874 1324.924194,436.336853 
	C1323.656860,439.219604 1322.488159,441.878204 1321.258545,444.674927 
	C1317.063354,443.666718 1313.130249,442.142487 1309.139038,441.971497 
	C1306.594727,441.862457 1303.964478,443.758331 1301.372681,444.755280 
	C1302.769043,446.996277 1303.700195,449.839722 1305.658936,451.352478 
	C1309.694336,454.469025 1314.349609,456.767639 1318.618774,459.600403 
	C1323.931274,463.125488 1324.646973,468.308105 1323.327148,474.058258 
	C1322.162842,479.131317 1318.583252,482.233185 1312.956909,483.121490 
	C1303.184448,484.664429 1296.667114,483.362335 1288.745239,478.199860 
	C1289.942139,475.547455 1291.152588,472.865143 1292.257446,470.416656 
	C1296.265259,471.804199 1299.929932,473.283966 1303.715332,474.324341 
	C1307.523193,475.370880 1311.816406,475.733887 1313.486816,471.248566 
	C1315.141846,466.805237 1310.698730,465.506775 1307.957886,463.697571 
	C1303.679688,460.873596 1299.238037,458.296844 1294.609131,455.362701 
z"/>
<path fill="#0C0C0C" opacity="1.000000" stroke="none" 
	d="
M502.940491,483.022766 
	C501.341522,483.022797 500.188995,483.022797 498.266449,483.022797 
	C503.864410,468.066467 509.242004,453.569305 514.745972,439.120300 
	C515.672180,436.688690 514.595154,432.966034 519.437500,432.833893 
	C523.735474,432.716553 525.691162,433.800964 527.132507,438.155670 
	C532.058899,453.039368 537.605530,467.717773 543.008850,482.733704 
	C542.196899,482.850494 541.605957,483.001129 541.012695,483.010925 
	C532.838562,483.146088 532.809326,483.148590 530.799988,475.143616 
	C529.974976,471.856964 528.427490,469.728973 524.602295,470.545074 
	C524.124939,470.646942 523.607117,470.559082 523.108032,470.558960 
	C513.470520,470.556824 513.190186,470.458313 510.145569,479.121826 
	C508.809143,482.924652 506.566467,483.336304 502.940491,483.022766 
M517.817627,453.504608 
	C517.121704,456.309570 516.425842,459.114502 515.666138,462.176880 
	C519.403259,462.176880 522.630249,462.176880 526.306763,462.176880 
	C524.501648,456.503082 522.818298,451.211975 520.778015,444.799011 
	C519.524780,448.364746 518.761169,450.537415 517.817627,453.504608 
z"/>
<path fill="#090909" opacity="1.000000" stroke="none" 
	d="
M771.110962,462.649048 
	C773.652588,469.512329 776.077637,475.999603 778.621460,482.804749 
	C776.945435,482.895844 775.790588,482.817047 774.698242,483.041901 
	C769.126709,484.188629 766.798462,481.066437 766.311951,476.275208 
	C765.851440,471.740631 763.885803,469.949219 759.292847,470.483734 
	C755.688660,470.903168 751.271545,469.522308 748.598999,471.176361 
	C746.324463,472.584106 746.046265,477.189270 744.834900,480.360779 
	C744.494873,481.250824 743.978271,482.073395 743.547852,482.916687 
	C740.448792,482.916687 737.473572,482.916687 733.815735,482.916687 
	C735.427612,478.557068 736.985840,474.512329 738.422546,470.424866 
	C742.469788,458.911011 746.591125,447.420410 750.402161,435.828186 
	C751.436096,432.683167 753.467590,432.915283 755.801147,432.978241 
	C758.335632,433.046631 760.808105,432.333557 761.962463,436.093140 
	C764.670532,444.912689 767.947571,453.557495 771.110962,462.649048 
M753.042480,462.566071 
	C755.927734,462.566071 758.813049,462.566071 762.001221,462.566071 
	C760.083740,456.484711 758.395752,451.131134 756.707764,445.777588 
	C754.330322,450.271484 752.989990,454.805756 751.839905,459.387756 
	C751.599487,460.345825 752.061096,461.480072 753.042480,462.566071 
z"/>
<path fill="#090909" opacity="1.000000" stroke="none" 
	d="
M1253.037109,480.290588 
	C1250.140991,485.359192 1245.795776,481.945648 1241.568604,483.312439 
	C1247.289673,468.050140 1252.663574,453.497162 1258.250854,439.026459 
	C1259.157593,436.678040 1258.037964,432.835907 1262.975586,432.826691 
	C1267.226196,432.818695 1269.188721,433.767883 1270.629272,438.171021 
	C1275.156738,452.007568 1280.412720,465.605560 1285.362061,479.304718 
	C1285.750977,480.380920 1285.952148,481.524994 1286.279175,482.786987 
	C1285.432617,482.878693 1284.792358,482.994293 1284.149536,483.010559 
	C1276.102783,483.214722 1276.057861,483.221100 1274.269165,475.216187 
	C1273.522461,471.874695 1272.056519,469.719513 1268.194458,470.544525 
	C1268.035156,470.578583 1267.862061,470.548065 1267.695435,470.548981 
	C1264.196533,470.568024 1259.960205,469.389069 1257.413818,470.956085 
	C1255.047241,472.412415 1254.482544,476.796783 1253.037109,480.290588 
M1269.399414,462.405273 
	C1267.924927,456.836060 1266.450439,451.266846 1264.975952,445.697632 
	C1264.547363,445.692383 1264.118774,445.687134 1263.690308,445.681915 
	C1262.072754,451.107605 1260.455322,456.533295 1258.661133,462.551849 
	C1262.385376,462.551849 1265.491943,462.551849 1269.399414,462.405273 
z"/>
<path fill="#0E0E0E" opacity="1.000000" stroke="none" 
	d="
M1220.130981,533.933899 
	C1227.857178,547.448608 1222.902466,565.211304 1211.213989,570.811829 
	C1201.697266,575.371826 1191.909790,575.422852 1183.054688,568.556519 
	C1174.135010,561.640076 1172.470459,552.088074 1174.345215,541.795898 
	C1176.300049,531.063110 1183.443237,524.296326 1193.791626,522.309082 
	C1204.542969,520.244385 1213.817017,523.848511 1220.130981,533.933899 
M1189.261719,530.464294 
	C1186.784668,533.698547 1183.648315,536.622803 1181.954224,540.225281 
	C1176.950562,550.865601 1184.816528,566.626892 1195.270142,567.691772 
	C1205.772705,568.761780 1215.183594,562.516357 1216.728638,550.774414 
	C1217.861328,542.165466 1215.118042,534.753784 1207.238159,530.009888 
	C1201.477539,526.541870 1195.684448,526.875122 1189.261719,530.464294 
z"/>
<path fill="#0C0C0C" opacity="1.000000" stroke="none" 
	d="
M554.441040,544.996765 
	C554.441101,537.370544 554.441101,530.243591 554.441101,522.782837 
	C556.691956,522.782837 558.583801,522.782837 560.752258,522.782837 
	C560.752258,539.351624 560.752258,555.911682 560.752258,572.532349 
	C555.973022,574.216614 553.182129,572.445801 550.526367,568.074707 
	C542.925598,555.564758 534.763489,543.395874 526.197754,530.125610 
	C526.197754,544.802429 526.197754,558.339294 526.197754,572.214478 
	C524.120422,572.214478 522.384033,572.214478 520.309387,572.214478 
	C520.309387,555.927490 520.309387,539.535522 520.309387,522.858521 
	C524.905823,521.813416 528.488403,522.011353 531.545715,527.210022 
	C538.379944,538.830811 546.059570,549.954407 554.440918,561.097290 
	C554.440918,555.896851 554.440918,550.696472 554.441040,544.996765 
z"/>
<path fill="#0A0A0A" opacity="1.000000" stroke="none" 
	d="
M853.008789,432.980011 
	C858.811218,432.980011 864.116394,432.980011 869.719543,432.980011 
	C869.719543,435.577820 869.719543,437.983307 869.719543,440.786224 
	C863.156128,440.786224 856.409912,440.786224 849.344177,440.786224 
	C849.344177,445.049377 849.344177,448.939331 849.344177,453.301880 
	C854.655640,453.301880 860.048401,453.301880 865.723816,453.301880 
	C865.723816,456.159058 865.723816,458.567078 865.723816,461.382324 
	C860.358582,461.382324 854.934387,461.382324 849.266602,461.382324 
	C849.266602,466.018921 849.266602,470.265625 849.266602,474.908752 
	C856.408752,474.908752 863.482483,474.908752 870.782593,474.908752 
	C870.782593,477.696533 870.782593,480.102539 870.782593,482.767303 
	C860.509216,482.767303 850.259399,482.767303 839.726440,482.767303 
	C839.726440,466.389557 839.726440,449.991699 839.726440,432.980011 
	C844.002563,432.980011 848.257019,432.980011 853.008789,432.980011 
z"/>
<path fill="#0A0A0A" opacity="1.000000" stroke="none" 
	d="
M978.988220,453.910217 
	C979.300171,456.476837 979.300171,458.754791 979.300171,461.439941 
	C973.807251,461.439941 968.539246,461.439941 962.917847,461.439941 
	C962.917847,466.064270 962.917847,470.287018 962.917847,474.952759 
	C969.912231,474.952759 977.004028,474.952759 984.318481,474.952759 
	C984.318481,477.796997 984.318481,480.208588 984.318481,482.820068 
	C973.964600,482.820068 963.843079,482.820068 953.350464,482.820068 
	C953.350464,466.443115 953.350464,449.924530 953.350464,433.191589 
	C963.262024,433.191589 973.167786,433.191589 983.313843,433.191589 
	C983.313843,435.780823 983.313843,438.192596 983.313843,441.038239 
	C976.344971,441.038239 969.584961,441.038239 962.735657,441.038239 
	C962.735657,445.245148 962.735657,449.017395 962.735657,453.621552 
	C968.159668,453.621552 973.417969,453.621552 978.988220,453.910217 
z"/>
<path fill="#0A0A0A" opacity="1.000000" stroke="none" 
	d="
M1098.943848,461.553833 
	C1096.141968,461.553772 1093.827759,461.553772 1091.267212,461.553772 
	C1091.267212,466.017242 1091.267212,470.264648 1091.267212,474.908630 
	C1098.408936,474.908630 1105.482788,474.908630 1112.782959,474.908630 
	C1112.782959,477.697144 1112.782959,480.103302 1112.782959,482.767761 
	C1102.507324,482.767761 1092.256714,482.767761 1081.724976,482.767761 
	C1081.724976,466.385406 1081.724976,449.985260 1081.724976,433.281433 
	C1091.654419,433.281433 1101.541382,433.281433 1111.725464,433.281433 
	C1111.725464,435.588257 1111.725464,437.997589 1111.725464,440.797852 
	C1105.143433,440.797852 1098.396973,440.797852 1091.337769,440.797852 
	C1091.337769,445.063019 1091.337769,448.954529 1091.337769,453.314423 
	C1096.669434,453.314423 1102.064819,453.314423 1107.733154,453.314423 
	C1107.733154,456.175079 1107.733154,458.590393 1107.733154,461.553894 
	C1104.992188,461.553894 1102.211792,461.553894 1098.943848,461.553833 
z"/>
<path fill="#090909" opacity="1.000000" stroke="none" 
	d="
M1186.396973,436.339783 
	C1196.889038,430.419617 1206.849365,430.917755 1216.895142,437.137817 
	C1215.779541,439.600403 1214.778687,441.809448 1213.643555,444.314941 
	C1204.606812,440.477203 1195.757690,438.695892 1188.880371,447.575348 
	C1184.147095,453.686584 1184.621704,460.663208 1188.570923,466.996704 
	C1195.188965,477.610016 1204.560669,475.581268 1214.507812,472.962158 
	C1215.043579,475.568115 1215.559326,478.076538 1216.060791,480.515778 
	C1202.775146,487.444061 1186.697754,484.076782 1179.495850,473.032654 
	C1171.519043,460.800262 1174.243530,445.784821 1186.396973,436.339783 
z"/>
<path fill="#090909" opacity="1.000000" stroke="none" 
	d="
M1045.320923,482.275879 
	C1037.899414,485.419922 1030.766724,484.009155 1023.920898,482.192474 
	C1014.252502,479.626740 1007.560181,467.120941 1007.931519,456.115021 
	C1008.631287,435.377747 1033.436768,425.613281 1049.812744,437.221252 
	C1048.820435,439.457306 1047.789062,441.781311 1046.631104,444.390503 
	C1037.651978,440.304108 1028.995361,438.992859 1022.045898,447.223663 
	C1017.334717,452.803436 1017.335083,460.433624 1021.133667,466.205963 
	C1027.326172,475.616058 1031.675415,476.774567 1047.873169,473.010712 
	C1046.519775,476.123871 1052.544556,480.224152 1045.320923,482.275879 
z"/>
<path fill="#090909" opacity="1.000000" stroke="none" 
	d="
M579.061646,483.222992 
	C567.573486,484.480347 557.131348,484.000122 550.063965,473.329224 
	C543.648987,463.643341 543.275635,453.876312 549.033081,443.918915 
	C554.830261,433.892853 569.563965,429.409515 581.058289,434.022522 
	C583.041809,434.818573 584.949402,435.804016 587.559998,437.010712 
	C586.145203,439.558197 584.843872,441.901276 583.559570,444.213776 
	C572.282227,439.762939 564.525452,440.667450 559.643555,446.833191 
	C554.934387,452.780792 554.571838,460.021576 558.652649,466.624695 
	C564.123596,475.477203 569.226074,476.762207 584.749329,472.997528 
	C585.341492,475.632172 585.931274,478.256195 586.585144,481.165283 
	C583.874084,481.884094 581.665039,482.469818 579.061646,483.222992 
z"/>
<path fill="#0E0E0E" opacity="1.000000" stroke="none" 
	d="
M1366.546387,550.581665 
	C1364.259888,573.537598 1341.883057,577.623413 1328.808228,570.698242 
	C1319.807495,565.931030 1314.878296,553.587158 1317.077759,542.329834 
	C1319.090210,532.030212 1327.342773,523.662048 1337.081177,522.046143 
	C1348.082764,520.220642 1359.381592,525.539917 1363.906250,535.731018 
	C1365.834106,540.073425 1365.738403,545.314209 1366.546387,550.581665 
M1344.776123,567.484558 
	C1352.823364,565.835571 1358.522095,559.444031 1359.881104,550.543213 
	C1361.745117,538.334961 1351.257568,526.322021 1339.978394,527.745850 
	C1329.971191,529.009094 1322.342041,538.692444 1323.323853,548.884399 
	C1324.557007,561.684326 1331.899658,568.391602 1344.776123,567.484558 
z"/>
<path fill="#0E0E0E" opacity="1.000000" stroke="none" 
	d="
M1096.149780,568.180542 
	C1086.447144,575.218079 1076.503662,575.626648 1066.455322,570.163879 
	C1057.711426,565.410339 1053.408569,554.786438 1054.979736,543.211792 
	C1056.314087,533.382019 1063.787231,524.583435 1073.929321,522.440674 
	C1092.107910,518.599976 1107.813721,532.961609 1104.680420,552.621216 
	C1103.709473,558.713562 1101.415649,564.042236 1096.149780,568.180542 
M1083.821167,528.081787 
	C1076.197876,526.513733 1070.442871,529.127930 1065.795410,535.361450 
	C1060.681763,542.219910 1060.061768,549.412415 1063.526489,556.873535 
	C1067.407104,565.230286 1074.535034,569.131531 1082.136597,567.727051 
	C1090.924683,566.103333 1096.994019,559.226501 1097.967529,549.789856 
	C1098.954102,540.225220 1093.800659,531.894653 1083.821167,528.081787 
z"/>
<path fill="#141414" opacity="1.000000" stroke="none" 
	d="
M831.157776,561.057251 
	C825.982971,569.518372 818.708069,573.083557 809.208557,572.638306 
	C803.896790,572.389282 798.563843,572.593506 792.824158,572.593506 
	C792.824158,555.982544 792.824158,539.592896 792.824158,522.649658 
	C802.933105,522.108337 813.219666,521.576904 822.745544,526.372742 
	C834.140991,532.109802 837.756470,547.196411 831.157776,561.057251 
M810.625793,528.585083 
	C806.885193,528.351807 803.144653,528.118530 799.278015,527.877441 
	C799.278015,541.369873 799.278015,554.257446 799.278015,567.123047 
	C819.256287,568.820496 825.025208,565.162720 827.802002,550.052795 
	C829.530029,540.649292 823.117126,529.436096 810.625793,528.585083 
z"/>
<path fill="#141414" opacity="1.000000" stroke="none" 
	d="
M922.310608,526.608215 
	C937.821289,537.526489 937.228821,560.341858 921.365845,569.841492 
	C918.903259,571.316284 915.804565,572.278931 912.944397,572.430664 
	C905.999878,572.799011 899.022583,572.550354 891.735046,572.550354 
	C891.735046,555.803101 891.735046,539.416870 891.735046,522.631165 
	C902.134216,522.025146 912.302673,522.080811 922.310608,526.608215 
M898.039124,561.446777 
	C898.039124,563.385742 898.039124,565.324646 898.039124,567.436340 
	C907.543030,567.011658 917.614319,569.766479 923.328491,559.928772 
	C927.662598,552.466858 928.911133,544.384460 923.685974,536.499207 
	C917.381836,526.985596 907.725952,528.166138 898.039062,528.068298 
	C898.039062,539.188904 898.039062,549.823975 898.039124,561.446777 
z"/>
<path fill="#131313" opacity="1.000000" stroke="none" 
	d="
M1004.972168,570.618774 
	C1004.964478,554.394165 1004.964478,538.636597 1004.964478,521.484436 
	C1014.312805,522.603333 1023.488342,522.422668 1031.820557,524.984619 
	C1045.978882,529.338074 1050.322632,544.404419 1045.057861,558.077881 
	C1041.178711,568.152405 1033.427002,572.919556 1022.561279,572.609131 
	C1017.909607,572.476257 1013.247253,572.687378 1008.598022,572.516602 
	C1007.376099,572.471680 1006.185120,571.585571 1004.972168,570.618774 
M1031.340210,530.791748 
	C1025.039429,527.840576 1018.420715,527.873108 1011.824951,528.147217 
	C1011.824951,541.433044 1011.824951,554.163635 1011.824951,566.851379 
	C1026.904663,569.271667 1034.180298,566.510620 1038.553833,556.837402 
	C1042.692505,547.683594 1040.209351,537.954468 1031.340210,530.791748 
z"/>
<path fill="#111111" opacity="1.000000" stroke="none" 
	d="
M1235.421143,567.670593 
	C1235.421143,552.564148 1235.421143,537.918579 1235.421143,521.761719 
	C1243.689087,522.609375 1251.887329,522.462280 1259.501953,524.497803 
	C1267.747925,526.702026 1269.372070,540.536438 1262.657593,546.597595 
	C1260.746704,548.322510 1258.341309,549.499512 1255.822632,551.150574 
	C1260.040894,557.789307 1264.449341,564.727478 1269.094238,572.037659 
	C1265.073853,573.157959 1262.103516,572.905090 1259.925049,568.901062 
	C1257.480225,564.407471 1254.441040,560.240601 1251.911011,555.789124 
	C1249.813354,552.098267 1247.220947,549.869751 1242.154541,551.474060 
	C1242.154541,558.105835 1242.154541,565.133057 1242.154541,572.359253 
	C1239.806885,572.359253 1238.030762,572.359253 1235.722412,572.359253 
	C1235.622192,570.952576 1235.521729,569.541992 1235.421143,567.670593 
M1251.971313,545.969482 
	C1257.931763,544.957642 1260.026123,542.104736 1260.007935,535.641052 
	C1259.994507,530.833191 1257.152832,528.655640 1253.020386,528.134644 
	C1249.477295,527.687988 1245.833252,528.042175 1242.331787,528.042175 
	C1242.331787,534.338745 1242.331787,540.074097 1242.331787,545.969727 
	C1245.447998,545.969727 1248.263550,545.969727 1251.971313,545.969482 
z"/>
<path fill="#111111" opacity="1.000000" stroke="none" 
	d="
M714.658020,543.292847 
	C711.543457,546.168335 708.637634,548.718506 705.174744,551.757568 
	C709.196289,557.872009 713.856750,564.957825 718.570007,572.123962 
	C713.924805,573.560425 711.097168,572.091980 708.967407,568.200500 
	C706.515625,563.720520 703.446899,559.579834 700.960022,555.116821 
	C698.852539,551.334778 696.027039,550.124084 691.663696,551.494812 
	C691.663696,558.221802 691.663696,564.991211 691.663696,572.335999 
	C689.470154,572.434143 687.576355,572.518860 685.316895,572.619934 
	C685.316895,555.974792 685.316895,539.581482 685.316895,521.930176 
	C692.885864,522.588867 700.613525,522.789734 708.153503,524.084167 
	C713.142639,524.940674 716.426086,531.253174 715.989319,537.099182 
	C715.841919,539.072266 715.253601,541.012390 714.658020,543.292847 
M706.519104,544.099792 
	C710.234741,540.709229 710.315308,536.335388 708.644653,532.291138 
	C706.827820,527.893250 699.836365,526.735779 691.741699,528.732849 
	C691.741699,534.336487 691.741699,539.930847 691.741699,546.553040 
	C696.611084,545.869995 701.222229,545.223267 706.519104,544.099792 
z"/>
<path fill="#0A0A0A" opacity="1.000000" stroke="none" 
	d="
M465.446106,456.999756 
	C465.446106,448.871979 465.446106,441.244202 465.446106,433.300049 
	C475.799347,433.300049 485.855408,433.300049 496.234070,433.300049 
	C496.234070,435.575043 496.234070,437.980530 496.234070,440.814819 
	C489.380646,440.814819 482.487335,440.814819 475.309906,440.814819 
	C475.309906,445.288055 475.309906,449.350769 475.309906,453.821869 
	C480.811493,453.821869 486.391388,453.821869 492.259399,453.821869 
	C492.259399,456.625092 492.259399,459.031372 492.259399,461.872253 
	C486.664581,461.872253 481.097290,461.872253 475.150024,461.872253 
	C475.150024,469.013550 475.150024,475.750549 475.150024,482.749451 
	C471.857208,482.749451 468.941193,482.749451 465.446075,482.749451 
	C465.446075,474.360962 465.446075,465.930359 465.446106,456.999756 
z"/>
<path fill="#1C1C1C" opacity="1.000000" stroke="none" 
	d="
M503.956482,561.716797 
	C499.607208,570.921143 493.856018,574.524658 484.766785,574.053101 
	C475.495117,573.572083 469.222748,569.417175 466.702271,561.883301 
	C466.026794,559.864075 465.472534,557.693665 465.448242,555.585876 
	C465.323761,544.788269 465.390656,533.988403 465.390656,522.654785 
	C467.353851,522.547058 469.078888,522.452332 471.622620,522.312683 
	C471.622620,524.740051 471.597076,526.817322 471.627045,528.893799 
	C471.761322,538.198181 471.568573,547.524353 472.162933,556.799744 
	C472.647552,564.362488 478.088501,568.599304 485.686005,568.357849 
	C491.988342,568.157593 498.002625,564.665771 498.217041,556.522095 
	C498.414001,549.041565 498.341461,541.553772 498.374756,534.069214 
	C498.390930,530.430054 498.377625,526.790771 498.377625,522.646729 
	C500.391571,522.541077 502.121613,522.450256 504.075897,522.347717 
	C504.075897,535.566223 504.075897,548.447876 503.956482,561.716797 
z"/>
<path fill="#0E0E0E" opacity="1.000000" stroke="none" 
	d="
M872.996094,564.094788 
	C872.165771,561.877136 871.462097,560.037598 870.732239,558.129456 
	C864.201355,558.129456 857.729675,558.129456 851.140198,558.129456 
	C849.377014,562.901184 847.615845,567.667419 845.866760,572.401001 
	C843.804749,572.401001 842.018066,572.401001 839.308594,572.401001 
	C845.484070,555.125244 851.504333,538.283752 857.490173,521.538452 
	C862.310181,519.805603 864.512756,521.340576 866.146667,526.225891 
	C871.262085,541.521362 877.007690,556.606018 882.717407,572.346436 
	C880.272034,572.453918 878.525024,572.530701 876.316101,572.627808 
	C875.252014,569.910339 874.187378,567.191589 872.996094,564.094788 
M858.635681,536.244690 
	C856.810303,541.403137 854.984863,546.561584 853.096863,551.896851 
	C858.639160,551.896851 863.601135,551.896851 868.828125,551.896851 
	C866.388123,544.812073 863.999634,537.877014 861.297668,530.031555 
	C860.285400,532.305725 859.576050,533.899353 858.635681,536.244690 
z"/>
<path fill="#232323" opacity="1.000000" stroke="none" 
	d="
M655.987793,544.348938 
	C660.288391,544.349121 664.090637,544.349121 668.266235,544.349121 
	C668.266235,546.202576 668.266235,547.713318 668.266235,549.636353 
	C662.407043,549.636353 656.813538,549.636353 650.942261,549.636353 
	C650.942261,555.604431 650.942261,561.166565 650.942261,567.252930 
	C658.220825,567.252930 665.456970,567.252930 672.871948,567.252930 
	C672.871948,569.224792 672.871948,570.676147 672.871948,572.390137 
	C663.523560,572.390137 654.283691,572.390137 644.694519,572.390137 
	C644.694519,555.871338 644.694519,539.490845 644.694519,522.727112 
	C653.730896,522.727112 662.783569,522.727112 672.315002,522.727112 
	C672.442017,524.186646 672.578918,525.758789 672.760193,527.840759 
	C665.430603,527.840759 658.361511,527.840759 650.976318,527.840759 
	C650.976318,533.376648 650.976318,538.442993 650.976318,544.348755 
	C652.353271,544.348755 653.921387,544.348755 655.987793,544.348938 
z"/>
<path fill="#232323" opacity="1.000000" stroke="none" 
	d="
M966.868896,567.347656 
	C969.482361,567.347595 971.613770,567.347595 973.899170,567.347595 
	C973.899170,569.274902 973.899170,570.736511 973.899170,572.420410 
	C964.481262,572.420410 955.231323,572.420410 945.663940,572.420410 
	C945.663940,555.808167 945.663940,539.425537 945.663940,522.693970 
	C954.803406,522.693970 963.858704,522.693970 973.341125,522.693970 
	C973.458984,524.254395 973.577454,525.823303 973.734314,527.899658 
	C966.355469,527.899658 959.279175,527.899658 951.933594,527.899658 
	C951.933594,533.438354 951.933594,538.510498 951.933594,544.171875 
	C957.547913,544.171875 963.269592,544.171875 969.320496,544.171875 
	C969.447205,546.138733 969.537781,547.544922 969.666626,549.545288 
	C963.590149,549.545288 957.864075,549.545288 951.904907,549.545288 
	C951.904907,555.678101 951.904907,561.240784 951.904907,567.347778 
	C956.839478,567.347778 961.613159,567.347778 966.868896,567.347656 
z"/>
<path fill="#0C0C0C" opacity="1.000000" stroke="none" 
	d="
M1159.574463,524.227417 
	C1166.604736,528.154114 1169.420166,535.860718 1166.982422,543.728394 
	C1164.988159,550.164612 1156.339600,555.240540 1148.521118,554.534241 
	C1146.553223,554.356445 1144.593872,554.084229 1142.225586,553.808167 
	C1142.225586,560.018433 1142.225586,565.947083 1142.225586,572.214478 
	C1140.119873,572.214478 1138.382812,572.214478 1136.308594,572.214478 
	C1136.308594,555.920593 1136.308594,539.523682 1136.308594,521.871277 
	C1143.927979,522.597290 1151.578003,523.326233 1159.574463,524.227417 
M1142.023560,547.244080 
	C1142.275269,547.801575 1142.546997,548.852417 1142.775879,548.843201 
	C1146.871582,548.678223 1151.069946,548.868713 1155.025024,547.988892 
	C1159.348267,547.027161 1161.600830,541.872437 1160.967407,536.202026 
	C1160.437134,531.452148 1158.012329,528.700623 1152.999268,528.531982 
	C1149.444824,528.412231 1145.896484,528.113281 1142.019897,527.874268 
	C1142.019897,534.427368 1142.019897,540.357666 1142.023560,547.244080 
z"/>
<path fill="#111111" opacity="1.000000" stroke="none" 
	d="
M756.262878,563.979248 
	C753.243591,574.554932 738.971802,574.931274 731.009644,571.658752 
	C728.923462,570.801453 727.098083,569.309753 724.944031,567.980469 
	C726.112366,566.345398 727.017700,565.078430 727.677612,564.154846 
	C731.987488,565.411682 735.859314,566.748291 739.830688,567.642517 
	C744.095459,568.602722 747.828430,567.443359 749.844421,563.266479 
	C751.647461,559.530762 750.028625,555.562134 745.665405,552.759460 
	C741.360352,549.994080 736.805115,547.611511 732.555481,544.768311 
	C727.908081,541.659119 725.588745,537.322205 726.990112,531.562622 
	C728.319946,526.097229 732.886414,523.769348 737.452942,522.693054 
	C744.144409,521.115784 750.929077,521.829956 757.338501,526.102661 
	C756.451111,527.706177 755.618896,529.209961 755.336548,529.720093 
	C749.681152,529.111450 744.683289,527.950500 739.800842,528.319275 
	C737.468811,528.495361 733.931030,531.312256 733.543518,533.413330 
	C733.153687,535.526794 735.480957,538.868103 737.536133,540.546692 
	C741.226685,543.561035 745.476074,545.979614 749.725220,548.201050 
	C756.246643,551.610413 757.890198,556.867188 756.262878,563.979248 
z"/>
<path fill="#111111" opacity="1.000000" stroke="none" 
	d="
M618.859497,550.691040 
	C621.753906,542.523804 624.540527,534.737732 627.291321,526.939087 
	C629.026306,522.020386 629.002319,522.011963 635.273499,522.976013 
	C633.418884,527.989075 631.625305,532.931213 629.764343,537.847778 
	C625.549194,548.984253 621.344482,560.125183 616.999268,571.210815 
	C616.557861,572.336853 615.241150,573.762146 614.236755,573.840210 
	C613.276855,573.914856 611.651001,572.621277 611.247070,571.571533 
	C605.074646,555.532837 599.054626,539.435425 592.911377,523.118774 
	C597.075623,521.512512 599.425293,522.325317 601.028320,526.848999 
	C605.165649,538.524597 609.802002,550.023193 614.544739,562.389709 
	C616.098938,558.191467 617.417725,554.629211 618.859497,550.691040 
z"/>
<path fill="#080808" opacity="1.000000" stroke="none" 
	d="
M648.984009,472.972992 
	C648.984009,459.505890 648.984009,446.533722 648.984009,433.273254 
	C652.110779,433.273254 655.026917,433.273254 658.346069,433.273254 
	C658.346069,446.965851 658.346069,460.725433 658.346069,474.883423 
	C665.328491,474.883423 671.930298,474.883423 678.768555,474.883423 
	C678.768555,477.681732 678.768555,480.089417 678.768555,482.759949 
	C669.020264,482.759949 659.275513,482.759949 648.984009,482.759949 
	C648.984009,479.682617 648.984009,476.575256 648.984009,472.972992 
z"/>
<path fill="#0C0C0C" opacity="1.000000" stroke="none" 
	d="
M1288.977661,566.811340 
	C1288.977661,553.723755 1288.977661,541.110291 1288.977661,528.081055 
	C1283.432739,528.081055 1278.184082,528.081055 1272.698975,528.081055 
	C1272.698975,526.098267 1272.698975,524.533142 1272.698975,522.703735 
	C1285.832764,522.703735 1298.733765,522.703735 1311.828613,522.703735 
	C1311.828613,524.451721 1311.828613,526.040466 1311.828613,528.005249 
	C1306.298706,528.005249 1300.872314,528.005249 1295.054932,528.005249 
	C1295.054932,542.935913 1295.054932,557.499268 1295.054932,572.306641 
	C1292.914307,572.306641 1291.177246,572.306641 1288.977661,572.306641 
	C1288.977661,570.521973 1288.977661,568.903687 1288.977661,566.811340 
z"/>
<path fill="#0C0C0C" opacity="1.000000" stroke="none" 
	d="
M1058.441040,458.999756 
	C1058.441040,450.190582 1058.441040,441.881378 1058.441040,433.276794 
	C1061.656006,433.276794 1064.560547,433.276794 1067.747559,433.276794 
	C1067.747559,449.603027 1067.747559,466.017303 1067.747559,482.727661 
	C1064.905151,482.727661 1061.991577,482.727661 1058.441040,482.727661 
	C1058.441040,475.039307 1058.441040,467.269531 1058.441040,458.999756 
z"/>
<path fill="#0C0C0C" opacity="1.000000" stroke="none" 
	d="
M1235.022339,456.000000 
	C1235.022339,465.144867 1235.022339,473.789734 1235.022339,482.727692 
	C1231.904053,482.727692 1228.988281,482.727692 1225.754517,482.727692 
	C1225.754517,466.390930 1225.754517,449.984619 1225.754517,433.276917 
	C1228.655762,433.276917 1231.560303,433.276917 1235.022339,433.276917 
	C1235.022339,440.619293 1235.022339,448.059662 1235.022339,456.000000 
z"/>
<path fill="#232323" opacity="1.000000" stroke="none" 
	d="
M583.651672,567.680481 
	C583.651611,569.436646 583.651611,570.734375 583.651611,572.329346 
	C581.466980,572.329346 579.732239,572.329346 577.670654,572.329346 
	C577.670654,555.884277 577.670654,539.517456 577.670654,522.749023 
	C579.500366,522.749023 581.341614,522.749023 583.651733,522.749023 
	C583.651733,537.720703 583.651733,552.471375 583.651672,567.680481 
z"/>
<path fill="#050505" opacity="1.000000" stroke="none" 
	d="
M775.927795,523.605957 
	C776.000427,540.013000 776.000427,555.975952 776.000427,572.236694 
	C774.027100,572.236694 772.289856,572.236694 770.268677,572.236694 
	C770.268677,555.817932 770.268677,539.424622 770.268677,522.362366 
	C772.181580,522.636108 774.018372,522.898987 775.927795,523.605957 
z"/>
<path fill="#111111" opacity="1.000000" stroke="none" 
	d="
M1105.308594,427.538330 
	C1106.157715,428.502197 1106.774048,429.212952 1107.390381,429.923737 
	C1107.135864,430.395142 1106.881226,430.866547 1106.626709,431.337921 
	C1103.357178,429.905548 1100.087646,428.473175 1096.810791,427.037567 
	C1094.074585,428.338470 1090.748779,429.919678 1087.422974,431.500885 
	C1092.790283,421.988953 1097.035889,417.479950 1105.308594,427.538330 
z"/>
<path fill="#FEFEFE" opacity="1.000000" stroke="none" 
	d="
M293.011932,130.740677 
	C292.595978,116.029427 290.374847,114.405411 267.872742,112.124138 
	C267.872742,110.787643 267.872742,109.414803 267.872742,107.778831 
	C285.485748,107.778831 302.930634,107.778831 320.766541,107.778831 
	C320.837158,109.059578 320.915405,110.478561 320.986115,111.760956 
	C320.478180,112.071709 320.231415,112.345070 319.967255,112.363144 
	C318.806274,112.442581 317.640411,112.454193 316.476074,112.479729 
	C306.782898,112.692291 302.554169,116.188278 301.054901,125.693413 
	C300.410187,129.780823 300.051849,133.957031 300.041870,138.094040 
	C299.962219,171.089493 300.013123,204.085266 299.989258,237.080902 
	C299.980377,249.353455 298.037506,261.141205 291.588531,271.913788 
	C283.563141,285.319580 272.624512,294.743958 257.057648,298.183044 
	C238.849396,302.205688 220.627228,303.017517 202.497711,297.954834 
	C187.992416,293.904236 175.316208,286.512299 167.214355,273.613800 
	C160.077179,262.251099 155.796875,249.725113 155.900726,235.790436 
	C156.192596,196.631104 156.002579,157.468185 156.002609,118.306679 
	C156.002609,116.508377 156.002609,114.710075 156.002609,112.636497 
	C148.984543,112.636497 142.353912,112.636497 135.365265,112.636497 
	C135.365265,110.825211 135.365265,109.297417 135.365265,107.642487 
	C163.470535,107.642487 191.443420,107.642487 219.705109,107.642487 
	C219.705109,109.088196 219.705109,110.506607 219.705109,112.393463 
	C212.633713,112.393463 205.561279,112.393463 197.997391,112.393463 
	C197.997391,114.625481 197.997391,116.401085 197.997391,118.176697 
	C197.997406,156.504990 197.915512,194.833542 198.046844,233.161392 
	C198.086761,244.808701 199.624069,256.229279 203.812027,267.297791 
	C209.329086,281.879181 219.553146,289.462616 234.992554,291.112488 
	C250.201263,292.737701 264.497925,291.557678 276.626343,281.066925 
	C286.382111,272.628479 292.368408,261.393341 292.694672,249.047134 
	C293.706421,210.761475 293.349213,172.439545 293.495819,134.131592 
	C293.499542,133.152924 293.185486,132.173065 293.011932,130.740677 
z"/>
<path fill="#FEFEFE" opacity="1.000000" stroke="none" 
	d="
M334.535034,270.782898 
	C340.683075,263.249176 348.763458,260.241333 356.804535,263.243622 
	C363.889618,265.888947 368.637726,270.919861 369.345062,279.030182 
	C370.030975,286.895050 364.575684,296.449036 357.566589,299.168274 
	C350.267151,302.000153 341.247131,298.893066 335.848114,292.701599 
	C330.451324,286.512665 330.327576,278.434662 334.535034,270.782898 
z"/>
<path fill="#FEFEFE" opacity="1.000000" stroke="none" 
	d="
M918.098083,137.161758 
	C921.219727,149.438507 921.703613,161.359100 917.688965,173.068542 
	C913.373535,185.655258 903.962708,193.075684 891.223816,195.219284 
	C880.038391,197.101486 868.578674,197.353897 856.841919,198.360291 
	C856.841919,168.820724 856.841919,140.597961 856.841919,112.265259 
	C856.970703,112.144913 857.217651,111.716873 857.451965,111.723671 
	C867.885254,112.026268 878.377075,111.783951 888.735474,112.843178 
	C903.453369,114.348213 913.213135,122.724701 918.098083,137.161758 
z"/>
<path fill="#FFFFFF" opacity="1.000000" stroke="none" 
	d="
M1291.941772,275.861755 
	C1277.308716,300.076172 1253.584595,300.185333 1233.677856,293.490417 
	C1222.642456,289.779053 1216.309692,279.855774 1211.275024,269.849396 
	C1202.469238,252.348068 1199.872437,233.248169 1199.732788,214.012009 
	C1199.613403,197.563797 1200.437744,181.013580 1202.296631,164.673645 
	C1204.061279,149.162750 1210.073608,134.729965 1219.998169,122.512680 
	C1229.869995,110.360413 1243.358887,106.329926 1258.690308,107.694290 
	C1272.833984,108.952957 1283.010376,115.781479 1291.180298,127.581802 
	C1299.074829,138.984268 1304.089722,151.382278 1305.317261,164.616302 
	C1307.092285,183.754196 1307.225342,203.100266 1307.023193,222.346649 
	C1306.880737,235.914337 1304.427490,249.376358 1299.210815,262.066437 
	C1297.288818,266.741638 1294.517822,271.067749 1291.941772,275.861755 
z"/>
<path fill="#FFFFFF" opacity="1.000000" stroke="none" 
	d="
M687.214355,296.332184 
	C668.493103,292.670898 658.750366,279.778931 652.132812,263.869019 
	C645.705444,248.416458 643.907776,231.942780 643.072754,215.421021 
	C641.924561,192.704727 643.232971,170.101898 649.998474,148.251221 
	C655.192017,131.477493 663.739441,116.427010 681.380127,110.295067 
	C699.206177,104.098686 716.384888,106.527130 729.872375,120.831085 
	C741.526367,133.190521 747.626465,148.582565 749.287354,165.405167 
	C750.678223,179.494049 752.078857,193.702698 751.728516,207.814926 
	C751.181458,229.847794 749.221924,251.863480 738.266052,271.824707 
	C727.125122,292.123169 713.313416,298.246643 692.081665,296.819641 
	C690.598694,296.719971 689.119324,296.565338 687.214355,296.332184 
z"/>
<path fill="#FFFFFF" opacity="1.000000" stroke="none" 
	d="
M553.222839,187.857117 
	C544.786377,201.471161 532.218933,206.949539 517.194153,207.992065 
	C509.763214,208.507660 502.566925,207.742828 496.106873,203.717789 
	C494.957794,203.001831 493.651764,201.371429 493.646088,200.157532 
	C493.509125,170.868118 493.539307,141.577927 493.539307,111.684700 
	C509.506927,111.569489 525.432739,110.162384 539.727783,118.489159 
	C551.244263,125.197479 555.984924,136.710129 557.703796,149.204300 
	C559.166626,159.837830 559.348633,170.663513 555.748840,181.111694 
	C555.008667,183.259842 554.170593,185.374222 553.222839,187.857117 
z"/>
<path fill="#FEFEFE" opacity="1.000000" stroke="none" 
	d="
M933.592651,453.922302 
	C934.406189,465.412537 931.440002,471.397644 923.987244,473.680206 
	C922.436646,474.155090 920.750671,474.319489 919.119080,474.370728 
	C915.826965,474.474182 912.529358,474.401611 908.903870,474.401611 
	C908.903870,463.426300 908.903870,452.756561 908.903870,442.104279 
	C922.685791,440.398682 931.326050,443.764679 933.592651,453.922302 
z"/>
<path fill="#FEFEFE" opacity="1.000000" stroke="none" 
	d="
M815.312866,445.622314 
	C820.577576,451.167633 821.918152,459.050720 818.932922,465.631134 
	C815.569153,473.045685 810.329163,474.997406 795.316589,474.299988 
	C795.316589,463.595367 795.316589,452.870361 795.316589,441.587402 
	C802.066772,442.024231 809.066162,440.559387 815.312866,445.622314 
z"/>
<path fill="#FEFEFE" opacity="1.000000" stroke="none" 
	d="
M700.981628,441.541931 
	C707.179016,442.054260 713.044800,441.793762 717.443726,446.685211 
	C722.247742,452.027039 722.259705,458.149017 720.328369,464.328430 
	C718.511719,470.140808 714.339050,473.711945 707.956970,474.070801 
	C704.161865,474.284241 700.362488,474.423340 696.283447,474.608673 
	C696.283447,463.588409 696.283447,452.868835 696.283447,441.539856 
	C697.675171,441.539856 699.082703,441.539856 700.981628,441.541931 
z"/>
<path fill="#FEFEFE" opacity="1.000000" stroke="none" 
	d="
M517.907593,453.107361 
	C518.761169,450.537415 519.524780,448.364746 520.778015,444.799011 
	C522.818298,451.211975 524.501648,456.503082 526.306763,462.176880 
	C522.630249,462.176880 519.403259,462.176880 515.666138,462.176880 
	C516.425842,459.114502 517.121704,456.309570 517.907593,453.107361 
z"/>
<path fill="#E2E2E2" opacity="1.000000" stroke="none" 
	d="
M752.620850,462.549591 
	C752.061096,461.480072 751.599487,460.345825 751.839905,459.387756 
	C752.989990,454.805756 754.330322,450.271484 756.707764,445.777588 
	C758.395752,451.131134 760.083740,456.484711 762.001221,462.566071 
	C758.813049,462.566071 755.927734,462.566071 752.620850,462.549591 
z"/>
<path fill="#E2E2E2" opacity="1.000000" stroke="none" 
	d="
M1268.999023,462.478577 
	C1265.491943,462.551849 1262.385376,462.551849 1258.661133,462.551849 
	C1260.455322,456.533295 1262.072754,451.107605 1263.690308,445.681915 
	C1264.118774,445.687134 1264.547363,445.692383 1264.975952,445.697632 
	C1266.450439,451.266846 1267.924927,456.836060 1268.999023,462.478577 
z"/>
<path fill="#FEFEFE" opacity="1.000000" stroke="none" 
	d="
M1189.592285,530.265137 
	C1195.684448,526.875122 1201.477539,526.541870 1207.238159,530.009888 
	C1215.118042,534.753784 1217.861328,542.165466 1216.728638,550.774414 
	C1215.183594,562.516357 1205.772705,568.761780 1195.270142,567.691772 
	C1184.816528,566.626892 1176.950562,550.865601 1181.954224,540.225281 
	C1183.648315,536.622803 1186.784668,533.698547 1189.592285,530.265137 
z"/>
<path fill="#FEFEFE" opacity="1.000000" stroke="none" 
	d="
M1344.392578,567.632141 
	C1331.899658,568.391602 1324.557007,561.684326 1323.323853,548.884399 
	C1322.342041,538.692444 1329.971191,529.009094 1339.978394,527.745850 
	C1351.257568,526.322021 1361.745117,538.334961 1359.881104,550.543213 
	C1358.522095,559.444031 1352.823364,565.835571 1344.392578,567.632141 
z"/>
<path fill="#FEFEFE" opacity="1.000000" stroke="none" 
	d="
M1084.232422,528.167236 
	C1093.800659,531.894653 1098.954102,540.225220 1097.967529,549.789856 
	C1096.994019,559.226501 1090.924683,566.103333 1082.136597,567.727051 
	C1074.535034,569.131531 1067.407104,565.230286 1063.526489,556.873535 
	C1060.061768,549.412415 1060.681763,542.219910 1065.795410,535.361450 
	C1070.442871,529.127930 1076.197876,526.513733 1084.232422,528.167236 
z"/>
<path fill="#FEFEFE" opacity="1.000000" stroke="none" 
	d="
M811.063965,528.604309 
	C823.117126,529.436096 829.530029,540.649292 827.802002,550.052795 
	C825.025208,565.162720 819.256287,568.820496 799.278015,567.123047 
	C799.278015,554.257446 799.278015,541.369873 799.278015,527.877441 
	C803.144653,528.118530 806.885193,528.351807 811.063965,528.604309 
z"/>
<path fill="#FEFEFE" opacity="1.000000" stroke="none" 
	d="
M898.039062,560.952881 
	C898.039062,549.823975 898.039062,539.188904 898.039062,528.068298 
	C907.725952,528.166138 917.381836,526.985596 923.685974,536.499207 
	C928.911133,544.384460 927.662598,552.466858 923.328491,559.928772 
	C917.614319,569.766479 907.543030,567.011658 898.039124,567.436340 
	C898.039124,565.324646 898.039124,563.385742 898.039062,560.952881 
z"/>
<path fill="#FEFEFE" opacity="1.000000" stroke="none" 
	d="
M1031.672607,530.985474 
	C1040.209351,537.954468 1042.692505,547.683594 1038.553833,556.837402 
	C1034.180298,566.510620 1026.904663,569.271667 1011.824951,566.851379 
	C1011.824951,554.163635 1011.824951,541.433044 1011.824951,528.147217 
	C1018.420715,527.873108 1025.039429,527.840576 1031.672607,530.985474 
z"/>
<path fill="#FEFEFE" opacity="1.000000" stroke="none" 
	d="
M1251.525146,545.969604 
	C1248.263550,545.969727 1245.447998,545.969727 1242.331787,545.969727 
	C1242.331787,540.074097 1242.331787,534.338745 1242.331787,528.042175 
	C1245.833252,528.042175 1249.477295,527.687988 1253.020386,528.134644 
	C1257.152832,528.655640 1259.994507,530.833191 1260.007935,535.641052 
	C1260.026123,542.104736 1257.931763,544.957642 1251.525146,545.969604 
z"/>
<path fill="#FEFEFE" opacity="1.000000" stroke="none" 
	d="
M706.176270,544.338135 
	C701.222229,545.223267 696.611084,545.869995 691.741699,546.553040 
	C691.741699,539.930847 691.741699,534.336487 691.741699,528.732849 
	C699.836365,526.735779 706.827820,527.893250 708.644653,532.291138 
	C710.315308,536.335388 710.234741,540.709229 706.176270,544.338135 
z"/>
<path fill="#FEFEFE" opacity="1.000000" stroke="none" 
	d="
M858.751221,535.868835 
	C859.576050,533.899353 860.285400,532.305725 861.297668,530.031555 
	C863.999634,537.877014 866.388123,544.812073 868.828125,551.896851 
	C863.601135,551.896851 858.639160,551.896851 853.096863,551.896851 
	C854.984863,546.561584 856.810303,541.403137 858.751221,535.868835 
z"/>
<path fill="#FEFEFE" opacity="1.000000" stroke="none" 
	d="
M1142.021729,546.765991 
	C1142.019897,540.357666 1142.019897,534.427368 1142.019897,527.874268 
	C1145.896484,528.113281 1149.444824,528.412231 1152.999268,528.531982 
	C1158.012329,528.700623 1160.437134,531.452148 1160.967407,536.202026 
	C1161.600830,541.872437 1159.348267,547.027161 1155.025024,547.988892 
	C1151.069946,548.868713 1146.871582,548.678223 1142.775879,548.843201 
	C1142.546997,548.852417 1142.275269,547.801575 1142.021729,546.765991 
z"/>
</svg>