<svg width="56" height="56" version="1.1" id="Layer_1" xmlns="http://www.w3.org/2000/svg" xmlns:xlink="http://www.w3.org/1999/xlink" 
	 viewBox="0 0 1520 440" enable-background="new 0 0 1520 440" xml:space="preserve">
<path fill="#000000" opacity="1.000000" stroke="none" 
	d="
M1089.000000,441.000000 
	C726.046204,441.000000 363.592377,441.000000 1.069293,441.000000 
	C1.069293,294.398254 1.069293,147.796448 1.069293,1.097328 
	C507.666656,1.097328 1014.333313,1.097328 1520.972168,1.097328 
	C1520.972168,147.741058 1520.972168,294.370544 1520.972168,441.000000 
	C1377.129639,441.000000 1233.314819,441.000000 1089.000000,441.000000 
M699.030823,225.892105 
	C698.691711,231.496582 698.823669,237.178192 697.921204,242.690430 
	C695.635498,256.651520 691.030457,269.381042 672.696594,273.579224 
	C662.114563,276.002319 652.053711,275.593933 643.970642,267.393341 
	C638.080200,261.417175 636.145935,253.477493 636.086365,245.403488 
	C635.867676,215.756271 635.999451,186.106461 635.999268,156.457626 
	C635.999268,154.712418 635.999207,152.967209 635.999207,151.001495 
	C625.707275,151.001495 616.219055,151.152008 606.739685,150.928345 
	C602.880127,150.837296 601.902466,152.387207 601.944885,155.938797 
	C602.361938,190.832550 602.261658,225.739212 603.256042,260.615204 
	C603.553650,271.052643 607.951416,280.876373 616.020935,288.378357 
	C624.628418,296.380524 635.105225,300.166016 646.559265,300.866882 
	C654.114990,301.329163 661.850159,301.300049 669.318420,300.211334 
	C682.420593,298.301331 693.568909,292.321777 701.872925,280.494751 
	C703.063354,285.559814 703.807678,289.877594 705.166992,293.992157 
	C705.783875,295.859467 707.542297,298.669952 708.915649,298.749176 
	C716.819946,299.205170 724.764099,298.971375 732.686646,298.971375 
	C732.686646,249.371826 732.686646,200.333817 732.686646,151.005524 
	C722.406372,151.005524 712.435730,150.939682 702.468567,151.096756 
	C701.341919,151.114517 700.234985,152.388992 699.018433,153.998566 
	C699.068054,177.655090 699.117676,201.311600 699.030823,225.892105 
M1414.982178,226.014526 
	C1426.233765,225.677155 1437.493042,225.498108 1448.734985,224.959122 
	C1460.636108,224.388550 1471.784058,221.023376 1482.058594,214.927338 
	C1493.980347,207.854126 1502.023560,197.811722 1506.219727,184.477341 
	C1509.875854,172.858932 1509.858765,161.152802 1507.926636,149.399979 
	C1505.076538,132.062134 1495.777222,119.317085 1479.599609,112.031586 
	C1466.119141,105.960754 1451.759277,104.123405 1437.141235,104.026726 
	C1419.990112,103.913300 1402.837524,104.000916 1385.685669,104.001328 
	C1383.913940,104.001373 1382.142334,104.001335 1380.320557,104.001335 
	C1380.320557,169.264511 1380.320557,233.937851 1380.320557,299.022827 
	C1388.766968,299.022827 1396.897705,299.093811 1405.026001,298.982605 
	C1407.710693,298.945862 1410.389038,298.438965 1413.710571,297.558563 
	C1413.807495,295.748718 1413.985840,293.939026 1413.988892,292.129059 
	C1414.025757,270.115936 1414.036621,248.102768 1414.982178,226.014526 
M59.952129,197.541092 
	C54.693233,199.204300 49.434334,200.867493 43.998844,202.586548 
	C43.998844,204.185455 44.211826,205.545715 43.961147,206.814362 
	C42.992245,211.717789 45.448849,213.664139 49.837772,215.021805 
	C63.893661,219.369919 77.837936,224.078812 92.905006,229.001190 
	C87.941269,233.804276 84.053307,237.442444 80.317352,241.230545 
	C78.263901,243.312607 75.966492,245.384201 74.637161,247.911804 
	C67.600845,261.290771 69.922325,272.798584 80.247337,283.947449 
	C88.445328,292.799561 108.775558,293.173645 116.167191,286.375610 
	C121.648315,281.334686 127.164352,276.331787 133.687469,270.378632 
	C140.278656,287.093140 146.693802,303.361237 153.255264,320.000336 
	C154.752197,320.000336 156.781631,319.744415 158.721054,320.053436 
	C162.800049,320.703339 164.565765,319.028015 165.496185,315.087921 
	C166.611938,310.362915 168.324280,305.755219 170.065765,301.206818 
	C173.027649,293.470886 176.214188,285.820923 179.304123,278.140320 
	C181.683487,280.378265 183.801895,281.855469 185.255707,283.823578 
	C193.384857,294.828369 204.331909,298.047485 217.112839,294.893890 
	C227.678955,292.286835 235.156250,285.506500 237.564743,274.719666 
	C239.821228,264.613586 238.288681,255.030334 230.638550,247.040329 
	C225.716705,241.899811 221.252167,236.321457 216.404938,230.734497 
	C231.910706,219.929733 248.735443,214.564484 266.062042,208.475525 
	C266.062042,211.098740 266.062042,212.903610 266.062042,214.708481 
	C266.062042,239.703720 266.061066,264.698944 266.063904,289.694183 
	C266.064148,291.860016 265.799500,294.084991 266.223724,296.167236 
	C266.442505,297.241028 267.892273,298.856476 268.811249,298.873779 
	C279.079620,299.066864 289.352966,298.995636 300.164917,298.995636 
	C300.164917,269.345093 300.164917,240.295441 300.164917,211.393799 
	C329.108185,211.393799 357.499939,211.393799 386.070862,211.393799 
	C386.070862,238.923904 386.196503,266.062561 385.953583,293.197937 
	C385.910522,298.011017 387.538910,299.248932 391.966278,299.107574 
	C399.788818,298.857788 407.632141,298.834564 415.452667,299.112762 
	C419.832489,299.268555 421.114471,297.781891 421.104828,293.390991 
	C420.969421,231.746277 421.009735,170.101181 420.993500,108.456184 
	C420.993103,107.029388 420.831970,105.602646 420.735260,104.000626 
	C410.658752,104.000626 401.002106,104.185860 391.358307,103.914604 
	C387.168610,103.796768 385.944031,105.147400 385.977966,109.314964 
	C386.162415,131.958649 386.070374,154.604599 386.073425,177.249756 
	C386.073669,179.026001 386.073456,180.802246 386.073456,182.684601 
	C357.107544,182.684601 328.721924,182.684601 299.999573,182.684601 
	C299.999573,169.402039 299.999573,156.432022 299.999573,143.462006 
	C299.999573,130.375961 299.999573,117.289902 299.999573,104.000748 
	C289.970123,104.000748 280.646454,104.185921 271.335968,103.916237 
	C267.190033,103.796143 265.936951,105.045319 265.967560,109.268677 
	C266.156067,135.262344 266.062073,161.258087 266.062042,187.253128 
	C266.062042,189.056732 266.062042,190.860352 266.062042,193.206787 
	C251.178391,188.229355 236.823700,183.428802 221.639328,178.350784 
	C225.964859,174.222504 229.897064,170.639069 233.637192,166.865280 
	C241.755753,158.673645 244.724533,148.972565 241.999283,137.619446 
	C238.977783,125.032326 229.891174,118.971619 218.270645,116.249557 
	C208.890976,114.052391 196.458786,119.237366 190.654572,127.519073 
	C187.794052,131.600632 183.683212,134.805908 179.878403,138.671600 
	C178.646469,136.020004 177.599899,134.327637 177.046280,132.487000 
	C172.654358,117.885223 168.221588,103.292503 164.154358,88.599297 
	C163.429749,85.981575 162.628128,84.507339 160.029556,85.066681 
	C157.227112,85.669899 153.101547,82.680428 151.915924,88.083458 
	C150.410522,94.943810 148.801651,101.791672 146.921829,108.557243 
	C144.076080,118.799225 140.958145,128.965576 137.846146,139.536728 
	C132.221848,133.482910 127.117157,128.219131 122.274788,122.724167 
	C114.252968,113.621231 95.451492,111.007614 85.368294,119.527031 
	C71.263573,131.444321 68.751472,149.668304 81.079361,163.578156 
	C86.506447,169.701691 91.594345,176.125839 97.457199,183.158356 
	C84.582138,188.022018 72.595490,192.550079 59.952129,197.541092 
M1201.164429,104.032745 
	C1191.561768,104.032745 1181.958984,104.032745 1172.499023,104.032745 
	C1172.499023,153.788971 1172.499023,202.976242 1172.499023,253.566299 
	C1171.678345,251.303131 1171.494263,250.301117 1170.995728,249.492920 
	C1156.993896,226.788010 1143.031006,204.058426 1128.911621,181.426666 
	C1114.830322,158.856079 1100.049438,136.698410 1086.708130,113.702530 
	C1082.093872,105.749168 1077.255737,103.086983 1068.571899,103.828529 
	C1059.541016,104.599701 1050.393066,104.000443 1041.378662,104.000443 
	C1041.378662,169.365585 1041.378662,234.071030 1041.378662,299.014282 
	C1049.740234,299.014282 1057.743774,298.681763 1065.702637,299.134125 
	C1070.796631,299.423584 1071.866455,297.327026 1071.840210,292.844299 
	C1071.709717,270.517456 1071.810791,248.189377 1071.768555,225.861862 
	C1071.746704,214.311432 1071.768677,202.756622 1071.459595,191.212143 
	C1071.084961,177.221146 1070.381348,163.238968 1069.775513,148.139969 
	C1101.143921,199.052322 1131.889038,248.952972 1162.738159,299.022400 
	C1174.088379,299.022400 1185.589355,298.747864 1197.066895,299.148102 
	C1202.154419,299.325531 1203.097412,297.477631 1203.087524,292.870117 
	C1202.955566,231.725876 1203.005615,170.581284 1202.958984,109.436806 
	C1202.957642,107.703842 1202.390625,105.971306 1201.164429,104.032745 
M484.512360,301.010773 
	C507.106171,304.013092 526.675598,298.709869 541.440613,279.340729 
	C543.180115,285.146423 544.478271,290.161224 546.250549,295.002441 
	C546.824890,296.571350 548.586365,298.761169 549.899475,298.828827 
	C557.149170,299.202362 564.428101,299.007507 572.000610,299.007507 
	C572.000610,296.604828 572.000610,294.799042 572.000610,292.993256 
	C572.000549,262.660919 572.043274,232.328476 571.956055,201.996384 
	C571.942383,197.252060 571.573608,192.479080 570.967407,187.771072 
	C567.720337,162.551910 551.798645,151.404160 528.468323,149.135254 
	C519.834351,148.295593 511.023438,148.567688 502.340576,149.102127 
	C488.629272,149.946091 475.762024,154.281754 463.286804,159.887573 
	C460.892395,160.963501 460.450531,162.054062 461.679443,164.417206 
	C463.924316,168.734070 465.841400,173.220932 467.912170,177.628922 
	C471.771057,185.843292 471.776459,185.841614 479.924652,182.028580 
	C480.369141,181.820587 480.787079,181.550583 481.241211,181.369034 
	C492.845703,176.729813 504.629547,172.336823 517.364075,174.192520 
	C522.117798,174.885239 527.224854,176.856003 531.008850,179.758698 
	C539.901367,186.580261 537.529785,197.194717 539.255005,206.918488 
	C534.154053,207.316238 529.764771,208.012527 525.389099,207.935593 
	C510.149597,207.667557 495.060547,208.938278 480.413055,213.124329 
	C467.444458,216.830566 456.128448,223.423492 450.074463,236.223572 
	C444.924194,247.112778 444.701630,258.642944 447.613068,270.207306 
	C449.845612,279.074951 453.878204,286.783447 461.658234,292.310822 
	C468.334320,297.053955 475.617859,299.832275 484.512360,301.010773 
M878.984497,253.678055 
	C879.673096,259.647980 879.545349,265.857819 881.215332,271.539307 
	C885.025330,284.501892 893.018616,294.187347 906.281738,298.572906 
	C915.502136,301.621735 924.800781,302.135101 934.649719,301.283569 
	C948.819580,300.058441 960.452026,295.060242 969.886475,284.561310 
	C971.478516,282.789642 973.414246,281.326813 975.562683,279.385681 
	C977.209351,285.485107 978.554993,290.820007 980.146973,296.080383 
	C980.477844,297.173401 981.698792,298.784576 982.548889,298.809387 
	C989.945801,299.025269 997.351746,298.933960 1004.997986,298.933960 
	C1004.997986,296.276093 1004.998047,294.453583 1004.998047,292.631042 
	C1004.998474,261.487732 1005.040649,230.344315 1004.953796,199.201248 
	C1004.940918,194.583740 1004.715393,189.896881 1003.903503,185.364761 
	C1001.525452,172.089005 995.146606,161.398010 982.759888,155.064194 
	C973.731750,150.447739 963.888367,148.647583 953.941650,148.098282 
	C937.364929,147.182831 921.266663,150.080719 905.776855,156.034088 
	C901.625427,157.629623 897.714600,159.851044 894.026245,161.625000 
	C897.035278,168.672623 899.559937,174.792145 902.265503,180.830597 
	C903.508606,183.605057 904.802124,185.582703 908.846924,183.773468 
	C921.871338,177.947769 935.106750,172.767822 949.916321,173.929733 
	C957.639893,174.535706 967.811462,178.477554 970.233948,187.911819 
	C971.786377,193.957794 971.852051,200.385513 972.573364,206.549377 
	C968.656128,207.158661 965.942078,207.812851 963.200195,207.963806 
	C954.935364,208.418777 946.659912,208.684875 938.388184,209.011902 
	C926.571289,209.479111 915.120178,211.490982 904.275330,216.499573 
	C888.741943,223.673492 880.329712,235.687836 878.984497,253.678055 
M840.289246,295.928345 
	C841.747986,295.230042 843.231567,294.578796 844.661743,293.826111 
	C857.320557,287.164185 864.160828,276.892883 866.414001,262.550873 
	C868.634766,248.414902 862.566101,229.882355 850.415100,223.218536 
	C839.124268,217.026474 826.997437,212.366760 815.284851,206.932663 
	C808.956665,203.996628 802.492004,201.241714 796.526550,197.673538 
	C792.051270,194.996674 790.005188,190.331421 791.055054,184.950729 
	C791.859131,180.829636 794.419189,178.467285 798.510986,176.751541 
	C807.971985,172.784500 817.485840,173.195999 826.960388,175.574326 
	C836.224731,177.899902 845.277100,181.069855 854.500549,183.893051 
	C857.929260,175.634171 861.370178,167.345810 864.723999,159.267303 
	C847.026855,150.282578 829.158264,147.895187 810.855591,148.096466 
	C805.313599,148.157425 799.759644,149.185242 794.254028,150.044586 
	C784.517517,151.564301 775.644958,155.460693 768.463562,162.103729 
	C757.767822,171.997711 754.892151,184.771896 758.663391,198.437973 
	C760.422485,204.812424 763.484924,211.887604 768.204346,216.165527 
	C778.247559,225.269333 791.057434,230.157379 803.661255,235.170456 
	C811.914734,238.453247 819.930786,242.618027 827.478516,247.311890 
	C835.480225,252.288010 836.179626,266.424194 828.647156,270.413239 
	C823.218201,273.288300 816.840820,275.310394 810.735168,275.791290 
	C793.513794,277.147644 777.474426,271.862091 761.966980,264.933746 
	C758.039429,263.178986 756.815308,264.416626 756.865112,268.305420 
	C756.939697,274.128235 757.347473,279.996246 756.778015,285.762543 
	C756.305054,290.551849 758.748901,293.597351 762.280090,294.611725 
	C771.419312,297.237000 780.739258,299.676544 790.152222,300.776428 
	C798.897644,301.798279 807.915894,301.627563 816.703308,300.802582 
	C824.385376,300.081390 831.913330,297.719482 840.289246,295.928345 
M1242.017822,127.500023 
	C1242.015747,182.626968 1242.014526,237.753906 1242.009521,292.880859 
	C1242.009277,296.053497 1241.382202,299.127899 1246.542480,299.104065 
	C1282.346436,298.938568 1318.151733,298.971313 1353.956055,299.079834 
	C1357.464478,299.090454 1358.113159,297.698944 1358.019287,294.616821 
	C1357.826416,288.293274 1357.729126,281.948242 1358.041016,275.634216 
	C1358.253174,271.338379 1356.988403,269.857269 1352.474243,269.898651 
	C1329.157227,270.112427 1305.837036,269.997833 1282.518066,269.997772 
	C1280.741333,269.997772 1278.964600,269.997803 1276.784058,269.997803 
	C1276.784058,267.438354 1276.784058,265.472260 1276.784058,263.506165 
	C1276.783936,212.537476 1276.784058,161.568771 1276.782959,110.600075 
	C1276.782837,109.267677 1277.066284,107.836227 1276.667480,106.633362 
	C1276.331665,105.620491 1275.205566,104.132835 1274.409790,104.120491 
	C1263.657837,103.953827 1252.902344,104.008644 1242.004272,104.008644 
	C1242.004272,111.878799 1242.004272,119.189423 1242.017822,127.500023 
z"/>
<path fill="#CE9C06" opacity="1.000000" stroke="none" 
	d="
M60.280487,197.309616 
	C72.595490,192.550079 84.582138,188.022018 97.457199,183.158356 
	C91.594345,176.125839 86.506447,169.701691 81.079361,163.578156 
	C68.751472,149.668304 71.263573,131.444321 85.368294,119.527031 
	C95.451492,111.007614 114.252968,113.621231 122.274788,122.724167 
	C127.117157,128.219131 132.221848,133.482910 137.846146,139.536728 
	C140.958145,128.965576 144.076080,118.799225 146.921829,108.557243 
	C148.801651,101.791672 150.410522,94.943810 151.915924,88.083458 
	C153.101547,82.680428 157.227112,85.669899 160.029556,85.066681 
	C162.628128,84.507339 163.429749,85.981575 164.154358,88.599297 
	C168.221588,103.292503 172.654358,117.885223 177.046280,132.487000 
	C177.599899,134.327637 178.646469,136.020004 179.878403,138.671600 
	C183.683212,134.805908 187.794052,131.600632 190.654572,127.519073 
	C196.458786,119.237366 208.890976,114.052391 218.270645,116.249557 
	C229.891174,118.971619 238.977783,125.032326 241.999283,137.619446 
	C244.724533,148.972565 241.755753,158.673645 233.637192,166.865280 
	C229.897064,170.639069 225.964859,174.222504 221.639328,178.350784 
	C236.823700,183.428802 251.178391,188.229355 266.062042,193.206787 
	C266.062042,190.860352 266.062042,189.056732 266.062042,187.253128 
	C266.062073,161.258087 266.156067,135.262344 265.967560,109.268677 
	C265.936951,105.045319 267.190033,103.796143 271.335968,103.916237 
	C280.646454,104.185921 289.970123,104.000748 299.999573,104.000748 
	C299.999573,117.289902 299.999573,130.375961 299.999573,143.462006 
	C299.999573,156.432022 299.999573,169.402039 299.999573,182.684601 
	C328.721924,182.684601 357.107544,182.684601 386.073456,182.684601 
	C386.073456,180.802246 386.073669,179.026001 386.073425,177.249756 
	C386.070374,154.604599 386.162415,131.958649 385.977966,109.314964 
	C385.944031,105.147400 387.168610,103.796768 391.358307,103.914604 
	C401.002106,104.185860 410.658752,104.000626 420.735260,104.000626 
	C420.831970,105.602646 420.993103,107.029388 420.993500,108.456184 
	C421.009735,170.101181 420.969421,231.746277 421.104828,293.390991 
	C421.114471,297.781891 419.832489,299.268555 415.452667,299.112762 
	C407.632141,298.834564 399.788818,298.857788 391.966278,299.107574 
	C387.538910,299.248932 385.910522,298.011017 385.953583,293.197937 
	C386.196503,266.062561 386.070862,238.923904 386.070862,211.393799 
	C357.499939,211.393799 329.108185,211.393799 300.164917,211.393799 
	C300.164917,240.295441 300.164917,269.345093 300.164917,298.995636 
	C289.352966,298.995636 279.079620,299.066864 268.811249,298.873779 
	C267.892273,298.856476 266.442505,297.241028 266.223724,296.167236 
	C265.799500,294.084991 266.064148,291.860016 266.063904,289.694183 
	C266.061066,264.698944 266.062042,239.703720 266.062042,214.708481 
	C266.062042,212.903610 266.062042,211.098740 266.062042,208.475525 
	C248.735443,214.564484 231.910706,219.929733 216.404938,230.734497 
	C221.252167,236.321457 225.716705,241.899811 230.638550,247.040329 
	C238.288681,255.030334 239.821228,264.613586 237.564743,274.719666 
	C235.156250,285.506500 227.678955,292.286835 217.112839,294.893890 
	C204.331909,298.047485 193.384857,294.828369 185.255707,283.823578 
	C183.801895,281.855469 181.683487,280.378265 179.304123,278.140320 
	C176.214188,285.820923 173.027649,293.470886 170.065765,301.206818 
	C168.324280,305.755219 166.611938,310.362915 165.496185,315.087921 
	C164.565765,319.028015 162.800049,320.703339 158.721054,320.053436 
	C156.781631,319.744415 154.752197,320.000336 153.255264,320.000336 
	C146.693802,303.361237 140.278656,287.093140 133.687469,270.378632 
	C127.164352,276.331787 121.648315,281.334686 116.167191,286.375610 
	C108.775558,293.173645 88.445328,292.799561 80.247337,283.947449 
	C69.922325,272.798584 67.600845,261.290771 74.637161,247.911804 
	C75.966492,245.384201 78.263901,243.312607 80.317352,241.230545 
	C84.053307,237.442444 87.941269,233.804276 92.905006,229.001190 
	C77.837936,224.078812 63.893661,219.369919 49.837772,215.021805 
	C45.448849,213.664139 42.992245,211.717789 43.961147,206.814362 
	C44.211826,205.545715 43.998844,204.185455 43.998844,202.586548 
	C49.434334,200.867493 54.693233,199.204300 60.280487,197.309616 
M85.013313,147.383194 
	C85.712250,149.359421 85.941139,151.719437 87.188850,153.247604 
	C93.726463,161.254639 100.522217,169.050934 107.238632,176.932632 
	C117.732712,171.574173 125.144104,163.589462 130.879318,154.002289 
	C131.590576,152.813339 131.221130,150.163589 130.320389,148.968826 
	C126.848740,144.363861 123.265991,139.756134 119.132904,135.761734 
	C115.332581,132.088928 111.053101,128.708405 106.471153,126.101929 
	C101.312462,123.167358 96.120514,125.543961 91.962624,128.754822 
	C86.289284,133.135971 83.146721,138.993134 85.013313,147.383194 
M215.280273,127.002480 
	C211.458725,128.183945 206.947723,128.460907 203.960999,130.737579 
	C197.979034,135.297409 192.936951,141.070251 187.290192,146.099045 
	C184.768692,148.344604 184.607834,150.435516 186.444641,152.922531 
	C192.883728,161.640945 200.526321,168.989487 210.763962,173.904190 
	C216.046814,168.563339 221.747208,163.404938 226.648895,157.575012 
	C228.904572,154.892197 230.556519,150.966400 230.819672,147.478790 
	C231.678253,136.099945 227.713913,131.020813 215.280273,127.002480 
M106.531197,238.057281 
	C104.968597,236.947662 103.406006,235.838028 101.851303,234.734009 
	C96.393532,240.505508 90.986977,245.650543 86.327927,251.401199 
	C84.134796,254.108185 82.654404,257.868500 82.123199,261.345825 
	C81.055016,268.338348 85.264145,276.207855 93.543602,279.109222 
	C100.328682,281.486938 106.929352,280.545044 112.198997,275.239716 
	C117.185875,270.219055 121.855652,264.883453 126.841141,259.495911 
	C121.366943,251.550873 115.541138,243.811340 106.531197,238.057281 
M143.000381,217.615967 
	C146.143448,221.403671 149.603012,224.979950 152.322205,229.050781 
	C154.246796,231.932007 155.441071,231.183136 157.197586,229.313553 
	C162.726608,223.428680 168.210922,217.499329 173.855286,211.726761 
	C175.673737,209.866974 177.934448,208.439606 179.999588,206.809082 
	C171.536560,196.788559 164.072479,187.950836 158.234863,181.038910 
	C149.091675,188.715637 139.987274,196.359802 130.783279,204.087601 
	C135.474457,209.221390 139.035385,213.118301 143.000381,217.615967 
M201.150162,282.534576 
	C208.442078,287.146698 213.946854,285.303680 220.198196,281.174225 
	C225.221298,277.856171 228.048782,269.620148 226.648117,264.109894 
	C223.778320,252.819916 213.769363,247.199219 206.575699,237.538239 
	C199.272354,247.248917 192.628433,256.037537 186.079193,264.896179 
	C185.657623,265.466370 185.581039,266.951874 185.995712,267.379211 
	C190.791565,272.322021 195.713181,277.142761 201.150162,282.534576 
M206.495667,194.986938 
	C203.440277,198.043976 200.244614,200.979568 197.422852,204.238861 
	C196.666718,205.112213 196.388794,207.499557 197.020493,208.293747 
	C200.779968,213.020172 204.870743,217.483109 208.048767,221.117859 
	C223.201370,213.984818 237.862503,207.083115 252.227188,200.320984 
	C242.794296,197.169952 232.696732,194.497253 223.214890,190.399673 
	C216.103302,187.326401 211.234283,188.454575 206.495667,194.986938 
M154.954056,290.719635 
	C155.920929,293.406128 156.887802,296.092651 158.097961,299.455139 
	C161.304794,291.260986 163.608261,283.631317 167.221237,276.682526 
	C170.232956,270.890137 172.482086,266.167725 165.410355,262.025238 
	C165.090439,261.837860 165.168976,261.062256 164.872879,260.728180 
	C161.315994,256.714661 157.723358,252.732803 154.058914,248.652328 
	C149.621002,253.184799 145.565598,257.326630 141.791367,261.181274 
	C146.052567,270.795349 150.316910,280.416504 154.954056,290.719635 
M195.988937,232.504044 
	C197.308548,231.593933 198.628174,230.683807 200.020035,229.723877 
	C195.614166,224.563690 191.420105,219.651581 186.911636,214.371246 
	C178.680267,223.130966 170.794342,231.523056 162.693436,240.143951 
	C167.513321,245.904709 172.196014,251.501480 176.768616,256.966675 
	C183.098373,248.799911 189.249969,240.863022 195.988937,232.504044 
M106.884056,193.495728 
	C104.828537,193.347076 102.483543,192.476654 100.764191,193.166214 
	C89.078468,197.852798 77.524628,202.868210 66.115898,207.697968 
	C66.420242,207.917160 67.008659,208.561523 67.736038,208.831497 
	C77.614983,212.497971 87.490501,216.177536 97.437798,219.650696 
	C98.573410,220.047180 100.624886,219.691864 101.423157,218.875244 
	C106.114265,214.076233 110.559456,209.036835 115.321587,203.822144 
	C112.473312,200.571411 109.706596,197.413742 106.884056,193.495728 
M183.876999,193.646866 
	C185.042130,195.077698 186.207245,196.508530 187.626160,198.251022 
	C192.671310,192.719864 197.299942,187.645355 201.094376,183.485397 
	C192.456726,175.145477 184.110825,167.087265 175.508667,158.781616 
	C172.219131,162.365463 168.362000,166.567688 164.500977,170.774155 
	C171.169815,178.610718 177.320145,185.837997 183.876999,193.646866 
M152.449188,157.963287 
	C153.647186,159.341995 154.845169,160.720718 156.104309,162.169815 
	C161.202377,156.975876 165.929871,152.159470 170.226379,147.782166 
	C166.165649,136.187088 162.191177,124.838272 158.222855,113.506996 
	C154.184906,125.223953 150.105835,136.969864 146.151184,148.757507 
	C145.911224,149.472733 146.455261,150.672073 146.986465,151.383270 
	C148.549637,153.476120 150.290085,155.436569 152.449188,157.963287 
M128.007568,241.519852 
	C130.453003,244.619492 132.898422,247.719131 135.404907,250.896164 
	C138.983368,247.313889 142.485626,243.807877 146.515503,239.773682 
	C138.871124,230.950607 131.225494,222.126068 123.890175,213.659698 
	C119.429535,217.999878 114.912910,222.394562 110.724205,226.470154 
	C116.366371,231.356750 121.940102,236.184082 128.007568,241.519852 
M147.912369,169.374832 
	C145.506363,166.571289 143.100372,163.767746 140.388153,160.607407 
	C133.959824,171.721100 125.483864,179.848938 114.604713,185.843781 
	C117.822479,189.352585 120.709732,192.500977 123.849747,195.924988 
	C131.849045,187.842194 139.936478,179.684921 147.982605,171.487106 
	C148.304886,171.158752 148.235138,170.445618 147.912369,169.374832 
z"/>
<path fill="#CE9C06" opacity="1.000000" stroke="none" 
	d="
M1201.625977,104.135651 
	C1202.390625,105.971306 1202.957642,107.703842 1202.958984,109.436806 
	C1203.005615,170.581284 1202.955566,231.725876 1203.087524,292.870117 
	C1203.097412,297.477631 1202.154419,299.325531 1197.066895,299.148102 
	C1185.589355,298.747864 1174.088379,299.022400 1162.738159,299.022400 
	C1131.889038,248.952972 1101.143921,199.052322 1069.775513,148.139969 
	C1070.381348,163.238968 1071.084961,177.221146 1071.459595,191.212143 
	C1071.768677,202.756622 1071.746704,214.311432 1071.768555,225.861862 
	C1071.810791,248.189377 1071.709717,270.517456 1071.840210,292.844299 
	C1071.866455,297.327026 1070.796631,299.423584 1065.702637,299.134125 
	C1057.743774,298.681763 1049.740234,299.014282 1041.378662,299.014282 
	C1041.378662,234.071030 1041.378662,169.365585 1041.378662,104.000443 
	C1050.393066,104.000443 1059.541016,104.599701 1068.571899,103.828529 
	C1077.255737,103.086983 1082.093872,105.749168 1086.708130,113.702530 
	C1100.049438,136.698410 1114.830322,158.856079 1128.911621,181.426666 
	C1143.031006,204.058426 1156.993896,226.788010 1170.995728,249.492920 
	C1171.494263,250.301117 1171.678345,251.303131 1172.499023,253.566299 
	C1172.499023,202.976242 1172.499023,153.788971 1172.499023,104.032745 
	C1181.958984,104.032745 1191.561768,104.032745 1201.625977,104.135651 
z"/>
<path fill="#CE9C06" opacity="1.000000" stroke="none" 
	d="
M1413.070190,298.147003 
	C1410.389038,298.438965 1407.710693,298.945862 1405.026001,298.982605 
	C1396.897705,299.093811 1388.766968,299.022827 1380.320557,299.022827 
	C1380.320557,233.937851 1380.320557,169.264511 1380.320557,104.001335 
	C1382.142334,104.001335 1383.913940,104.001373 1385.685669,104.001328 
	C1402.837524,104.000916 1419.990112,103.913300 1437.141235,104.026726 
	C1451.759277,104.123405 1466.119141,105.960754 1479.599609,112.031586 
	C1495.777222,119.317085 1505.076538,132.062134 1507.926636,149.399979 
	C1509.858765,161.152802 1509.875854,172.858932 1506.219727,184.477341 
	C1502.023560,197.811722 1493.980347,207.854126 1482.058594,214.927338 
	C1471.784058,221.023376 1460.636108,224.388550 1448.734985,224.959122 
	C1437.493042,225.498108 1426.233765,225.677155 1414.274780,226.376114 
	C1413.379028,228.043213 1413.027588,229.348648 1413.026855,230.654266 
	C1413.015625,253.151840 1413.047607,275.649414 1413.070190,298.147003 
M1413.564941,132.735672 
	C1413.380737,133.700684 1413.037598,134.665405 1413.035889,135.630753 
	C1413.001343,154.993546 1412.984375,174.356506 1413.048096,193.719147 
	C1413.052734,195.129471 1413.699707,196.537689 1414.977905,198.000366 
	C1426.563477,197.041260 1438.215820,196.569046 1449.716675,194.992477 
	C1462.401367,193.253647 1470.856079,185.970612 1473.306152,173.009033 
	C1476.397705,156.654282 1472.859619,140.495819 1453.290161,134.931671 
	C1440.375488,131.259674 1427.203247,132.050674 1413.564941,132.735672 
z"/>
<path fill="#CE9C06" opacity="1.000000" stroke="none" 
	d="
M484.067780,301.005371 
	C475.617859,299.832275 468.334320,297.053955 461.658234,292.310822 
	C453.878204,286.783447 449.845612,279.074951 447.613068,270.207306 
	C444.701630,258.642944 444.924194,247.112778 450.074463,236.223572 
	C456.128448,223.423492 467.444458,216.830566 480.413055,213.124329 
	C495.060547,208.938278 510.149597,207.667557 525.389099,207.935593 
	C529.764771,208.012527 534.154053,207.316238 539.255005,206.918488 
	C537.529785,197.194717 539.901367,186.580261 531.008850,179.758698 
	C527.224854,176.856003 522.117798,174.885239 517.364075,174.192520 
	C504.629547,172.336823 492.845703,176.729813 481.241211,181.369034 
	C480.787079,181.550583 480.369141,181.820587 479.924652,182.028580 
	C471.776459,185.841614 471.771057,185.843292 467.912170,177.628922 
	C465.841400,173.220932 463.924316,168.734070 461.679443,164.417206 
	C460.450531,162.054062 460.892395,160.963501 463.286804,159.887573 
	C475.762024,154.281754 488.629272,149.946091 502.340576,149.102127 
	C511.023438,148.567688 519.834351,148.295593 528.468323,149.135254 
	C551.798645,151.404160 567.720337,162.551910 570.967407,187.771072 
	C571.573608,192.479080 571.942383,197.252060 571.956055,201.996384 
	C572.043274,232.328476 572.000549,262.660919 572.000610,292.993256 
	C572.000610,294.799042 572.000610,296.604828 572.000610,299.007507 
	C564.428101,299.007507 557.149170,299.202362 549.899475,298.828827 
	C548.586365,298.761169 546.824890,296.571350 546.250549,295.002441 
	C544.478271,290.161224 543.180115,285.146423 541.440613,279.340729 
	C526.675598,298.709869 507.106171,304.013092 484.067780,301.005371 
M508.969452,275.942291 
	C510.055389,275.626892 511.136871,275.295044 512.227966,274.998566 
	C523.722656,271.875458 532.990967,265.743713 535.996765,253.715073 
	C537.945068,245.918594 537.940979,237.634262 538.962708,228.169907 
	C526.353577,229.324997 515.123657,229.554031 504.228638,231.581909 
	C493.818573,233.519531 484.387024,237.866898 481.388123,249.962677 
	C479.180511,258.866852 482.596375,270.472778 490.243103,273.366425 
	C495.730774,275.443024 502.096497,275.199219 508.969452,275.942291 
z"/>
<path fill="#CE9C06" opacity="1.000000" stroke="none" 
	d="
M879.048584,253.213196 
	C880.329712,235.687836 888.741943,223.673492 904.275330,216.499573 
	C915.120178,211.490982 926.571289,209.479111 938.388184,209.011902 
	C946.659912,208.684875 954.935364,208.418777 963.200195,207.963806 
	C965.942078,207.812851 968.656128,207.158661 972.573364,206.549377 
	C971.852051,200.385513 971.786377,193.957794 970.233948,187.911819 
	C967.811462,178.477554 957.639893,174.535706 949.916321,173.929733 
	C935.106750,172.767822 921.871338,177.947769 908.846924,183.773468 
	C904.802124,185.582703 903.508606,183.605057 902.265503,180.830597 
	C899.559937,174.792145 897.035278,168.672623 894.026245,161.625000 
	C897.714600,159.851044 901.625427,157.629623 905.776855,156.034088 
	C921.266663,150.080719 937.364929,147.182831 953.941650,148.098282 
	C963.888367,148.647583 973.731750,150.447739 982.759888,155.064194 
	C995.146606,161.398010 1001.525452,172.089005 1003.903503,185.364761 
	C1004.715393,189.896881 1004.940918,194.583740 1004.953796,199.201248 
	C1005.040649,230.344315 1004.998474,261.487732 1004.998047,292.631042 
	C1004.998047,294.453583 1004.997986,296.276093 1004.997986,298.933960 
	C997.351746,298.933960 989.945801,299.025269 982.548889,298.809387 
	C981.698792,298.784576 980.477844,297.173401 980.146973,296.080383 
	C978.554993,290.820007 977.209351,285.485107 975.562683,279.385681 
	C973.414246,281.326813 971.478516,282.789642 969.886475,284.561310 
	C960.452026,295.060242 948.819580,300.058441 934.649719,301.283569 
	C924.800781,302.135101 915.502136,301.621735 906.281738,298.572906 
	C893.018616,294.187347 885.025330,284.501892 881.215332,271.539307 
	C879.545349,265.857819 879.673096,259.647980 879.048584,253.213196 
M928.133545,234.380920 
	C922.516052,237.007950 918.125610,240.572922 915.616150,246.683701 
	C911.624390,256.403748 914.187378,268.909332 922.847290,272.946167 
	C927.791626,275.251038 933.956177,276.106537 939.468140,275.794037 
	C952.902283,275.032379 965.455994,268.301575 969.597107,255.169678 
	C972.142090,247.099457 971.868530,238.140427 972.927368,229.004807 
	C957.053955,228.999222 942.706360,229.228333 928.133545,234.380920 
z"/>
<path fill="#CE9C06" opacity="1.000000" stroke="none" 
	d="
M699.118958,153.080719 
	C700.234985,152.388992 701.341919,151.114517 702.468567,151.096756 
	C712.435730,150.939682 722.406372,151.005524 732.686646,151.005524 
	C732.686646,200.333817 732.686646,249.371826 732.686646,298.971375 
	C724.764099,298.971375 716.819946,299.205170 708.915649,298.749176 
	C707.542297,298.669952 705.783875,295.859467 705.166992,293.992157 
	C703.807678,289.877594 703.063354,285.559814 701.872925,280.494751 
	C693.568909,292.321777 682.420593,298.301331 669.318420,300.211334 
	C661.850159,301.300049 654.114990,301.329163 646.559265,300.866882 
	C635.105225,300.166016 624.628418,296.380524 616.020935,288.378357 
	C607.951416,280.876373 603.553650,271.052643 603.256042,260.615204 
	C602.261658,225.739212 602.361938,190.832550 601.944885,155.938797 
	C601.902466,152.387207 602.880127,150.837296 606.739685,150.928345 
	C616.219055,151.152008 625.707275,151.001495 635.999207,151.001495 
	C635.999207,152.967209 635.999268,154.712418 635.999268,156.457626 
	C635.999451,186.106461 635.867676,215.756271 636.086365,245.403488 
	C636.145935,253.477493 638.080200,261.417175 643.970642,267.393341 
	C652.053711,275.593933 662.114563,276.002319 672.696594,273.579224 
	C691.030457,269.381042 695.635498,256.651520 697.921204,242.690430 
	C698.823669,237.178192 698.691711,231.496582 699.288452,225.067230 
	C699.690369,223.427673 699.959717,222.613159 699.960754,221.798309 
	C699.987915,200.168091 700.002136,178.537796 699.954163,156.907654 
	C699.951355,155.631409 699.409790,154.356339 699.118958,153.080719 
z"/>
<path fill="#CE9C06" opacity="1.000000" stroke="none" 
	d="
M839.899292,296.005371 
	C831.913330,297.719482 824.385376,300.081390 816.703308,300.802582 
	C807.915894,301.627563 798.897644,301.798279 790.152222,300.776428 
	C780.739258,299.676544 771.419312,297.237000 762.280090,294.611725 
	C758.748901,293.597351 756.305054,290.551849 756.778015,285.762543 
	C757.347473,279.996246 756.939697,274.128235 756.865112,268.305420 
	C756.815308,264.416626 758.039429,263.178986 761.966980,264.933746 
	C777.474426,271.862091 793.513794,277.147644 810.735168,275.791290 
	C816.840820,275.310394 823.218201,273.288300 828.647156,270.413239 
	C836.179626,266.424194 835.480225,252.288010 827.478516,247.311890 
	C819.930786,242.618027 811.914734,238.453247 803.661255,235.170456 
	C791.057434,230.157379 778.247559,225.269333 768.204346,216.165527 
	C763.484924,211.887604 760.422485,204.812424 758.663391,198.437973 
	C754.892151,184.771896 757.767822,171.997711 768.463562,162.103729 
	C775.644958,155.460693 784.517517,151.564301 794.254028,150.044586 
	C799.759644,149.185242 805.313599,148.157425 810.855591,148.096466 
	C829.158264,147.895187 847.026855,150.282578 864.723999,159.267303 
	C861.370178,167.345810 857.929260,175.634171 854.500549,183.893051 
	C845.277100,181.069855 836.224731,177.899902 826.960388,175.574326 
	C817.485840,173.195999 807.971985,172.784500 798.510986,176.751541 
	C794.419189,178.467285 791.859131,180.829636 791.055054,184.950729 
	C790.005188,190.331421 792.051270,194.996674 796.526550,197.673538 
	C802.492004,201.241714 808.956665,203.996628 815.284851,206.932663 
	C826.997437,212.366760 839.124268,217.026474 850.415100,223.218536 
	C862.566101,229.882355 868.634766,248.414902 866.414001,262.550873 
	C864.160828,276.892883 857.320557,287.164185 844.661743,293.826111 
	C843.231567,294.578796 841.747986,295.230042 839.899292,296.005371 
z"/>
<path fill="#CD9B06" opacity="1.000000" stroke="none" 
	d="
M1242.010986,127.000031 
	C1242.004272,119.189423 1242.004272,111.878799 1242.004272,104.008644 
	C1252.902344,104.008644 1263.657837,103.953827 1274.409790,104.120491 
	C1275.205566,104.132835 1276.331665,105.620491 1276.667480,106.633362 
	C1277.066284,107.836227 1276.782837,109.267677 1276.782959,110.600075 
	C1276.784058,161.568771 1276.783936,212.537476 1276.784058,263.506165 
	C1276.784058,265.472260 1276.784058,267.438354 1276.784058,269.997803 
	C1278.964600,269.997803 1280.741333,269.997772 1282.518066,269.997772 
	C1305.837036,269.997833 1329.157227,270.112427 1352.474243,269.898651 
	C1356.988403,269.857269 1358.253174,271.338379 1358.041016,275.634216 
	C1357.729126,281.948242 1357.826416,288.293274 1358.019287,294.616821 
	C1358.113159,297.698944 1357.464478,299.090454 1353.956055,299.079834 
	C1318.151733,298.971313 1282.346436,298.938568 1246.542480,299.104065 
	C1241.382202,299.127899 1242.009277,296.053497 1242.009521,292.880859 
	C1242.014526,237.753906 1242.015747,182.626968 1242.010986,127.000031 
z"/>
<path fill="#FF7E00" opacity="1.000000" stroke="none" 
	d="
M1413.390381,297.852783 
	C1413.047607,275.649414 1413.015625,253.151840 1413.026855,230.654266 
	C1413.027588,229.348648 1413.379028,228.043213 1413.810791,226.413651 
	C1414.036621,248.102768 1414.025757,270.115936 1413.988892,292.129059 
	C1413.985840,293.939026 1413.807495,295.748718 1413.390381,297.852783 
z"/>
<path fill="#BFBF00" opacity="1.000000" stroke="none" 
	d="
M699.068726,153.539642 
	C699.409790,154.356339 699.951355,155.631409 699.954163,156.907654 
	C700.002136,178.537796 699.987915,200.168091 699.960754,221.798309 
	C699.959717,222.613159 699.690369,223.427673 699.356689,224.605225 
	C699.117676,201.311600 699.068054,177.655090 699.068726,153.539642 
z"/>
<path fill="#000000" opacity="1.000000" stroke="none" 
	d="
M84.998161,146.969147 
	C83.146721,138.993134 86.289284,133.135971 91.962624,128.754822 
	C96.120514,125.543961 101.312462,123.167358 106.471153,126.101929 
	C111.053101,128.708405 115.332581,132.088928 119.132904,135.761734 
	C123.265991,139.756134 126.848740,144.363861 130.320389,148.968826 
	C131.221130,150.163589 131.590576,152.813339 130.879318,154.002289 
	C125.144104,163.589462 117.732712,171.574173 107.238632,176.932632 
	C100.522217,169.050934 93.726463,161.254639 87.188850,153.247604 
	C85.941139,151.719437 85.712250,149.359421 84.998161,146.969147 
z"/>
<path fill="#000000" opacity="1.000000" stroke="none" 
	d="
M215.707062,127.007370 
	C227.713913,131.020813 231.678253,136.099945 230.819672,147.478790 
	C230.556519,150.966400 228.904572,154.892197 226.648895,157.575012 
	C221.747208,163.404938 216.046814,168.563339 210.763962,173.904190 
	C200.526321,168.989487 192.883728,161.640945 186.444641,152.922531 
	C184.607834,150.435516 184.768692,148.344604 187.290192,146.099045 
	C192.936951,141.070251 197.979034,135.297409 203.960999,130.737579 
	C206.947723,128.460907 211.458725,128.183945 215.707062,127.007370 
z"/>
<path fill="#000000" opacity="1.000000" stroke="none" 
	d="
M106.750412,238.349945 
	C115.541138,243.811340 121.366943,251.550873 126.841141,259.495911 
	C121.855652,264.883453 117.185875,270.219055 112.198997,275.239716 
	C106.929352,280.545044 100.328682,281.486938 93.543602,279.109222 
	C85.264145,276.207855 81.055016,268.338348 82.123199,261.345825 
	C82.654404,257.868500 84.134796,254.108185 86.327927,251.401199 
	C90.986977,245.650543 96.393532,240.505508 101.851303,234.734009 
	C103.406006,235.838028 104.968597,236.947662 106.750412,238.349945 
z"/>
<path fill="#000000" opacity="1.000000" stroke="none" 
	d="
M142.798340,217.315582 
	C139.035385,213.118301 135.474457,209.221390 130.783279,204.087601 
	C139.987274,196.359802 149.091675,188.715637 158.234863,181.038910 
	C164.072479,187.950836 171.536560,196.788559 179.999588,206.809082 
	C177.934448,208.439606 175.673737,209.866974 173.855286,211.726761 
	C168.210922,217.499329 162.726608,223.428680 157.197586,229.313553 
	C155.441071,231.183136 154.246796,231.932007 152.322205,229.050781 
	C149.603012,224.979950 146.143448,221.403671 142.798340,217.315582 
z"/>
<path fill="#000000" opacity="1.000000" stroke="none" 
	d="
M200.875793,282.265259 
	C195.713181,277.142761 190.791565,272.322021 185.995712,267.379211 
	C185.581039,266.951874 185.657623,265.466370 186.079193,264.896179 
	C192.628433,256.037537 199.272354,247.248917 206.575699,237.538239 
	C213.769363,247.199219 223.778320,252.819916 226.648117,264.109894 
	C228.048782,269.620148 225.221298,277.856171 220.198196,281.174225 
	C213.946854,285.303680 208.442078,287.146698 200.875793,282.265259 
z"/>
<path fill="#000000" opacity="1.000000" stroke="none" 
	d="
M206.744507,194.732910 
	C211.234283,188.454575 216.103302,187.326401 223.214890,190.399673 
	C232.696732,194.497253 242.794296,197.169952 252.227188,200.320984 
	C237.862503,207.083115 223.201370,213.984818 208.048767,221.117859 
	C204.870743,217.483109 200.779968,213.020172 197.020493,208.293747 
	C196.388794,207.499557 196.666718,205.112213 197.422852,204.238861 
	C200.244614,200.979568 203.440277,198.043976 206.744507,194.732910 
z"/>
<path fill="#000000" opacity="1.000000" stroke="none" 
	d="
M154.767654,290.378662 
	C150.316910,280.416504 146.052567,270.795349 141.791367,261.181274 
	C145.565598,257.326630 149.621002,253.184799 154.058914,248.652328 
	C157.723358,252.732803 161.315994,256.714661 164.872879,260.728180 
	C165.168976,261.062256 165.090439,261.837860 165.410355,262.025238 
	C172.482086,266.167725 170.232956,270.890137 167.221237,276.682526 
	C163.608261,283.631317 161.304794,291.260986 158.097961,299.455139 
	C156.887802,296.092651 155.920929,293.406128 154.767654,290.378662 
z"/>
<path fill="#000000" opacity="1.000000" stroke="none" 
	d="
M195.695251,232.715088 
	C189.249969,240.863022 183.098373,248.799911 176.768616,256.966675 
	C172.196014,251.501480 167.513321,245.904709 162.693436,240.143951 
	C170.794342,231.523056 178.680267,223.130966 186.911636,214.371246 
	C191.420105,219.651581 195.614166,224.563690 200.020035,229.723877 
	C198.628174,230.683807 197.308548,231.593933 195.695251,232.715088 
z"/>
<path fill="#000000" opacity="1.000000" stroke="none" 
	d="
M106.911972,193.875916 
	C109.706596,197.413742 112.473312,200.571411 115.321587,203.822144 
	C110.559456,209.036835 106.114265,214.076233 101.423157,218.875244 
	C100.624886,219.691864 98.573410,220.047180 97.437798,219.650696 
	C87.490501,216.177536 77.614983,212.497971 67.736038,208.831497 
	C67.008659,208.561523 66.420242,207.917160 66.115898,207.697968 
	C77.524628,202.868210 89.078468,197.852798 100.764191,193.166214 
	C102.483543,192.476654 104.828537,193.347076 106.911972,193.875916 
z"/>
<path fill="#000000" opacity="1.000000" stroke="none" 
	d="
M183.673737,193.356064 
	C177.320145,185.837997 171.169815,178.610718 164.500977,170.774155 
	C168.362000,166.567688 172.219131,162.365463 175.508667,158.781616 
	C184.110825,167.087265 192.456726,175.145477 201.094376,183.485397 
	C197.299942,187.645355 192.671310,192.719864 187.626160,198.251022 
	C186.207245,196.508530 185.042130,195.077698 183.673737,193.356064 
z"/>
<path fill="#000000" opacity="1.000000" stroke="none" 
	d="
M152.205170,157.706055 
	C150.290085,155.436569 148.549637,153.476120 146.986465,151.383270 
	C146.455261,150.672073 145.911224,149.472733 146.151184,148.757507 
	C150.105835,136.969864 154.184906,125.223953 158.222855,113.506996 
	C162.191177,124.838272 166.165649,136.187088 170.226379,147.782166 
	C165.929871,152.159470 161.202377,156.975876 156.104309,162.169815 
	C154.845169,160.720718 153.647186,159.341995 152.205170,157.706055 
z"/>
<path fill="#000000" opacity="1.000000" stroke="none" 
	d="
M127.760696,241.265625 
	C121.940102,236.184082 116.366371,231.356750 110.724205,226.470154 
	C114.912910,222.394562 119.429535,217.999878 123.890175,213.659698 
	C131.225494,222.126068 138.871124,230.950607 146.515503,239.773682 
	C142.485626,243.807877 138.983368,247.313889 135.404907,250.896164 
	C132.898422,247.719131 130.453003,244.619492 127.760696,241.265625 
z"/>
<path fill="#000000" opacity="1.000000" stroke="none" 
	d="
M148.130219,169.643311 
	C148.235138,170.445618 148.304886,171.158752 147.982605,171.487106 
	C139.936478,179.684921 131.849045,187.842194 123.849747,195.924988 
	C120.709732,192.500977 117.822479,189.352585 114.604713,185.843781 
	C125.483864,179.848938 133.959824,171.721100 140.388153,160.607407 
	C143.100372,163.767746 145.506363,166.571289 148.130219,169.643311 
z"/>
<path fill="#000000" opacity="1.000000" stroke="none" 
	d="
M1414.054932,132.086227 
	C1427.203247,132.050674 1440.375488,131.259674 1453.290161,134.931671 
	C1472.859619,140.495819 1476.397705,156.654282 1473.306152,173.009033 
	C1470.856079,185.970612 1462.401367,193.253647 1449.716675,194.992477 
	C1438.215820,196.569046 1426.563477,197.041260 1414.492432,197.510422 
	C1414.023071,175.375732 1414.039062,153.730972 1414.054932,132.086227 
z"/>
<path fill="#FF8000" opacity="1.000000" stroke="none" 
	d="
M1413.809937,132.410950 
	C1414.039062,153.730972 1414.023071,175.375732 1414.027588,197.483688 
	C1413.699707,196.537689 1413.052734,195.129471 1413.048096,193.719147 
	C1412.984375,174.356506 1413.001343,154.993546 1413.035889,135.630753 
	C1413.037598,134.665405 1413.380737,133.700684 1413.809937,132.410950 
z"/>
<path fill="#000000" opacity="1.000000" stroke="none" 
	d="
M508.519989,275.966431 
	C502.096497,275.199219 495.730774,275.443024 490.243103,273.366425 
	C482.596375,270.472778 479.180511,258.866852 481.388123,249.962677 
	C484.387024,237.866898 493.818573,233.519531 504.228638,231.581909 
	C515.123657,229.554031 526.353577,229.324997 538.962708,228.169907 
	C537.940979,237.634262 537.945068,245.918594 535.996765,253.715073 
	C532.990967,265.743713 523.722656,271.875458 512.227966,274.998566 
	C511.136871,275.295044 510.055389,275.626892 508.519989,275.966431 
z"/>
<path fill="#000000" opacity="1.000000" stroke="none" 
	d="
M928.496460,234.224579 
	C942.706360,229.228333 957.053955,228.999222 972.927368,229.004807 
	C971.868530,238.140427 972.142090,247.099457 969.597107,255.169678 
	C965.455994,268.301575 952.902283,275.032379 939.468140,275.794037 
	C933.956177,276.106537 927.791626,275.251038 922.847290,272.946167 
	C914.187378,268.909332 911.624390,256.403748 915.616150,246.683701 
	C918.125610,240.572922 922.516052,237.007950 928.496460,234.224579 
z"/>
</svg>