<svg version="1.1" id="Layer_1" xmlns="http://www.w3.org/2000/svg" xmlns:xlink="http://www.w3.org/1999/xlink" x="0px" y="0px"
	 width="100%" viewBox="0 0 468 544" enable-background="new 0 0 468 544" xml:space="preserve">
<path fill="#000000" opacity="1.000000" stroke="none" 
	d="
M399.000000,0.999998 
	C422.326874,1.000000 445.653717,1.000000 468.985443,1.000000 
	C468.990295,182.276550 468.990295,363.553101 468.990295,544.914795 
	C313.100098,544.914795 157.200119,544.914795 1.000000,544.914795 
	C1.000000,386.310822 1.000000,227.621445 1.314511,68.152206 
	C2.787097,69.976791 4.173142,72.505569 5.066923,75.197784 
	C11.784994,95.433708 19.046743,115.518845 24.898094,136.005417 
	C32.503189,162.632111 37.709198,189.821457 40.080147,217.473999 
	C41.470924,233.694717 43.692852,249.925720 43.751274,266.158539 
	C43.824326,286.456757 42.329853,306.779633 40.985859,327.056946 
	C40.174133,339.303741 38.946877,351.585236 36.857010,363.669647 
	C34.148785,379.329620 30.549036,394.843384 27.057301,410.358032 
	C21.369558,435.629974 13.579298,460.274597 4.280922,484.443817 
	C3.078249,487.569916 2.887647,490.081848 5.953036,492.534790 
	C8.475242,494.553070 10.198845,497.534851 12.506393,499.861511 
	C27.048695,514.524109 41.655220,529.122925 56.206902,543.709167 
	C171.939072,500.681610 287.822266,494.797302 404.010254,539.900452 
	C405.377106,538.649841 406.759613,537.664490 407.790710,536.393921 
	C412.827576,530.187378 417.682220,523.831787 422.767059,517.665588 
	C431.312683,507.302521 439.986908,497.045441 448.599457,486.737457 
	C450.606262,484.335571 450.750824,482.015625 449.476929,478.932800 
	C444.545929,466.999939 439.534363,455.064331 435.414764,442.839294 
	C424.837830,411.451935 416.166138,379.543427 411.961090,346.600891 
	C409.700500,328.891296 406.996735,311.156036 406.244232,293.358307 
	C405.417542,273.806061 405.938751,254.128983 407.106049,234.579941 
	C408.208191,216.122559 410.148285,197.636597 413.115540,179.390198 
	C416.420135,159.069901 420.553619,138.812866 425.703217,118.884102 
	C430.951874,98.571785 437.902283,78.700439 443.998840,58.603020 
	C444.388000,57.320129 444.388733,55.302143 443.639862,54.389275 
	C437.816895,47.290985 431.838196,40.315990 425.767059,33.426735 
	C417.271729,23.786581 408.623383,14.281198 400.143433,4.627721 
	C399.377869,3.756171 399.363342,2.224896 399.000000,0.999998 
z"/>
<path fill="#F5FBFE" opacity="1.000000" stroke="none" 
	d="
M398.600006,0.999998 
	C399.363342,2.224896 399.377869,3.756171 400.143433,4.627721 
	C408.623383,14.281198 417.271729,23.786581 425.767059,33.426735 
	C431.838196,40.315990 437.816895,47.290985 443.639862,54.389275 
	C444.388733,55.302143 444.388000,57.320129 443.998840,58.603020 
	C437.902283,78.700439 430.951874,98.571785 425.703217,118.884102 
	C420.553619,138.812866 416.420135,159.069901 413.115540,179.390198 
	C410.148285,197.636597 408.208191,216.122559 407.106049,234.579941 
	C405.938751,254.128983 405.417542,273.806061 406.244232,293.358307 
	C406.996735,311.156036 409.700500,328.891296 411.961090,346.600891 
	C416.166138,379.543427 424.837830,411.451935 435.414764,442.839294 
	C439.534363,455.064331 444.545929,466.999939 449.476929,478.932800 
	C450.750824,482.015625 450.606262,484.335571 448.599457,486.737457 
	C439.986908,497.045441 431.312683,507.302521 422.767059,517.665588 
	C417.682220,523.831787 412.827576,530.187378 407.790710,536.393921 
	C406.759613,537.664490 405.377106,538.649841 404.010254,539.900452 
	C287.822266,494.797302 171.939072,500.681610 56.206902,543.709167 
	C41.655220,529.122925 27.048695,514.524109 12.506393,499.861511 
	C10.198845,497.534851 8.475242,494.553070 5.953036,492.534790 
	C2.887647,490.081848 3.078249,487.569916 4.280922,484.443817 
	C13.579298,460.274597 21.369558,435.629974 27.057301,410.358032 
	C30.549036,394.843384 34.148785,379.329620 36.857010,363.669647 
	C38.946877,351.585236 40.174133,339.303741 40.985859,327.056946 
	C42.329853,306.779633 43.824326,286.456757 43.751274,266.158539 
	C43.692852,249.925720 41.470924,233.694717 40.080147,217.473999 
	C37.709198,189.821457 32.503189,162.632111 24.898094,136.005417 
	C19.046743,115.518845 11.784994,95.433708 5.066923,75.197784 
	C4.173142,72.505569 2.787097,69.976791 1.314511,67.686157 
	C1.000000,66.933327 1.000000,65.866661 1.268740,64.707031 
	C2.990423,63.275703 4.648100,62.100479 5.864735,60.573784 
	C18.425613,44.811680 30.957769,29.026146 43.394463,13.166008 
	C46.455849,9.261916 49.141575,5.063246 52.000000,1.000000 
	C52.750000,1.000000 53.500000,1.000000 54.311363,1.310619 
	C54.988743,2.095590 55.534496,2.774078 56.231236,3.013885 
	C67.992241,7.061844 79.658867,11.435748 91.572037,14.978756 
	C114.018295,21.654327 136.843552,26.782934 160.197678,29.027277 
	C176.888962,30.631315 193.614258,32.484955 210.352768,32.823708 
	C226.858551,33.157749 243.406021,31.844252 259.923309,31.016356 
	C267.628693,30.630140 275.374023,30.111015 282.981537,28.900148 
	C297.589905,26.574966 312.275269,24.386114 326.633942,20.919634 
	C349.102631,15.495230 371.329651,9.068338 393.635925,2.981354 
	C394.226868,2.820105 394.551300,1.682368 395.000000,1.000004 
	C396.066681,1.000000 397.133331,1.000000 398.600006,0.999998 
M173.294785,504.902802 
	C174.769302,504.639954 176.235336,504.308807 177.719604,504.124390 
	C205.543930,500.666595 233.473587,499.478363 261.451752,501.235687 
	C275.383728,502.110748 289.314240,503.581909 303.133575,505.563324 
	C335.499023,510.203857 367.023804,518.415344 397.830933,529.329895 
	C401.081940,530.481689 402.888916,529.919312 404.989319,527.256042 
	C416.230591,513.002075 427.516785,498.777039 439.133575,484.830292 
	C441.846436,481.573334 441.810394,479.134338 440.331970,475.531158 
	C410.842010,403.658966 395.518250,329.124420 397.771362,251.173889 
	C398.697510,219.131531 402.379669,187.481903 408.690613,156.103119 
	C415.000275,124.730789 423.904083,94.088516 434.999176,64.082222 
	C435.986694,61.411503 436.361359,59.266914 434.181458,56.808578 
	C421.471863,42.475594 408.874420,28.042160 396.355652,13.542009 
	C394.546875,11.446913 393.002930,11.088198 390.370789,11.916734 
	C344.377014,26.394543 297.552094,36.604267 249.342926,40.299942 
	C216.652405,42.805969 184.113739,42.102772 151.684586,37.678589 
	C119.924545,33.345695 89.024963,25.438921 59.204395,13.567344 
	C56.252811,12.392318 54.498337,12.788161 52.481110,15.412889 
	C39.389011,32.447746 26.163591,49.381351 12.832670,66.230103 
	C10.907621,68.663139 10.754632,70.623734 11.767103,73.464745 
	C16.848009,87.721809 21.985153,101.970886 26.548378,116.398041 
	C38.425911,153.950180 46.663105,192.356308 49.582645,231.615341 
	C51.368778,255.633453 51.828800,279.888031 50.756470,303.941528 
	C49.714760,327.308197 46.774212,350.679901 43.204201,373.823639 
	C37.511230,410.730255 27.232010,446.566895 14.969801,481.815735 
	C14.004468,484.590637 14.420341,486.285065 16.444036,488.360870 
	C29.353674,501.603058 42.105682,514.998779 54.938034,528.316467 
	C60.967583,534.574097 60.963623,534.458923 69.184845,531.393311 
	C102.649918,518.914368 136.987625,509.820892 173.294785,504.902802 
z"/>
<path fill="#000000" opacity="1.000000" stroke="none" 
	d="
M394.531342,1.000004 
	C394.551300,1.682368 394.226868,2.820105 393.635925,2.981354 
	C371.329651,9.068338 349.102631,15.495230 326.633942,20.919634 
	C312.275269,24.386114 297.589905,26.574966 282.981537,28.900148 
	C275.374023,30.111015 267.628693,30.630140 259.923309,31.016356 
	C243.406021,31.844252 226.858551,33.157749 210.352768,32.823708 
	C193.614258,32.484955 176.888962,30.631315 160.197678,29.027277 
	C136.843552,26.782934 114.018295,21.654327 91.572037,14.978756 
	C79.658867,11.435748 67.992241,7.061844 56.231236,3.013885 
	C55.534496,2.774078 54.988743,2.095590 54.686363,1.310619 
	C168.020889,1.000000 281.041779,1.000000 394.531342,1.000004 
z"/>
<path fill="#000000" opacity="1.000000" stroke="none" 
	d="
M51.531342,1.000000 
	C49.141575,5.063246 46.455849,9.261916 43.394463,13.166008 
	C30.957769,29.026146 18.425613,44.811680 5.864735,60.573784 
	C4.648100,62.100479 2.990423,63.275703 1.268740,64.307037 
	C1.000000,43.080914 1.000000,22.161827 1.000000,1.000000 
	C17.686777,1.000000 34.374729,1.000000 51.531342,1.000000 
z"/>
<path fill="#53B1F0" opacity="1.000000" stroke="none" 
	d="
M172.852249,504.940063 
	C136.987625,509.820892 102.649918,518.914368 69.184845,531.393311 
	C60.963623,534.458923 60.967583,534.574097 54.938034,528.316467 
	C42.105682,514.998779 29.353674,501.603058 16.444036,488.360870 
	C14.420341,486.285065 14.004468,484.590637 14.969801,481.815735 
	C27.232010,446.566895 37.511230,410.730255 43.204201,373.823639 
	C46.774212,350.679901 49.714760,327.308197 50.756470,303.941528 
	C51.828800,279.888031 51.368778,255.633453 49.582645,231.615341 
	C46.663105,192.356308 38.425911,153.950180 26.548378,116.398041 
	C21.985153,101.970886 16.848009,87.721809 11.767103,73.464745 
	C10.754632,70.623734 10.907621,68.663139 12.832670,66.230103 
	C26.163591,49.381351 39.389011,32.447746 52.481110,15.412889 
	C54.498337,12.788161 56.252811,12.392318 59.204395,13.567344 
	C89.024963,25.438921 119.924545,33.345695 151.684586,37.678589 
	C184.113739,42.102772 216.652405,42.805969 249.342926,40.299942 
	C297.552094,36.604267 344.377014,26.394543 390.370789,11.916734 
	C393.002930,11.088198 394.546875,11.446913 396.355652,13.542009 
	C408.874420,28.042160 421.471863,42.475594 434.181458,56.808578 
	C436.361359,59.266914 435.986694,61.411503 434.999176,64.082222 
	C423.904083,94.088516 415.000275,124.730789 408.690613,156.103119 
	C402.379669,187.481903 398.697510,219.131531 397.771362,251.173889 
	C395.518250,329.124420 410.842010,403.658966 440.331970,475.531158 
	C441.810394,479.134338 441.846436,481.573334 439.133575,484.830292 
	C427.516785,498.777039 416.230591,513.002075 404.989319,527.256042 
	C402.888916,529.919312 401.081940,530.481689 397.830933,529.329895 
	C367.023804,518.415344 335.499023,510.203857 303.133575,505.563324 
	C289.314240,503.581909 275.383728,502.110748 261.451752,501.235687 
	C233.473587,499.478363 205.543930,500.666595 177.719604,504.124390 
	C176.235336,504.308807 174.769302,504.639954 172.852249,504.940063 
M92.860138,443.787231 
	C92.784637,443.742859 92.709137,443.698486 92.633636,443.654114 
	C92.771347,443.758606 92.909058,443.863129 93.007217,444.653534 
	C99.390999,449.643158 105.463562,455.115479 112.245308,459.487885 
	C119.152435,463.941101 126.994492,463.472260 134.280823,460.068634 
	C138.437912,458.126740 142.370239,455.414276 145.852371,452.409729 
	C148.571442,450.063568 150.911758,449.456512 154.587585,449.420288 
	C160.178925,449.365204 165.780807,447.406067 171.311462,445.994171 
	C172.952255,445.575317 174.368851,444.278320 175.959366,443.341766 
	C176.634918,444.331787 177.014694,444.861450 177.367111,445.408783 
	C182.855469,453.932281 188.798355,456.502136 196.482132,453.669617 
	C206.318726,450.043488 211.555664,441.690125 210.346558,432.266022 
	C209.866959,428.527893 210.267838,424.676849 210.267838,422.253204 
	C213.240936,423.058014 216.440979,425.084412 218.497253,424.259521 
	C224.260147,421.947876 227.757080,416.824432 230.749283,411.353119 
	C228.898468,411.414276 227.455826,412.013062 226.034012,412.657806 
	C216.352203,417.047943 210.097992,413.399139 208.898117,402.913727 
	C208.516815,399.581757 209.547302,398.347870 212.781158,397.475067 
	C235.428680,391.362946 253.637375,378.466156 268.352875,360.406250 
	C271.152985,356.969757 273.859283,353.456818 276.671722,349.899628 
	C278.296936,350.920959 279.587128,351.731720 281.280640,352.795959 
	C282.317810,347.592285 283.225555,343.037933 283.873627,339.786316 
	C278.904449,344.128601 273.185242,348.673340 267.987762,353.752014 
	C251.650085,369.716187 233.998825,383.645538 212.402512,391.976715 
	C205.402145,394.677185 201.501007,401.680847 202.785828,409.349945 
	C204.019318,416.712708 206.113708,423.926819 207.596863,431.253418 
	C209.147217,438.911804 205.018341,444.457153 197.858063,443.998016 
	C195.054138,443.818176 191.697647,442.822021 189.782959,440.968353 
	C188.011398,439.253265 187.829697,435.895996 186.852890,432.978302 
	C179.926758,437.858551 172.592072,441.335419 163.885254,436.374725 
	C164.215302,435.261353 164.451843,434.309540 164.777588,433.389313 
	C167.123215,426.762360 164.296249,422.150970 157.370209,422.412384 
	C148.728409,422.738525 141.098755,426.135712 135.429535,432.782532 
	C133.800919,434.692017 132.180466,438.628998 133.076874,440.172668 
	C134.262177,442.213806 137.829330,443.160675 140.555435,443.932983 
	C143.039139,444.636658 145.766754,444.479340 148.386856,444.701569 
	C138.544098,451.700989 127.788849,452.350525 116.996498,450.475739 
	C108.864502,449.063171 100.978409,446.234955 92.860138,443.787231 
M287.924622,402.404205 
	C287.809784,402.738464 287.694946,403.072754 287.703003,404.111816 
	C293.563660,417.981628 299.490234,419.941284 312.339508,412.245789 
	C313.194275,411.733887 314.128235,411.269073 314.814758,410.574249 
	C325.331665,399.930328 336.901642,390.108276 346.100830,378.421692 
	C374.379089,342.497284 384.997650,300.292755 386.774628,255.455688 
	C387.641571,233.580307 385.219757,211.917908 380.158173,190.614868 
	C379.126129,186.271378 379.675171,183.238144 383.038940,180.110336 
	C385.893982,177.455551 388.304565,174.095093 390.141571,170.637634 
	C391.949219,167.235519 389.684570,161.991806 385.837860,160.162827 
	C384.445801,159.500977 381.609711,159.599686 380.729034,160.551239 
	C377.669434,163.857132 378.505829,167.562180 380.996643,170.995911 
	C381.094330,171.130554 381.211639,171.258774 381.275635,171.408829 
	C381.969818,173.036255 383.656647,175.567963 383.153625,176.127304 
	C381.693085,177.751572 379.353455,178.585358 376.750854,180.077820 
	C373.427032,166.921402 370.922546,154.898926 371.336548,142.535156 
	C371.821869,142.428192 372.307190,142.321213 372.792511,142.214233 
	C374.104889,143.724182 375.417297,145.234116 376.729706,146.744049 
	C377.257233,146.427719 377.784760,146.111389 378.312286,145.795044 
	C374.096069,135.788559 368.557037,126.438263 363.108063,116.989212 
	C362.456451,121.964966 363.146729,126.801796 362.314087,131.360458 
	C360.527710,141.140671 358.045471,150.799408 355.678558,160.466354 
	C353.520203,169.281479 355.171234,174.701233 362.534973,180.060715 
	C365.315796,182.084686 368.696198,183.265778 371.629242,185.108185 
	C372.984680,185.959610 374.669342,187.334747 374.929871,188.713364 
	C376.779877,198.502350 379.125061,208.298538 379.787109,218.194473 
	C383.384796,271.970032 369.274963,320.988892 338.833008,365.322693 
	C329.374207,379.097870 318.499054,391.727051 305.327118,402.146149 
	C297.797028,408.102478 294.609985,408.037201 287.924622,402.404205 
M316.738953,341.317413 
	C316.929047,339.431854 317.553741,337.468475 317.232513,335.674469 
	C315.969971,328.623444 318.983185,323.262939 323.858307,318.841919 
	C328.683441,314.466217 333.906128,315.509064 337.066162,321.285950 
	C338.324036,323.585449 338.936981,326.237885 339.841766,328.730255 
	C341.370270,332.940674 343.981750,334.371796 347.396027,331.717194 
	C350.494629,329.307983 353.843201,325.922455 354.814453,322.350830 
	C356.715424,315.360168 357.836243,307.940308 357.838989,300.697540 
	C357.844055,287.291473 356.812195,273.885040 356.194702,260.086792 
	C356.421509,260.066925 357.533875,259.834808 358.630157,259.894989 
	C367.032013,260.356293 370.218506,257.775757 369.822479,249.453781 
	C369.405701,240.696671 368.456970,231.931183 367.131531,223.262497 
	C366.201080,217.177383 363.244843,210.998505 370.739227,208.306870 
	C368.881561,203.635696 367.301300,199.662125 365.547913,195.253204 
	C362.174683,200.653152 359.365234,207.097702 351.116394,205.044876 
	C351.867737,211.172134 354.752106,214.128387 359.655609,215.246002 
	C361.193695,215.596588 363.714142,217.389145 363.616241,218.284607 
	C362.521942,228.294205 361.214661,238.297562 359.336914,248.183334 
	C359.095428,249.454712 355.349060,250.310974 353.107910,250.737717 
	C352.666504,250.821747 351.609406,248.073700 350.960846,246.577759 
	C349.899628,244.129883 349.203278,239.727570 347.886017,239.546448 
	C344.771973,239.118317 340.791901,239.839233 338.227081,241.625122 
	C332.672272,245.492996 330.827637,258.832977 334.246826,264.711548 
	C336.017456,267.755737 338.489471,268.773315 341.830658,267.655609 
	C345.109680,266.558685 345.043030,264.476776 344.596832,261.372437 
	C344.319977,259.446350 346.009918,255.891556 347.611725,255.328461 
	C350.714630,254.237656 351.777679,257.334290 351.938110,259.931335 
	C352.408966,267.553955 353.837128,275.363098 352.735016,282.778900 
	C351.134766,293.546539 347.753204,304.062775 344.842529,314.606506 
	C344.453735,316.014893 342.513367,317.550568 341.031433,317.889252 
	C340.168274,318.086517 338.598358,316.162292 337.685852,314.939331 
	C336.398560,313.213989 335.444061,311.242859 334.314850,309.396667 
	C330.691010,303.471924 325.673981,302.473328 320.069092,306.545166 
	C313.407745,311.384491 310.632019,319.157471 312.711975,327.261597 
	C313.869385,331.771240 315.085266,336.265930 316.738953,341.317413 
M178.913986,211.406616 
	C182.051758,208.670135 185.312073,206.057434 188.264847,203.134079 
	C189.389954,202.020203 189.809357,200.193527 190.550369,198.691696 
	C188.913239,198.912201 187.172882,198.851791 185.659058,199.407944 
	C181.729355,200.851562 178.176758,201.087708 173.802353,196.886261 
	C178.280365,195.445877 181.569244,194.387985 184.858124,193.330093 
	C184.925430,192.848999 184.992722,192.367889 185.060013,191.886795 
	C183.009033,191.598038 180.598373,190.494614 178.988708,191.205353 
	C176.365906,192.363403 172.105515,195.142212 172.372025,196.463196 
	C173.033936,199.743866 175.862106,202.587479 178.262909,206.289154 
	C174.876083,208.996933 170.414337,212.564133 165.622833,216.394958 
	C161.866913,212.507462 158.386734,208.933319 154.942551,205.324829 
	C153.794632,204.122116 152.764236,202.808060 151.636658,201.584961 
	C147.635757,197.245010 147.023376,192.207031 148.403091,186.682999 
	C148.791550,185.127747 148.855759,183.491516 149.220078,180.755585 
	C142.322571,188.912155 142.249985,194.824738 148.022659,202.936844 
	C151.181320,207.375580 150.922119,209.096161 145.928162,211.112915 
	C142.426300,212.527115 138.638550,213.457687 134.891266,213.986954 
	C129.376221,214.765900 123.783485,214.994629 116.572861,215.595245 
	C122.042046,219.560669 126.402756,222.660355 130.686478,225.863022 
	C132.121246,226.935699 134.262878,228.105255 134.521881,229.516708 
	C135.367004,234.122192 138.755783,235.553162 142.319138,237.088364 
	C144.524246,238.038361 146.669052,239.128311 149.561905,240.496414 
	C143.035385,243.858902 140.237122,248.400146 140.970612,255.068176 
	C142.066956,265.034943 150.063248,273.537140 158.064926,272.637909 
	C167.694458,271.555725 175.888138,267.610168 182.290131,260.116150 
	C187.934570,253.508896 185.844223,242.847031 177.963882,238.799835 
	C174.503952,237.022903 171.509949,237.727905 170.225906,241.351990 
	C169.496857,243.409698 169.382462,246.586945 170.516647,248.160675 
	C171.760803,249.887009 174.727219,250.432297 177.009491,251.322067 
	C177.982513,251.701401 179.844177,251.361679 180.039886,251.852264 
	C180.457123,252.898102 180.312210,254.367462 179.908752,255.487122 
	C179.478836,256.680206 178.484818,257.670013 177.153900,259.589783 
	C172.411865,254.675842 167.609329,250.330048 163.608963,245.341064 
	C160.747421,241.772369 162.129593,238.747467 165.525101,236.813828 
	C167.934219,235.441910 170.986664,233.352142 171.486084,231.083878 
	C171.857162,229.398483 168.619003,226.892075 166.929794,224.798676 
	C166.528061,224.300797 165.891876,223.992111 165.025162,223.342987 
	C169.570480,219.448257 173.981125,215.668945 178.913986,211.406616 
M205.431702,458.037048 
	C200.556290,459.036255 195.717010,460.309204 190.795471,460.958923 
	C185.701920,461.631317 180.532669,461.819519 175.388870,461.996155 
	C170.599091,462.160645 165.799225,462.031281 161.003784,462.031281 
	C179.724777,466.943848 198.474838,467.809082 217.142548,462.640320 
	C245.991699,454.652466 262.766479,432.811371 262.199524,404.989960 
	C262.060883,398.186798 259.905884,394.594543 251.325333,391.482330 
	C246.097275,389.586029 241.708038,391.748749 240.940247,395.982086 
	C240.005692,401.134827 243.367569,405.821320 248.726074,406.051788 
	C251.679337,406.178802 254.679977,405.204437 258.091400,404.657288 
	C250.015030,431.549377 233.205841,449.621368 205.431702,458.037048 
M206.467453,268.688751 
	C207.234467,265.947937 207.187607,262.401886 208.937363,260.633392 
	C212.614883,256.916504 217.211792,254.100204 221.477539,250.977402 
	C224.496414,248.767380 227.591171,246.661041 230.652054,244.508438 
	C231.184082,244.964874 231.716095,245.421310 232.248123,245.877762 
	C231.438080,247.190765 230.597473,248.486069 229.824341,249.820465 
	C228.249680,252.538315 226.711411,255.277237 225.158142,258.007477 
	C227.795624,259.377899 230.437332,260.740326 233.064133,262.130951 
	C233.333862,262.273712 233.514374,262.585052 234.431717,263.548767 
	C233.240021,266.129120 232.454071,269.534821 230.434189,271.875946 
	C224.985687,278.190918 218.512115,273.900269 212.199356,272.434296 
	C212.600464,273.980011 213.047836,275.022034 213.818634,275.691895 
	C222.357346,283.112305 236.137283,278.568207 237.769211,267.368561 
	C238.714417,260.881775 238.408096,254.104416 237.803513,247.537125 
	C237.384079,242.981155 238.963013,241.025436 242.936859,239.463623 
	C249.992874,236.690414 256.846924,233.403305 263.284424,230.553024 
	C257.875275,225.639145 252.651779,220.921097 247.459610,216.168839 
	C243.028809,212.113464 238.864761,212.878632 236.003525,219.035202 
	C234.977524,221.242859 235.014587,224.793640 236.147949,226.866913 
	C236.946732,228.328186 240.388702,228.698608 242.697708,228.853622 
	C244.192108,228.953964 245.788635,227.276688 247.308243,227.327515 
	C248.920944,227.381470 250.496826,228.536804 252.088776,229.211136 
	C251.177032,230.468567 250.501114,232.507904 249.317749,232.864822 
	C234.278641,237.400757 221.119537,245.443451 208.371552,254.309021 
	C207.349503,255.019791 206.220642,255.576996 205.142990,256.204651 
	C202.367035,252.852722 200.722015,247.548721 195.489120,250.144821 
	C193.364197,251.199005 191.180344,254.874283 191.318069,257.222321 
	C191.692368,263.602631 197.481125,261.589600 201.857986,262.285034 
	C203.641449,274.253296 193.099228,279.359070 188.824310,287.655853 
	C186.848755,283.194977 185.275146,279.017365 183.176788,275.122467 
	C181.771240,272.513519 179.700882,272.172424 178.461868,274.465271 
	C180.508240,279.093597 182.787857,283.003479 183.946487,287.221313 
	C185.099106,291.417206 185.125610,295.922485 185.605347,299.951569 
	C189.993042,293.939697 194.553665,287.960297 198.805008,281.768555 
	C201.509857,277.829132 203.755676,273.574585 206.467453,268.688751 
M204.482025,178.959183 
	C202.370087,170.138519 200.314697,161.303558 198.091568,152.511017 
	C197.712906,151.013428 196.615570,149.697556 195.850250,148.297729 
	C194.962189,149.749634 193.323685,151.193069 193.307159,152.654831 
	C193.194962,162.576599 194.565842,172.260773 199.943253,180.892410 
	C204.300339,187.886246 206.471375,188.296356 213.511337,183.993896 
	C222.270218,178.640854 233.555145,184.267609 235.110031,194.391190 
	C236.818695,205.515854 230.255203,211.820999 221.584320,217.022034 
	C218.300018,218.992050 216.003616,218.340195 213.853165,214.842850 
	C207.928650,205.207718 201.665070,195.779343 195.431717,186.337784 
	C194.549759,185.001892 193.088577,184.048401 191.895477,182.917908 
	C191.452209,183.330078 191.008942,183.742264 190.565659,184.154434 
	C194.080948,189.925079 197.574112,195.709366 201.117126,201.462936 
	C205.565887,208.687378 210.021881,215.907806 214.535675,223.091690 
	C220.736069,232.959839 214.385269,245.205017 203.317062,243.206573 
	C200.268478,242.656158 197.036255,243.122894 193.888290,243.122894 
	C193.923569,243.579987 193.958862,244.037064 193.994141,244.494156 
	C202.210373,246.392349 210.434067,247.633636 217.859497,241.700134 
	C224.202911,236.631226 222.213028,230.176468 220.180756,223.641922 
	C222.059998,222.229767 223.934540,220.875473 225.750336,219.446564 
	C231.344482,215.044312 236.056488,209.904678 238.049896,202.896896 
	C240.408371,194.605743 239.289505,186.918777 232.466873,181.040970 
	C226.357117,175.777328 219.949799,175.976074 213.325867,180.646561 
	C210.623978,182.551651 207.348740,182.935974 204.482025,178.959183 
M278.765411,430.101654 
	C284.753906,422.465912 282.279297,402.191528 277.113770,394.677643 
	C274.851440,403.637207 273.756866,413.125885 270.003571,421.409912 
	C266.127136,429.965729 259.666138,437.350464 254.299561,445.301208 
	C263.229248,442.520355 272.159424,439.031464 278.765411,430.101654 
M313.607391,348.904724 
	C312.700165,347.082947 311.301788,345.344025 310.977783,343.423828 
	C310.005219,337.659332 309.451904,331.824066 308.734985,326.016418 
	C308.333252,326.050934 307.931519,326.085419 307.529816,326.119904 
	C308.049347,334.878967 308.225311,343.676727 309.206482,352.383759 
	C309.885651,358.410675 316.009064,363.192993 321.375366,362.961609 
	C326.600311,362.736328 330.390350,358.255280 330.733063,351.320923 
	C330.995544,346.009857 330.828613,340.674774 330.743103,335.352142 
	C330.729889,334.531219 330.127808,333.719696 329.798065,332.903839 
	C328.460022,334.581177 328.183899,336.237305 328.154297,337.897797 
	C328.011322,345.917236 322.485321,350.447266 313.607391,348.904724 
M183.556488,212.021988 
	C182.133438,213.856079 180.469803,215.552597 179.328705,217.547928 
	C174.227951,226.467224 180.166138,238.709229 189.768433,238.226776 
	C194.860916,237.970917 200.141525,236.082794 204.740219,233.753113 
	C206.884155,232.667007 207.609039,228.779816 208.977142,226.162262 
	C206.536789,225.169952 204.147217,224.015015 201.641388,223.232346 
	C199.267105,222.490799 196.770950,222.139526 194.328400,221.616653 
	C195.955658,219.862701 197.638870,218.156143 199.183502,216.332230 
	C199.831284,215.567322 200.185593,214.553864 200.673309,213.653397 
	C199.666779,213.371811 198.579300,212.703903 197.671600,212.894043 
	C196.084930,213.226425 193.882385,213.670914 193.231979,214.808380 
	C191.707138,217.475128 189.980804,220.625610 190.117691,223.495270 
	C190.297623,227.267258 193.942551,227.320175 197.112671,227.131134 
	C199.633698,226.980820 202.170822,227.100830 204.846970,227.100830 
	C204.186768,232.672577 200.040237,233.337204 196.828735,234.464401 
	C188.662277,237.330688 181.766144,232.650848 181.791748,224.652222 
	C181.808441,219.434280 183.464874,215.240509 188.690536,213.033127 
	C189.445068,212.714386 189.751434,211.334686 190.265213,210.445984 
	C189.149551,210.128036 187.967331,209.423416 186.936951,209.600830 
	C185.905090,209.778488 185.024902,210.837082 183.556488,212.021988 
M164.973907,191.436142 
	C155.944931,188.793030 155.877884,181.495300 156.757736,173.173584 
	C151.212646,179.828568 151.585403,185.352295 157.566956,190.979599 
	C160.496674,193.735764 162.546906,196.018524 158.328339,199.263702 
	C157.967529,199.541245 158.280548,200.694702 158.280548,201.755936 
	C159.210983,201.537247 160.012054,201.596771 160.380768,201.226135 
	C169.994278,191.563339 179.600967,181.892578 189.055130,172.075165 
	C189.698883,171.406677 189.139206,169.579269 189.139206,167.412598 
	C184.037262,172.925323 179.786743,177.812012 175.151093,182.300980 
	C174.113464,183.305756 171.410202,183.613968 170.039368,182.993408 
	C168.304703,182.208145 167.148560,180.144943 165.742889,178.632904 
	C167.113586,177.698029 168.506073,176.792862 169.843338,175.812378 
	C170.321426,175.461807 170.665955,174.929108 171.390198,174.126099 
	C167.534760,172.352127 164.388977,172.336136 162.039230,175.742035 
	C161.386307,176.688416 161.018280,178.608307 161.539688,179.448593 
	C163.435883,182.504501 165.764465,185.292130 168.488647,188.926117 
	C167.965652,189.311996 166.767883,190.195679 164.973907,191.436142 
M282.496185,362.128998 
	C278.514679,369.254547 279.300812,376.449188 282.235077,383.699738 
	C283.010529,382.040009 283.115997,380.337769 282.990601,378.652710 
	C282.626038,373.754120 284.118469,370.690674 289.697357,370.406616 
	C294.718781,370.150970 298.191742,367.369263 300.611145,362.836212 
	C303.242676,357.905731 303.297028,353.031586 301.448212,347.264587 
	C300.380005,354.035156 297.253204,357.425720 290.370483,357.353333 
	C287.891113,357.327240 285.383087,360.022278 282.496185,362.128998 
M316.170959,293.603149 
	C316.672363,294.441376 317.156067,295.290771 317.678375,296.115784 
	C319.567627,299.099854 321.355194,300.946808 325.632599,299.115845 
	C330.078308,297.212830 329.014557,294.622620 328.116577,291.563049 
	C327.263580,288.656891 327.820984,286.426056 330.826996,285.058960 
	C332.284485,284.396118 333.572449,283.360535 335.165955,282.348419 
	C333.560089,279.024231 332.101349,276.004547 330.535400,272.763000 
	C328.756683,273.900330 327.577911,274.832581 326.255890,275.465881 
	C322.284790,277.368164 320.893097,279.943207 323.457031,284.021393 
	C324.856110,286.246735 324.195160,287.995422 321.820770,289.308960 
	C319.950531,290.343628 318.283539,291.745636 316.170959,293.603149 
M212.870911,197.742645 
	C215.850220,198.092499 219.644821,196.878845 220.833817,201.045456 
	C221.898285,204.775742 218.626068,205.595398 216.309601,207.151550 
	C215.458878,207.723068 215.375381,209.436630 214.641068,211.456955 
	C221.163513,209.687210 225.366440,207.019165 225.740250,201.312714 
	C225.872879,199.288345 223.978104,195.760483 222.326553,195.284027 
	C219.186676,194.378204 215.555252,195.176239 212.127960,195.266678 
	C212.153748,195.917160 212.179550,196.567642 212.870911,197.742645 
M233.763992,429.752472 
	C240.473831,426.362396 240.795822,423.754639 235.687698,414.172363 
	C227.464859,418.196228 226.707001,422.736145 233.763992,429.752472 
M310.927826,379.788422 
	C313.168121,381.038422 315.408417,382.288391 317.585785,383.503265 
	C323.469482,374.708099 323.403717,373.826080 316.249359,368.619507 
	C314.299683,372.213013 312.388763,375.735138 310.927826,379.788422 
M186.012466,423.368622 
	C186.681946,423.079987 187.882477,422.863190 187.932846,422.490814 
	C188.214371,420.409637 188.217804,418.290863 188.317169,416.165375 
	C185.072830,415.026703 181.998459,413.947693 178.622650,412.762878 
	C177.860855,415.927185 177.195328,418.691681 176.608307,421.130096 
	C179.841949,421.830872 182.557083,422.419281 186.012466,423.368622 
M299.452698,398.952057 
	C305.304688,391.296173 304.935059,389.174255 297.051422,385.167969 
	C293.185455,392.372314 293.185455,392.372314 299.452698,398.952057 
M299.671448,315.162933 
	C295.752747,318.933411 294.697571,323.613464 294.896118,329.587341 
	C298.295685,324.144989 298.566345,316.071411 307.688599,319.484375 
	C306.822693,313.427856 305.537506,312.673706 299.671448,315.162933 
M186.863602,267.568359 
	C186.091476,267.035248 185.319351,266.502136 184.547226,265.969025 
	C184.120438,266.154694 183.693634,266.340332 183.266846,266.526001 
	C183.884888,268.418488 183.974716,270.910583 185.261383,272.044098 
	C186.706131,273.316864 189.232147,273.362213 191.287750,273.941559 
	C191.501877,273.420532 191.716019,272.899475 191.930145,272.378448 
	C190.416809,270.936646 188.903473,269.494843 186.863602,267.568359 
z"/>
<path fill="#FAFDFF" opacity="1.000000" stroke="none" 
	d="
M288.173676,402.813232 
	C294.609985,408.037201 297.797028,408.102478 305.327118,402.146149 
	C318.499054,391.727051 329.374207,379.097870 338.833008,365.322693 
	C369.274963,320.988892 383.384796,271.970032 379.787109,218.194473 
	C379.125061,208.298538 376.779877,198.502350 374.929871,188.713364 
	C374.669342,187.334747 372.984680,185.959610 371.629242,185.108185 
	C368.696198,183.265778 365.315796,182.084686 362.534973,180.060715 
	C355.171234,174.701233 353.520203,169.281479 355.678558,160.466354 
	C358.045471,150.799408 360.527710,141.140671 362.314087,131.360458 
	C363.146729,126.801796 362.456451,121.964966 363.108063,116.989212 
	C368.557037,126.438263 374.096069,135.788559 378.312286,145.795044 
	C377.784760,146.111389 377.257233,146.427719 376.729706,146.744049 
	C375.417297,145.234116 374.104889,143.724182 372.792511,142.214233 
	C372.307190,142.321213 371.821869,142.428192 371.336548,142.535156 
	C370.922546,154.898926 373.427032,166.921402 376.750854,180.077820 
	C379.353455,178.585358 381.693085,177.751572 383.153625,176.127304 
	C383.656647,175.567963 381.969818,173.036255 381.275635,171.408829 
	C381.211639,171.258774 381.094330,171.130554 380.996643,170.995911 
	C378.505829,167.562180 377.669434,163.857132 380.729034,160.551239 
	C381.609711,159.599686 384.445801,159.500977 385.837860,160.162827 
	C389.684570,161.991806 391.949219,167.235519 390.141571,170.637634 
	C388.304565,174.095093 385.893982,177.455551 383.038940,180.110336 
	C379.675171,183.238144 379.126129,186.271378 380.158173,190.614868 
	C385.219757,211.917908 387.641571,233.580307 386.774628,255.455688 
	C384.997650,300.292755 374.379089,342.497284 346.100830,378.421692 
	C336.901642,390.108276 325.331665,399.930328 314.814758,410.574249 
	C314.128235,411.269073 313.194275,411.733887 312.339508,412.245789 
	C299.490234,419.941284 293.563660,417.981628 287.792145,403.613159 
	C287.881287,403.114502 288.173676,402.813232 288.173676,402.813232 
M365.174927,166.657166 
	C364.756500,167.737701 364.323334,168.812790 363.922241,169.899734 
	C362.416656,173.980011 364.759613,179.057800 368.824402,180.207306 
	C371.606445,180.994019 373.487396,180.532715 372.679565,176.853394 
	C371.237762,170.286392 369.942108,163.687286 368.511749,156.744354 
	C367.959106,158.449417 367.512085,159.841980 367.056152,161.231613 
	C366.540497,162.803131 366.016846,164.372025 365.174927,166.657166 
z"/>
<path fill="#FAFDFF" opacity="1.000000" stroke="none" 
	d="
M92.982864,444.036865 
	C100.978409,446.234955 108.864502,449.063171 116.996498,450.475739 
	C127.788849,452.350525 138.544098,451.700989 148.386856,444.701569 
	C145.766754,444.479340 143.039139,444.636658 140.555435,443.932983 
	C137.829330,443.160675 134.262177,442.213806 133.076874,440.172668 
	C132.180466,438.628998 133.800919,434.692017 135.429535,432.782532 
	C141.098755,426.135712 148.728409,422.738525 157.370209,422.412384 
	C164.296249,422.150970 167.123215,426.762360 164.777588,433.389313 
	C164.451843,434.309540 164.215302,435.261353 163.885254,436.374725 
	C172.592072,441.335419 179.926758,437.858551 186.852890,432.978302 
	C187.829697,435.895996 188.011398,439.253265 189.782959,440.968353 
	C191.697647,442.822021 195.054138,443.818176 197.858063,443.998016 
	C205.018341,444.457153 209.147217,438.911804 207.596863,431.253418 
	C206.113708,423.926819 204.019318,416.712708 202.785828,409.349945 
	C201.501007,401.680847 205.402145,394.677185 212.402512,391.976715 
	C233.998825,383.645538 251.650085,369.716187 267.987762,353.752014 
	C273.185242,348.673340 278.904449,344.128601 283.873627,339.786316 
	C283.225555,343.037933 282.317810,347.592285 281.280640,352.795959 
	C279.587128,351.731720 278.296936,350.920959 276.671722,349.899628 
	C273.859283,353.456818 271.152985,356.969757 268.352875,360.406250 
	C253.637375,378.466156 235.428680,391.362946 212.781158,397.475067 
	C209.547302,398.347870 208.516815,399.581757 208.898117,402.913727 
	C210.097992,413.399139 216.352203,417.047943 226.034012,412.657806 
	C227.455826,412.013062 228.898468,411.414276 230.749283,411.353119 
	C227.757080,416.824432 224.260147,421.947876 218.497253,424.259521 
	C216.440979,425.084412 213.240936,423.058014 210.267838,422.253204 
	C210.267838,424.676849 209.866959,428.527893 210.346558,432.266022 
	C211.555664,441.690125 206.318726,450.043488 196.482132,453.669617 
	C188.798355,456.502136 182.855469,453.932281 177.367111,445.408783 
	C177.014694,444.861450 176.634918,444.331787 175.959366,443.341766 
	C174.368851,444.278320 172.952255,445.575317 171.311462,445.994171 
	C165.780807,447.406067 160.178925,449.365204 154.587585,449.420288 
	C150.911758,449.456512 148.571442,450.063568 145.852371,452.409729 
	C142.370239,455.414276 138.437912,458.126740 134.280823,460.068634 
	C126.994492,463.472260 119.152435,463.941101 112.245308,459.487885 
	C105.463562,455.115479 99.390999,449.643158 93.008682,444.325775 
	C93.010139,443.998016 92.982864,444.036865 92.982864,444.036865 
z"/>
<path fill="#FAFDFF" opacity="1.000000" stroke="none" 
	d="
M316.506897,341.042358 
	C315.085266,336.265930 313.869385,331.771240 312.711975,327.261597 
	C310.632019,319.157471 313.407745,311.384491 320.069092,306.545166 
	C325.673981,302.473328 330.691010,303.471924 334.314850,309.396667 
	C335.444061,311.242859 336.398560,313.213989 337.685852,314.939331 
	C338.598358,316.162292 340.168274,318.086517 341.031433,317.889252 
	C342.513367,317.550568 344.453735,316.014893 344.842529,314.606506 
	C347.753204,304.062775 351.134766,293.546539 352.735016,282.778900 
	C353.837128,275.363098 352.408966,267.553955 351.938110,259.931335 
	C351.777679,257.334290 350.714630,254.237656 347.611725,255.328461 
	C346.009918,255.891556 344.319977,259.446350 344.596832,261.372437 
	C345.043030,264.476776 345.109680,266.558685 341.830658,267.655609 
	C338.489471,268.773315 336.017456,267.755737 334.246826,264.711548 
	C330.827637,258.832977 332.672272,245.492996 338.227081,241.625122 
	C340.791901,239.839233 344.771973,239.118317 347.886017,239.546448 
	C349.203278,239.727570 349.899628,244.129883 350.960846,246.577759 
	C351.609406,248.073700 352.666504,250.821747 353.107910,250.737717 
	C355.349060,250.310974 359.095428,249.454712 359.336914,248.183334 
	C361.214661,238.297562 362.521942,228.294205 363.616241,218.284607 
	C363.714142,217.389145 361.193695,215.596588 359.655609,215.246002 
	C354.752106,214.128387 351.867737,211.172134 351.116394,205.044876 
	C359.365234,207.097702 362.174683,200.653152 365.547913,195.253204 
	C367.301300,199.662125 368.881561,203.635696 370.739227,208.306870 
	C363.244843,210.998505 366.201080,217.177383 367.131531,223.262497 
	C368.456970,231.931183 369.405701,240.696671 369.822479,249.453781 
	C370.218506,257.775757 367.032013,260.356293 358.630157,259.894989 
	C357.533875,259.834808 356.421509,260.066925 356.194702,260.086792 
	C356.812195,273.885040 357.844055,287.291473 357.838989,300.697540 
	C357.836243,307.940308 356.715424,315.360168 354.814453,322.350830 
	C353.843201,325.922455 350.494629,329.307983 347.396027,331.717194 
	C343.981750,334.371796 341.370270,332.940674 339.841766,328.730255 
	C338.936981,326.237885 338.324036,323.585449 337.066162,321.285950 
	C333.906128,315.509064 328.683441,314.466217 323.858307,318.841919 
	C318.983185,323.262939 315.969971,328.623444 317.232513,335.674469 
	C317.553741,337.468475 316.929047,339.431854 316.506897,341.042358 
z"/>
<path fill="#F5FAFE" opacity="1.000000" stroke="none" 
	d="
M178.652878,211.648132 
	C173.981125,215.668945 169.570480,219.448257 165.025162,223.342987 
	C165.891876,223.992111 166.528061,224.300797 166.929794,224.798676 
	C168.619003,226.892075 171.857162,229.398483 171.486084,231.083878 
	C170.986664,233.352142 167.934219,235.441910 165.525101,236.813828 
	C162.129593,238.747467 160.747421,241.772369 163.608963,245.341064 
	C167.609329,250.330048 172.411865,254.675842 177.153900,259.589783 
	C178.484818,257.670013 179.478836,256.680206 179.908752,255.487122 
	C180.312210,254.367462 180.457123,252.898102 180.039886,251.852264 
	C179.844177,251.361679 177.982513,251.701401 177.009491,251.322067 
	C174.727219,250.432297 171.760803,249.887009 170.516647,248.160675 
	C169.382462,246.586945 169.496857,243.409698 170.225906,241.351990 
	C171.509949,237.727905 174.503952,237.022903 177.963882,238.799835 
	C185.844223,242.847031 187.934570,253.508896 182.290131,260.116150 
	C175.888138,267.610168 167.694458,271.555725 158.064926,272.637909 
	C150.063248,273.537140 142.066956,265.034943 140.970612,255.068176 
	C140.237122,248.400146 143.035385,243.858902 149.561905,240.496414 
	C146.669052,239.128311 144.524246,238.038361 142.319138,237.088364 
	C138.755783,235.553162 135.367004,234.122192 134.521881,229.516708 
	C134.262878,228.105255 132.121246,226.935699 130.686478,225.863022 
	C126.402756,222.660355 122.042046,219.560669 116.572861,215.595245 
	C123.783485,214.994629 129.376221,214.765900 134.891266,213.986954 
	C138.638550,213.457687 142.426300,212.527115 145.928162,211.112915 
	C150.922119,209.096161 151.181320,207.375580 148.022659,202.936844 
	C142.249985,194.824738 142.322571,188.912155 149.220078,180.755585 
	C148.855759,183.491516 148.791550,185.127747 148.403091,186.682999 
	C147.023376,192.207031 147.635757,197.245010 151.636658,201.584961 
	C152.764236,202.808060 153.794632,204.122116 154.942551,205.324829 
	C158.386734,208.933319 161.866913,212.507462 165.622833,216.394958 
	C170.414337,212.564133 174.876083,208.996933 178.262909,206.289154 
	C175.862106,202.587479 173.033936,199.743866 172.372025,196.463196 
	C172.105515,195.142212 176.365906,192.363403 178.988708,191.205353 
	C180.598373,190.494614 183.009033,191.598038 185.060013,191.886795 
	C184.992722,192.367889 184.925430,192.848999 184.858124,193.330093 
	C181.569244,194.387985 178.280365,195.445877 173.802353,196.886261 
	C178.176758,201.087708 181.729355,200.851562 185.659058,199.407944 
	C187.172882,198.851791 188.913239,198.912201 190.550385,198.691696 
	C189.809357,200.193527 189.389954,202.020203 188.264847,203.134079 
	C185.312073,206.057434 182.051758,208.670135 178.652878,211.648132 
M145.113266,214.781876 
	C142.266037,215.641922 139.346466,216.322296 136.598465,217.428757 
	C134.922455,218.103561 133.188263,219.194565 132.146652,220.594513 
	C131.757599,221.117371 133.030899,223.898941 133.952408,224.148056 
	C135.540970,224.577515 137.472275,223.936691 139.208969,223.528748 
	C139.962143,223.351807 140.610428,222.213562 141.269714,222.246429 
	C143.404602,222.352890 146.123734,222.131302 147.455063,223.328796 
	C148.503540,224.271851 148.330200,227.275894 147.782898,229.087570 
	C147.263458,230.807022 145.553345,232.166763 143.970505,234.191666 
	C145.967484,235.293564 147.595169,236.334091 149.336426,237.124405 
	C153.658524,239.086090 153.997192,240.493576 150.470428,243.866882 
	C145.698135,248.431503 143.592941,253.664642 146.179443,260.058563 
	C148.446304,265.662292 152.969986,268.783630 158.770340,269.356903 
	C165.123672,269.984802 169.550934,266.282440 172.857819,262.394806 
	C169.034851,258.146820 165.739304,254.172485 162.107513,250.533752 
	C158.168243,246.586929 155.248611,242.650528 159.436020,237.274521 
	C152.126785,229.557312 160.241959,225.322968 163.030823,219.752899 
	C161.913315,218.517609 160.836685,217.276886 159.706696,216.086838 
	C153.410522,209.456070 153.406097,209.460266 145.113266,214.781876 
M141.049774,230.602646 
	C142.630951,229.841507 144.393677,229.287537 145.665237,228.173126 
	C145.981918,227.895569 145.008087,225.444229 144.068024,224.680847 
	C143.442398,224.172806 140.963074,224.615662 140.809464,225.103775 
	C140.316681,226.669418 140.519836,228.454086 141.049774,230.602646 
M175.512695,246.926682 
	C176.865021,246.010300 178.217346,245.093918 179.569687,244.177536 
	C178.789352,243.182404 178.182175,241.679932 177.179047,241.337540 
	C176.212219,241.007523 173.839905,241.822754 173.818436,242.226898 
	C173.739319,243.716263 174.379181,245.243805 175.512695,246.926682 
M160.849136,228.458832 
	C161.238464,229.939133 161.254150,231.762909 162.169998,232.759201 
	C162.649536,233.280853 164.904160,232.650711 165.977295,231.954910 
	C166.559906,231.577164 166.638580,229.119873 166.445816,229.053711 
	C164.842056,228.503265 163.122025,228.291656 160.849136,228.458832 
z"/>
<path fill="#FAFDFF" opacity="1.000000" stroke="none" 
	d="
M205.824799,457.949463 
	C233.205841,449.621368 250.015030,431.549377 258.091400,404.657288 
	C254.679977,405.204437 251.679337,406.178802 248.726074,406.051788 
	C243.367569,405.821320 240.005692,401.134827 240.940247,395.982086 
	C241.708038,391.748749 246.097275,389.586029 251.325333,391.482330 
	C259.905884,394.594543 262.060883,398.186798 262.199524,404.989960 
	C262.766479,432.811371 245.991699,454.652466 217.142548,462.640320 
	C198.474838,467.809082 179.724777,466.943848 161.003784,462.031281 
	C165.799225,462.031281 170.599091,462.160645 175.388870,461.996155 
	C180.532669,461.819519 185.701920,461.631317 190.795471,460.958923 
	C195.717010,460.309204 200.556290,459.036255 205.824799,457.949463 
z"/>
<path fill="#F6FBFE" opacity="1.000000" stroke="none" 
	d="
M206.337402,269.075043 
	C203.755676,273.574585 201.509857,277.829132 198.805008,281.768555 
	C194.553665,287.960297 189.993042,293.939697 185.605347,299.951569 
	C185.125610,295.922485 185.099106,291.417206 183.946487,287.221313 
	C182.787857,283.003479 180.508240,279.093597 178.461868,274.465271 
	C179.700882,272.172424 181.771240,272.513519 183.176788,275.122467 
	C185.275146,279.017365 186.848755,283.194977 188.824310,287.655853 
	C193.099228,279.359070 203.641449,274.253296 201.857986,262.285034 
	C197.481125,261.589600 191.692368,263.602631 191.318069,257.222321 
	C191.180344,254.874283 193.364197,251.199005 195.489120,250.144821 
	C200.722015,247.548721 202.367035,252.852722 205.142990,256.204651 
	C206.220642,255.576996 207.349503,255.019791 208.371552,254.309021 
	C221.119537,245.443451 234.278641,237.400757 249.317749,232.864822 
	C250.501114,232.507904 251.177032,230.468567 252.088776,229.211136 
	C250.496826,228.536804 248.920944,227.381470 247.308243,227.327515 
	C245.788635,227.276688 244.192108,228.953964 242.697708,228.853622 
	C240.388702,228.698608 236.946732,228.328186 236.147949,226.866913 
	C235.014587,224.793640 234.977524,221.242859 236.003525,219.035202 
	C238.864761,212.878632 243.028809,212.113464 247.459610,216.168839 
	C252.651779,220.921097 257.875275,225.639145 263.284424,230.553024 
	C256.846924,233.403305 249.992874,236.690414 242.936859,239.463623 
	C238.963013,241.025436 237.384079,242.981155 237.803513,247.537125 
	C238.408096,254.104416 238.714417,260.881775 237.769211,267.368561 
	C236.137283,278.568207 222.357346,283.112305 213.818634,275.691895 
	C213.047836,275.022034 212.600464,273.980011 212.199356,272.434296 
	C218.512115,273.900269 224.985687,278.190918 230.434189,271.875946 
	C232.454071,269.534821 233.240021,266.129120 234.431717,263.548767 
	C233.514374,262.585052 233.333862,262.273712 233.064133,262.130951 
	C230.437332,260.740326 227.795624,259.377899 225.158142,258.007477 
	C226.711411,255.277237 228.249680,252.538315 229.824341,249.820465 
	C230.597473,248.486069 231.438080,247.190765 232.248123,245.877762 
	C231.716095,245.421310 231.184082,244.964874 230.652054,244.508438 
	C227.591171,246.661041 224.496414,248.767380 221.477539,250.977402 
	C217.211792,254.100204 212.614883,256.916504 208.937363,260.633392 
	C207.187607,262.401886 207.234467,265.947937 206.337402,269.075043 
M238.071396,222.338867 
	C240.983871,226.733597 242.553528,226.801895 246.113571,222.369431 
	C244.344589,220.836517 242.566086,219.295349 240.338272,217.364838 
	C239.368896,219.149811 238.703156,220.375687 238.071396,222.338867 
M232.378403,253.096054 
	C229.432724,253.197891 228.400894,254.930771 229.618759,257.328003 
	C230.055267,258.187225 232.769699,258.920563 233.520599,258.393982 
	C235.712875,256.856537 235.580261,254.826645 232.378403,253.096054 
M201.112000,257.342102 
	C201.400864,254.849503 200.761642,252.825302 197.831497,253.341690 
	C197.020554,253.484604 195.847580,255.626816 196.036697,256.625214 
	C196.588013,259.535736 198.524963,259.690186 201.112000,257.342102 
z"/>
<path fill="#F4FAFE" opacity="1.000000" stroke="none" 
	d="
M204.715668,179.261597 
	C207.348740,182.935974 210.623978,182.551651 213.325867,180.646561 
	C219.949799,175.976074 226.357117,175.777328 232.466873,181.040970 
	C239.289505,186.918777 240.408371,194.605743 238.049896,202.896896 
	C236.056488,209.904678 231.344482,215.044312 225.750336,219.446564 
	C223.934540,220.875473 222.059998,222.229767 220.180756,223.641922 
	C222.213028,230.176468 224.202911,236.631226 217.859497,241.700134 
	C210.434067,247.633636 202.210373,246.392349 193.994141,244.494156 
	C193.958862,244.037064 193.923569,243.579987 193.888290,243.122894 
	C197.036255,243.122894 200.268478,242.656158 203.317062,243.206573 
	C214.385269,245.205017 220.736069,232.959839 214.535675,223.091690 
	C210.021881,215.907806 205.565887,208.687378 201.117126,201.462936 
	C197.574112,195.709366 194.080948,189.925079 190.565659,184.154434 
	C191.008942,183.742264 191.452209,183.330078 191.895477,182.917908 
	C193.088577,184.048401 194.549759,185.001892 195.431717,186.337784 
	C201.665070,195.779343 207.928650,205.207718 213.853165,214.842850 
	C216.003616,218.340195 218.300018,218.992050 221.584320,217.022034 
	C230.255203,211.820999 236.818695,205.515854 235.110031,194.391190 
	C233.555145,184.267609 222.270218,178.640854 213.511337,183.993896 
	C206.471375,188.296356 204.300339,187.886246 199.943253,180.892410 
	C194.565842,172.260773 193.194962,162.576599 193.307159,152.654831 
	C193.323685,151.193069 194.962189,149.749634 195.850250,148.297729 
	C196.615570,149.697556 197.712906,151.013428 198.091568,152.511017 
	C200.314697,161.303558 202.370087,170.138519 204.715668,179.261597 
z"/>
<path fill="#F8FCFE" opacity="1.000000" stroke="none" 
	d="
M278.553040,430.402374 
	C272.159424,439.031464 263.229248,442.520355 254.299561,445.301208 
	C259.666138,437.350464 266.127136,429.965729 270.003571,421.409912 
	C273.756866,413.125885 274.851440,403.637207 277.115662,394.678192 
	C282.279297,402.191528 284.753906,422.465912 278.553040,430.402374 
z"/>
<path fill="#F3FAFE" opacity="1.000000" stroke="none" 
	d="
M313.980225,349.025574 
	C322.485321,350.447266 328.011322,345.917236 328.154297,337.897797 
	C328.183899,336.237305 328.460022,334.581177 329.798065,332.903839 
	C330.127808,333.719696 330.729889,334.531219 330.743103,335.352142 
	C330.828613,340.674774 330.995544,346.009857 330.733063,351.320923 
	C330.390350,358.255280 326.600311,362.736328 321.375366,362.961609 
	C316.009064,363.192993 309.885651,358.410675 309.206482,352.383759 
	C308.225311,343.676727 308.049347,334.878967 307.529816,326.119904 
	C307.931519,326.085419 308.333252,326.050934 308.734985,326.016418 
	C309.451904,331.824066 310.005219,337.659332 310.977783,343.423828 
	C311.301788,345.344025 312.700165,347.082947 313.980225,349.025574 
z"/>
<path fill="#F4FAFE" opacity="1.000000" stroke="none" 
	d="
M183.817352,211.765778 
	C185.024902,210.837082 185.905090,209.778488 186.936951,209.600830 
	C187.967331,209.423416 189.149551,210.128036 190.265198,210.445984 
	C189.751434,211.334686 189.445068,212.714386 188.690536,213.033127 
	C183.464874,215.240509 181.808441,219.434280 181.791748,224.652222 
	C181.766144,232.650848 188.662277,237.330688 196.828735,234.464401 
	C200.040237,233.337204 204.186768,232.672577 204.846970,227.100830 
	C202.170822,227.100830 199.633698,226.980820 197.112671,227.131134 
	C193.942551,227.320175 190.297623,227.267258 190.117691,223.495270 
	C189.980804,220.625610 191.707138,217.475128 193.231979,214.808380 
	C193.882385,213.670914 196.084930,213.226425 197.671600,212.894043 
	C198.579300,212.703903 199.666779,213.371811 200.673309,213.653397 
	C200.185593,214.553864 199.831284,215.567322 199.183502,216.332230 
	C197.638870,218.156143 195.955658,219.862701 194.328400,221.616638 
	C196.770950,222.139526 199.267105,222.490799 201.641388,223.232346 
	C204.147217,224.015015 206.536789,225.169952 208.977142,226.162262 
	C207.609039,228.779816 206.884155,232.667007 204.740219,233.753113 
	C200.141525,236.082794 194.860916,237.970917 189.768433,238.226776 
	C180.166138,238.709229 174.227951,226.467224 179.328705,217.547928 
	C180.469803,215.552597 182.133438,213.856079 183.817352,211.765778 
z"/>
<path fill="#F0F9FE" opacity="1.000000" stroke="none" 
	d="
M165.272003,191.257751 
	C166.767883,190.195679 167.965652,189.311996 168.488647,188.926117 
	C165.764465,185.292130 163.435883,182.504501 161.539688,179.448593 
	C161.018280,178.608307 161.386307,176.688416 162.039230,175.742035 
	C164.388977,172.336136 167.534760,172.352127 171.390198,174.126099 
	C170.665955,174.929108 170.321426,175.461807 169.843338,175.812378 
	C168.506073,176.792862 167.113586,177.698029 165.742889,178.632904 
	C167.148560,180.144943 168.304703,182.208145 170.039368,182.993408 
	C171.410202,183.613968 174.113464,183.305756 175.151093,182.300980 
	C179.786743,177.812012 184.037262,172.925323 189.139206,167.412598 
	C189.139206,169.579269 189.698883,171.406677 189.055130,172.075165 
	C179.600967,181.892578 169.994278,191.563339 160.380768,201.226135 
	C160.012054,201.596771 159.210983,201.537247 158.280548,201.755936 
	C158.280548,200.694702 157.967529,199.541245 158.328339,199.263702 
	C162.546906,196.018524 160.496674,193.735764 157.566956,190.979599 
	C151.585403,185.352295 151.212646,179.828568 156.757736,173.173584 
	C155.877884,181.495300 155.944931,188.793030 165.272003,191.257751 
z"/>
<path fill="#F9FCFF" opacity="1.000000" stroke="none" 
	d="
M282.692169,361.802246 
	C285.383087,360.022278 287.891113,357.327240 290.370483,357.353333 
	C297.253204,357.425720 300.380005,354.035156 301.448212,347.264587 
	C303.297028,353.031586 303.242676,357.905731 300.611145,362.836212 
	C298.191742,367.369263 294.718781,370.150970 289.697357,370.406616 
	C284.118469,370.690674 282.626038,373.754120 282.990601,378.652710 
	C283.115997,380.337769 283.010529,382.040009 282.235077,383.699738 
	C279.300812,376.449188 278.514679,369.254547 282.692169,361.802246 
z"/>
<path fill="#F8FCFE" opacity="1.000000" stroke="none" 
	d="
M316.348633,293.293823 
	C318.283539,291.745636 319.950531,290.343628 321.820770,289.308960 
	C324.195160,287.995422 324.856110,286.246735 323.457031,284.021393 
	C320.893097,279.943207 322.284790,277.368164 326.255890,275.465881 
	C327.577911,274.832581 328.756683,273.900330 330.535400,272.763000 
	C332.101349,276.004547 333.560089,279.024231 335.165955,282.348419 
	C333.572449,283.360535 332.284485,284.396118 330.826996,285.058960 
	C327.820984,286.426056 327.263580,288.656891 328.116577,291.563049 
	C329.014557,294.622620 330.078308,297.212830 325.632599,299.115845 
	C321.355194,300.946808 319.567627,299.099854 317.678375,296.115784 
	C317.156067,295.290771 316.672363,294.441376 316.348633,293.293823 
z"/>
<path fill="#F1F9FE" opacity="1.000000" stroke="none" 
	d="
M212.538116,197.480377 
	C212.179550,196.567642 212.153748,195.917160 212.127960,195.266678 
	C215.555252,195.176239 219.186676,194.378204 222.326553,195.284027 
	C223.978104,195.760483 225.872879,199.288345 225.740250,201.312714 
	C225.366440,207.019165 221.163513,209.687210 214.641068,211.456955 
	C215.375381,209.436630 215.458878,207.723068 216.309601,207.151550 
	C218.626068,205.595398 221.898285,204.775742 220.833817,201.045456 
	C219.644821,196.878845 215.850220,198.092499 212.538116,197.480377 
z"/>
<path fill="#F6FBFE" opacity="1.000000" stroke="none" 
	d="
M233.458984,429.551422 
	C226.707001,422.736145 227.464859,418.196228 235.687698,414.172363 
	C240.795822,423.754639 240.473831,426.362396 233.458984,429.551422 
z"/>
<path fill="#F8FCFE" opacity="1.000000" stroke="none" 
	d="
M310.702820,379.522827 
	C312.388763,375.735138 314.299683,372.213013 316.249359,368.619507 
	C323.403717,373.826080 323.469482,374.708099 317.585785,383.503265 
	C315.408417,382.288391 313.168121,381.038422 310.702820,379.522827 
z"/>
<path fill="#F3FAFE" opacity="1.000000" stroke="none" 
	d="
M185.642349,423.188171 
	C182.557083,422.419281 179.841949,421.830872 176.608307,421.130096 
	C177.195328,418.691681 177.860855,415.927185 178.622650,412.762878 
	C181.998459,413.947693 185.072830,415.026703 188.317169,416.165375 
	C188.217804,418.290863 188.214371,420.409637 187.932846,422.490814 
	C187.882477,422.863190 186.681946,423.079987 185.642349,423.188171 
z"/>
<path fill="#F6FBFE" opacity="1.000000" stroke="none" 
	d="
M299.103516,398.859070 
	C293.185455,392.372314 293.185455,392.372314 297.051422,385.167969 
	C304.935059,389.174255 305.304688,391.296173 299.103516,398.859070 
z"/>
<path fill="#F0F9FE" opacity="1.000000" stroke="none" 
	d="
M299.961334,314.943665 
	C305.537506,312.673706 306.822693,313.427856 307.688599,319.484375 
	C298.566345,316.071411 298.295685,324.144989 294.896118,329.587341 
	C294.697571,323.613464 295.752747,318.933411 299.961334,314.943665 
z"/>
<path fill="#F0F9FE" opacity="1.000000" stroke="none" 
	d="
M187.126862,267.810699 
	C188.903473,269.494843 190.416809,270.936646 191.930145,272.378448 
	C191.716019,272.899475 191.501877,273.420532 191.287750,273.941559 
	C189.232147,273.362213 186.706131,273.316864 185.261383,272.044098 
	C183.974716,270.910583 183.884888,268.418488 183.266846,266.526001 
	C183.693634,266.340332 184.120438,266.154694 184.547226,265.969025 
	C185.319351,266.502136 186.091476,267.035248 187.126862,267.810699 
z"/>
<path fill="#FAFDFF" opacity="1.000000" stroke="none" 
	d="
M287.730713,403.260742 
	C287.694946,403.072754 287.809784,402.738464 288.049133,402.608704 
	C288.173676,402.813232 287.881287,403.114502 287.730713,403.260742 
z"/>
<path fill="#FAFDFF" opacity="1.000000" stroke="none" 
	d="
M93.028458,443.982819 
	C92.909058,443.863129 92.771347,443.758606 92.633636,443.654114 
	C92.709137,443.698486 92.784637,443.742859 92.921501,443.912048 
	C92.982864,444.036865 93.010139,443.998016 93.028458,443.982819 
z"/>
<path fill="#5BB5F1" opacity="1.000000" stroke="none" 
	d="
M365.335785,166.299606 
	C366.016846,164.372025 366.540497,162.803131 367.056152,161.231613 
	C367.512085,159.841980 367.959106,158.449417 368.511749,156.744354 
	C369.942108,163.687286 371.237762,170.286392 372.679565,176.853394 
	C373.487396,180.532715 371.606445,180.994019 368.824402,180.207306 
	C364.759613,179.057800 362.416656,173.980011 363.922241,169.899734 
	C364.323334,168.812790 364.756500,167.737701 365.335785,166.299606 
z"/>
<path fill="#59B4F1" opacity="1.000000" stroke="none" 
	d="
M145.430847,214.577209 
	C153.406097,209.460266 153.410522,209.456070 159.706696,216.086838 
	C160.836685,217.276886 161.913315,218.517609 163.030823,219.752899 
	C160.241959,225.322968 152.126785,229.557312 159.436020,237.274521 
	C155.248611,242.650528 158.168243,246.586929 162.107513,250.533752 
	C165.739304,254.172485 169.034851,258.146820 172.857819,262.394806 
	C169.550934,266.282440 165.123672,269.984802 158.770340,269.356903 
	C152.969986,268.783630 148.446304,265.662292 146.179443,260.058563 
	C143.592941,253.664642 145.698135,248.431503 150.470428,243.866882 
	C153.997192,240.493576 153.658524,239.086090 149.336426,237.124405 
	C147.595169,236.334091 145.967484,235.293564 143.970505,234.191666 
	C145.553345,232.166763 147.263458,230.807022 147.782898,229.087570 
	C148.330200,227.275894 148.503540,224.271851 147.455063,223.328796 
	C146.123734,222.131302 143.404602,222.352890 141.269714,222.246429 
	C140.610428,222.213562 139.962143,223.351807 139.208969,223.528748 
	C137.472275,223.936691 135.540970,224.577515 133.952408,224.148056 
	C133.030899,223.898941 131.757599,221.117371 132.146652,220.594513 
	C133.188263,219.194565 134.922455,218.103561 136.598465,217.428757 
	C139.346466,216.322296 142.266037,215.641922 145.430847,214.577209 
M158.889465,262.453949 
	C162.444672,263.125488 162.378906,260.622925 161.820297,258.561035 
	C161.623550,257.834839 159.508957,257.628235 158.270020,257.184387 
	C158.249298,258.807892 158.228592,260.431366 158.889465,262.453949 
z"/>
<path fill="#5EB7F1" opacity="1.000000" stroke="none" 
	d="
M140.752121,230.378448 
	C140.519836,228.454086 140.316681,226.669418 140.809464,225.103775 
	C140.963074,224.615662 143.442398,224.172806 144.068024,224.680847 
	C145.008087,225.444229 145.981918,227.895569 145.665237,228.173126 
	C144.393677,229.287537 142.630951,229.841507 140.752121,230.378448 
z"/>
<path fill="#5EB7F1" opacity="1.000000" stroke="none" 
	d="
M175.130661,246.841827 
	C174.379181,245.243805 173.739319,243.716263 173.818436,242.226898 
	C173.839905,241.822754 176.212219,241.007523 177.179047,241.337540 
	C178.182175,241.679932 178.789352,243.182404 179.569687,244.177536 
	C178.217346,245.093918 176.865021,246.010300 175.130661,246.841827 
z"/>
<path fill="#5EB7F1" opacity="1.000000" stroke="none" 
	d="
M161.143127,228.218262 
	C163.122025,228.291656 164.842056,228.503265 166.445816,229.053711 
	C166.638580,229.119873 166.559906,231.577164 165.977295,231.954910 
	C164.904160,232.650711 162.649536,233.280853 162.169998,232.759201 
	C161.254150,231.762909 161.238464,229.939133 161.143127,228.218262 
z"/>
<path fill="#5EB7F1" opacity="1.000000" stroke="none" 
	d="
M238.054413,221.970215 
	C238.703156,220.375687 239.368896,219.149811 240.338272,217.364838 
	C242.566086,219.295349 244.344589,220.836517 246.113571,222.369431 
	C242.553528,226.801895 240.983871,226.733597 238.054413,221.970215 
z"/>
<path fill="#68BBF2" opacity="1.000000" stroke="none" 
	d="
M232.756882,253.192108 
	C235.580261,254.826645 235.712875,256.856537 233.520599,258.393982 
	C232.769699,258.920563 230.055267,258.187225 229.618759,257.328003 
	C228.400894,254.930771 229.432724,253.197891 232.756882,253.192108 
z"/>
<path fill="#5EB7F1" opacity="1.000000" stroke="none" 
	d="
M200.935211,257.713196 
	C198.524963,259.690186 196.588013,259.535736 196.036697,256.625214 
	C195.847580,255.626816 197.020554,253.484604 197.831497,253.341690 
	C200.761642,252.825302 201.400864,254.849503 200.935211,257.713196 
z"/>
<path fill="#F1F9FE" opacity="1.000000" stroke="none" 
	d="
M158.548676,262.254395 
	C158.228592,260.431366 158.249298,258.807892 158.270020,257.184387 
	C159.508957,257.628235 161.623550,257.834839 161.820297,258.561035 
	C162.378906,260.622925 162.444672,263.125488 158.548676,262.254395 
z"/>
</svg>